<?xml version="1.0" encoding="UTF-8" standalone="no"?>
<!DOCTYPE svg PUBLIC "-//W3C//DTD SVG 1.1//EN"
 "http://www.w3.org/Graphics/SVG/1.1/DTD/svg11.dtd">
<!-- Generated by graphviz version 12.1.2 (20240928.0832)
 -->
<!-- Title: public.workflow_step_runs Pages: 1 -->
<svg width="1076pt" height="1499pt"
 viewBox="0.00 0.00 1075.73 1499.20" xmlns="http://www.w3.org/2000/svg" xmlns:xlink="http://www.w3.org/1999/xlink">
<g id="graph0" class="graph" transform="scale(1 1) rotate(0) translate(4 1495.2)">
<title>public.workflow_step_runs</title>
<polygon fill="white" stroke="none" points="-4,4 -4,-1495.2 1071.73,-1495.2 1071.73,4 -4,4"/>
<!-- public.workflow_step_runs -->
<g id="node1" class="node">
<title>public.workflow_step_runs</title>
<polygon fill="#efefef" stroke="none" points="360.06,-1409.4 360.06,-1445 696.02,-1445 696.02,-1409.4 360.06,-1409.4"/>
<polygon fill="none" stroke="black" points="360.06,-1409.4 360.06,-1445 696.02,-1445 696.02,-1409.4 360.06,-1409.4"/>
<text text-anchor="start" x="367.06" y="-1422.8" font-family="Arial Bold" font-size="18.00">public.workflow_step_runs</text>
<text text-anchor="start" x="564.53" y="-1422.8" font-family="Arial" font-size="14.00">    </text>
<text text-anchor="start" x="595.65" y="-1422.8" font-family="Arial" font-size="14.00" fill="#666666">[BASE TABLE]</text>
<polygon fill="none" stroke="black" points="360.06,-1378.6 360.06,-1409.4 696.02,-1409.4 696.02,-1378.6 360.06,-1378.6"/>
<text text-anchor="start" x="367.06" y="-1390.8" font-family="Arial" font-size="14.00">attempt </text>
<text text-anchor="start" x="417.64" y="-1390.8" font-family="Arial" font-size="14.00" fill="#666666">[integer]</text>
<polygon fill="none" stroke="black" points="360.06,-1347.8 360.06,-1378.6 696.02,-1378.6 696.02,-1347.8 360.06,-1347.8"/>
<text text-anchor="start" x="367.06" y="-1360" font-family="Arial" font-size="14.00">created_at </text>
<text text-anchor="start" x="437.11" y="-1360" font-family="Arial" font-size="14.00" fill="#666666">[timestamp with time zone]</text>
<polygon fill="none" stroke="black" points="360.06,-1317 360.06,-1347.8 696.02,-1347.8 696.02,-1317 360.06,-1317"/>
<text text-anchor="start" x="367.06" y="-1329.2" font-family="Arial" font-size="14.00">duration_ms </text>
<text text-anchor="start" x="447.99" y="-1329.2" font-family="Arial" font-size="14.00" fill="#666666">[integer]</text>
<polygon fill="none" stroke="black" points="360.06,-1286.2 360.06,-1317 696.02,-1317 696.02,-1286.2 360.06,-1286.2"/>
<text text-anchor="start" x="367.06" y="-1298.4" font-family="Arial" font-size="14.00">error </text>
<text text-anchor="start" x="400.51" y="-1298.4" font-family="Arial" font-size="14.00" fill="#666666">[jsonb]</text>
<polygon fill="none" stroke="black" points="360.06,-1255.4 360.06,-1286.2 696.02,-1286.2 696.02,-1255.4 360.06,-1255.4"/>
<text text-anchor="start" x="367.06" y="-1267.6" font-family="Arial" font-size="14.00">finished_at </text>
<text text-anchor="start" x="438.67" y="-1267.6" font-family="Arial" font-size="14.00" fill="#666666">[timestamp with time zone]</text>
<polygon fill="none" stroke="black" points="360.06,-1224.6 360.06,-1255.4 696.02,-1255.4 696.02,-1224.6 360.06,-1224.6"/>
<text text-anchor="start" x="367.06" y="-1236.8" font-family="Arial" font-size="14.00">id </text>
<text text-anchor="start" x="381.85" y="-1236.8" font-family="Arial" font-size="14.00" fill="#666666">[uuid]</text>
<polygon fill="none" stroke="black" points="360.06,-1193.8 360.06,-1224.6 696.02,-1224.6 696.02,-1193.8 360.06,-1193.8"/>
<text text-anchor="start" x="367.06" y="-1206" font-family="Arial" font-size="14.00">input </text>
<text text-anchor="start" x="401.31" y="-1206" font-family="Arial" font-size="14.00" fill="#666666">[jsonb]</text>
<polygon fill="none" stroke="black" points="360.06,-1163 360.06,-1193.8 696.02,-1193.8 696.02,-1163 360.06,-1163"/>
<text text-anchor="start" x="367.06" y="-1175.2" font-family="Arial" font-size="14.00">node_id </text>
<text text-anchor="start" x="420.78" y="-1175.2" font-family="Arial" font-size="14.00" fill="#666666">[text]</text>
<polygon fill="none" stroke="black" points="360.06,-1132.2 360.06,-1163 696.02,-1163 696.02,-1132.2 360.06,-1132.2"/>
<text text-anchor="start" x="367.06" y="-1144.4" font-family="Arial" font-size="14.00">node_type </text>
<text text-anchor="start" x="436.34" y="-1144.4" font-family="Arial" font-size="14.00" fill="#666666">[text]</text>
<polygon fill="none" stroke="black" points="360.06,-1101.4 360.06,-1132.2 696.02,-1132.2 696.02,-1101.4 360.06,-1101.4"/>
<text text-anchor="start" x="367.06" y="-1113.6" font-family="Arial" font-size="14.00">output </text>
<text text-anchor="start" x="409.87" y="-1113.6" font-family="Arial" font-size="14.00" fill="#666666">[jsonb]</text>
<polygon fill="none" stroke="black" points="360.06,-1070.6 360.06,-1101.4 696.02,-1101.4 696.02,-1070.6 360.06,-1070.6"/>
<text text-anchor="start" x="367.06" y="-1082.8" font-family="Arial" font-size="14.00">started_at </text>
<text text-anchor="start" x="433.21" y="-1082.8" font-family="Arial" font-size="14.00" fill="#666666">[timestamp with time zone]</text>
<polygon fill="none" stroke="black" points="360.06,-1039.8 360.06,-1070.6 696.02,-1070.6 696.02,-1039.8 360.06,-1039.8"/>
<text text-anchor="start" x="367.06" y="-1052" font-family="Arial" font-size="14.00">status </text>
<text text-anchor="start" x="408.3" y="-1052" font-family="Arial" font-size="14.00" fill="#666666">[text]</text>
<polygon fill="none" stroke="black" points="360.06,-1009 360.06,-1039.8 696.02,-1039.8 696.02,-1009 360.06,-1009"/>
<text text-anchor="start" x="367.06" y="-1021.2" font-family="Arial" font-size="14.00">workflow_run_id </text>
<text text-anchor="start" x="472.11" y="-1021.2" font-family="Arial" font-size="14.00" fill="#666666">[uuid]</text>
<polygon fill="none" stroke="black" stroke-width="3" points="358.56,-1007.5 358.56,-1446.5 697.52,-1446.5 697.52,-1007.5 358.56,-1007.5"/>
</g>
<!-- public.workflow_runs -->
<g id="node2" class="node">
<title>public.workflow_runs</title>
<polygon fill="#efefef" stroke="none" points="379.06,-848 379.06,-883.6 677.02,-883.6 677.02,-848 379.06,-848"/>
<polygon fill="none" stroke="black" points="379.06,-848 379.06,-883.6 677.02,-883.6 677.02,-848 379.06,-848"/>
<text text-anchor="start" x="386.06" y="-861.4" font-family="Arial Bold" font-size="18.00">public.workflow_runs</text>
<text text-anchor="start" x="545.53" y="-861.4" font-family="Arial" font-size="14.00">    </text>
<text text-anchor="start" x="576.65" y="-861.4" font-family="Arial" font-size="14.00" fill="#666666">[BASE TABLE]</text>
<polygon fill="none" stroke="black" points="379.06,-817.2 379.06,-848 677.02,-848 677.02,-817.2 379.06,-817.2"/>
<text text-anchor="start" x="386.06" y="-829.4" font-family="Arial" font-size="14.00">created_at </text>
<text text-anchor="start" x="456.11" y="-829.4" font-family="Arial" font-size="14.00" fill="#666666">[timestamp with time zone]</text>
<polygon fill="none" stroke="black" points="379.06,-786.4 379.06,-817.2 677.02,-817.2 677.02,-786.4 379.06,-786.4"/>
<text text-anchor="start" x="386.06" y="-798.6" font-family="Arial" font-size="14.00">created_by </text>
<text text-anchor="start" x="459.22" y="-798.6" font-family="Arial" font-size="14.00" fill="#666666">[uuid]</text>
<polygon fill="none" stroke="black" points="379.06,-755.6 379.06,-786.4 677.02,-786.4 677.02,-755.6 379.06,-755.6"/>
<text text-anchor="start" x="386.06" y="-767.8" font-family="Arial" font-size="14.00">error </text>
<text text-anchor="start" x="419.51" y="-767.8" font-family="Arial" font-size="14.00" fill="#666666">[jsonb]</text>
<polygon fill="none" stroke="black" points="379.06,-724.8 379.06,-755.6 677.02,-755.6 677.02,-724.8 379.06,-724.8"/>
<text text-anchor="start" x="386.06" y="-737" font-family="Arial" font-size="14.00">finished_at </text>
<text text-anchor="start" x="457.66" y="-737" font-family="Arial" font-size="14.00" fill="#666666">[timestamp with time zone]</text>
<polygon fill="none" stroke="black" points="379.06,-694 379.06,-724.8 677.02,-724.8 677.02,-694 379.06,-694"/>
<text text-anchor="start" x="386.06" y="-706.2" font-family="Arial" font-size="14.00">id </text>
<text text-anchor="start" x="400.84" y="-706.2" font-family="Arial" font-size="14.00" fill="#666666">[uuid]</text>
<polygon fill="none" stroke="black" points="379.06,-663.2 379.06,-694 677.02,-694 677.02,-663.2 379.06,-663.2"/>
<text text-anchor="start" x="386.06" y="-675.4" font-family="Arial" font-size="14.00">input </text>
<text text-anchor="start" x="420.31" y="-675.4" font-family="Arial" font-size="14.00" fill="#666666">[jsonb]</text>
<polygon fill="none" stroke="black" points="379.06,-632.4 379.06,-663.2 677.02,-663.2 677.02,-632.4 379.06,-632.4"/>
<text text-anchor="start" x="386.06" y="-644.6" font-family="Arial" font-size="14.00">output </text>
<text text-anchor="start" x="428.87" y="-644.6" font-family="Arial" font-size="14.00" fill="#666666">[jsonb]</text>
<polygon fill="none" stroke="black" points="379.06,-601.6 379.06,-632.4 677.02,-632.4 677.02,-601.6 379.06,-601.6"/>
<text text-anchor="start" x="386.06" y="-613.8" font-family="Arial" font-size="14.00">project_id </text>
<text text-anchor="start" x="450.65" y="-613.8" font-family="Arial" font-size="14.00" fill="#666666">[uuid]</text>
<polygon fill="none" stroke="black" points="379.06,-570.8 379.06,-601.6 677.02,-601.6 677.02,-570.8 379.06,-570.8"/>
<text text-anchor="start" x="386.06" y="-583" font-family="Arial" font-size="14.00">started_at </text>
<text text-anchor="start" x="452.21" y="-583" font-family="Arial" font-size="14.00" fill="#666666">[timestamp with time zone]</text>
<polygon fill="none" stroke="black" points="379.06,-540 379.06,-570.8 677.02,-570.8 677.02,-540 379.06,-540"/>
<text text-anchor="start" x="386.06" y="-552.2" font-family="Arial" font-size="14.00">status </text>
<text text-anchor="start" x="427.3" y="-552.2" font-family="Arial" font-size="14.00" fill="#666666">[text]</text>
<polygon fill="none" stroke="black" points="379.06,-509.2 379.06,-540 677.02,-540 677.02,-509.2 379.06,-509.2"/>
<text text-anchor="start" x="386.06" y="-521.4" font-family="Arial" font-size="14.00">trigger_context </text>
<text text-anchor="start" x="482.55" y="-521.4" font-family="Arial" font-size="14.00" fill="#666666">[jsonb]</text>
<polygon fill="none" stroke="black" points="379.06,-478.4 379.06,-509.2 677.02,-509.2 677.02,-478.4 379.06,-478.4"/>
<text text-anchor="start" x="386.06" y="-490.6" font-family="Arial" font-size="14.00">trigger_type </text>
<text text-anchor="start" x="463.88" y="-490.6" font-family="Arial" font-size="14.00" fill="#666666">[text]</text>
<polygon fill="none" stroke="black" points="379.06,-447.6 379.06,-478.4 677.02,-478.4 677.02,-447.6 379.06,-447.6"/>
<text text-anchor="start" x="386.06" y="-459.8" font-family="Arial" font-size="14.00">workflow_id </text>
<text text-anchor="start" x="463.08" y="-459.8" font-family="Arial" font-size="14.00" fill="#666666">[uuid]</text>
</g>
<!-- public.workflow_step_runs&#45;&gt;public.workflow_runs -->
<g id="edge1" class="edge">
<title>public.workflow_step_runs:workflow_run_id&#45;&gt;public.workflow_runs:id</title>
<path fill="none" stroke="black" d="M528.81,-997.88C538.64,-938.05 640.26,-988.39 677.02,-926.8 726.55,-843.84 774.65,-709.4 678.02,-709.4"/>
<polygon fill="black" stroke="black" points="528.82,-997.7 523.58,-1007.33 528.42,-1003.01 528.09,-1007.33 528.09,-1007.33 528.09,-1007.33 528.42,-1003.01 532.55,-1008.01 528.82,-997.7"/>
</g>
<!-- public.users -->
<g id="node3" class="node">
<title>public.users</title>
<polygon fill="#efefef" stroke="none" points="43.2,-258.8 43.2,-294.4 296.88,-294.4 296.88,-258.8 43.2,-258.8"/>
<polygon fill="none" stroke="black" points="43.2,-258.8 43.2,-294.4 296.88,-294.4 296.88,-258.8 43.2,-258.8"/>
<text text-anchor="start" x="64.55" y="-272.2" font-family="Arial Bold" font-size="18.00">public.users</text>
<text text-anchor="start" x="151.04" y="-272.2" font-family="Arial" font-size="14.00">    </text>
<text text-anchor="start" x="182.16" y="-272.2" font-family="Arial" font-size="14.00" fill="#666666">[BASE TABLE]</text>
<polygon fill="none" stroke="black" points="43.2,-228 43.2,-258.8 296.88,-258.8 296.88,-228 43.2,-228"/>
<text text-anchor="start" x="50.2" y="-240.2" font-family="Arial" font-size="14.00">created_at </text>
<text text-anchor="start" x="120.25" y="-240.2" font-family="Arial" font-size="14.00" fill="#666666">[timestamp with time zone]</text>
<polygon fill="none" stroke="black" points="43.2,-197.2 43.2,-228 296.88,-228 296.88,-197.2 43.2,-197.2"/>
<text text-anchor="start" x="50.2" y="-209.4" font-family="Arial" font-size="14.00">email </text>
<text text-anchor="start" x="87.54" y="-209.4" font-family="Arial" font-size="14.00" fill="#666666">[varchar(320)]</text>
<polygon fill="none" stroke="black" points="43.2,-166.4 43.2,-197.2 296.88,-197.2 296.88,-166.4 43.2,-166.4"/>
<text text-anchor="start" x="50.2" y="-178.6" font-family="Arial" font-size="14.00">id </text>
<text text-anchor="start" x="64.99" y="-178.6" font-family="Arial" font-size="14.00" fill="#666666">[uuid]</text>
<polygon fill="none" stroke="black" points="43.2,-135.6 43.2,-166.4 296.88,-166.4 296.88,-135.6 43.2,-135.6"/>
<text text-anchor="start" x="50.2" y="-147.8" font-family="Arial" font-size="14.00">password_hash </text>
<text text-anchor="start" x="152.15" y="-147.8" font-family="Arial" font-size="14.00" fill="#666666">[text]</text>
<polygon fill="none" stroke="black" points="43.2,-104.8 43.2,-135.6 296.88,-135.6 296.88,-104.8 43.2,-104.8"/>
<text text-anchor="start" x="50.2" y="-117" font-family="Arial" font-size="14.00">role </text>
<text text-anchor="start" x="77.43" y="-117" font-family="Arial" font-size="14.00" fill="#666666">[text]</text>
<polygon fill="none" stroke="black" points="43.2,-74 43.2,-104.8 296.88,-104.8 296.88,-74 43.2,-74"/>
<text text-anchor="start" x="50.2" y="-86.2" font-family="Arial" font-size="14.00">updated_at </text>
<text text-anchor="start" x="124.16" y="-86.2" font-family="Arial" font-size="14.00" fill="#666666">[timestamp with time zone]</text>
</g>
<!-- public.workflow_runs&#45;&gt;public.users -->
<g id="edge2" class="edge">
<title>public.workflow_runs:created_by&#45;&gt;public.users:id</title>
<path fill="none" stroke="black" d="M368.77,-797.51C314.03,-742.73 363.95,-181.8 297.88,-181.8"/>
<polygon fill="black" stroke="black" points="368.68,-797.47 375.87,-805.74 373.52,-799.7 377.45,-801.52 377.45,-801.52 377.45,-801.52 373.52,-799.7 379.64,-797.57 368.68,-797.47"/>
</g>
<!-- public.projects -->
<g id="node4" class="node">
<title>public.projects</title>
<polygon fill="#efefef" stroke="none" points="401.2,-243.4 401.2,-279 654.88,-279 654.88,-243.4 401.2,-243.4"/>
<polygon fill="none" stroke="black" points="401.2,-243.4 401.2,-279 654.88,-279 654.88,-243.4 401.2,-243.4"/>
<text text-anchor="start" x="412.56" y="-256.8" font-family="Arial Bold" font-size="18.00">public.projects</text>
<text text-anchor="start" x="519.03" y="-256.8" font-family="Arial" font-size="14.00">    </text>
<text text-anchor="start" x="550.15" y="-256.8" font-family="Arial" font-size="14.00" fill="#666666">[BASE TABLE]</text>
<polygon fill="none" stroke="black" points="401.2,-212.6 401.2,-243.4 654.88,-243.4 654.88,-212.6 401.2,-212.6"/>
<text text-anchor="start" x="408.2" y="-224.8" font-family="Arial" font-size="14.00">created_at </text>
<text text-anchor="start" x="478.25" y="-224.8" font-family="Arial" font-size="14.00" fill="#666666">[timestamp with time zone]</text>
<polygon fill="none" stroke="black" points="401.2,-181.8 401.2,-212.6 654.88,-212.6 654.88,-181.8 401.2,-181.8"/>
<text text-anchor="start" x="408.2" y="-194" font-family="Arial" font-size="14.00">id </text>
<text text-anchor="start" x="422.99" y="-194" font-family="Arial" font-size="14.00" fill="#666666">[uuid]</text>
<polygon fill="none" stroke="black" points="401.2,-151 401.2,-181.8 654.88,-181.8 654.88,-151 401.2,-151"/>
<text text-anchor="start" x="408.2" y="-163.2" font-family="Arial" font-size="14.00">name </text>
<text text-anchor="start" x="447.11" y="-163.2" font-family="Arial" font-size="14.00" fill="#666666">[varchar(100)]</text>
<polygon fill="none" stroke="black" points="401.2,-120.2 401.2,-151 654.88,-151 654.88,-120.2 401.2,-120.2"/>
<text text-anchor="start" x="408.2" y="-132.4" font-family="Arial" font-size="14.00">owner_id </text>
<text text-anchor="start" x="468.9" y="-132.4" font-family="Arial" font-size="14.00" fill="#666666">[uuid]</text>
<polygon fill="none" stroke="black" points="401.2,-89.4 401.2,-120.2 654.88,-120.2 654.88,-89.4 401.2,-89.4"/>
<text text-anchor="start" x="408.2" y="-101.6" font-family="Arial" font-size="14.00">updated_at </text>
<text text-anchor="start" x="482.16" y="-101.6" font-family="Arial" font-size="14.00" fill="#666666">[timestamp with time zone]</text>
</g>
<!-- public.workflow_runs&#45;&gt;public.projects -->
<g id="edge3" class="edge">
<title>public.workflow_runs:project_id&#45;&gt;public.projects:id</title>
<path fill="none" stroke="black" d="M686.65,-611.38C721.59,-561.57 699.4,-197.2 655.88,-197.2"/>
<polygon fill="black" stroke="black" points="686.69,-611.36 675.85,-613.05 682.21,-614.27 678.58,-616.64 678.58,-616.64 678.58,-616.64 682.21,-614.27 680.76,-620.59 686.69,-611.36"/>
</g>
<!-- public.workflows -->
<g id="node5" class="node">
<title>public.workflows</title>
<polygon fill="#efefef" stroke="none" points="759.55,-289.6 759.55,-325.2 1024.53,-325.2 1024.53,-289.6 759.55,-289.6"/>
<polygon fill="none" stroke="black" points="759.55,-289.6 759.55,-325.2 1024.53,-325.2 1024.53,-289.6 759.55,-289.6"/>
<text text-anchor="start" x="766.55" y="-303" font-family="Arial Bold" font-size="18.00">public.workflows</text>
<text text-anchor="start" x="893.04" y="-303" font-family="Arial" font-size="14.00">    </text>
<text text-anchor="start" x="924.16" y="-303" font-family="Arial" font-size="14.00" fill="#666666">[BASE TABLE]</text>
<polygon fill="none" stroke="black" points="759.55,-258.8 759.55,-289.6 1024.53,-289.6 1024.53,-258.8 759.55,-258.8"/>
<text text-anchor="start" x="766.55" y="-271" font-family="Arial" font-size="14.00">created_at </text>
<text text-anchor="start" x="836.6" y="-271" font-family="Arial" font-size="14.00" fill="#666666">[timestamp with time zone]</text>
<polygon fill="none" stroke="black" points="759.55,-228 759.55,-258.8 1024.53,-258.8 1024.53,-228 759.55,-228"/>
<text text-anchor="start" x="766.55" y="-240.2" font-family="Arial" font-size="14.00">edges </text>
<text text-anchor="start" x="808.59" y="-240.2" font-family="Arial" font-size="14.00" fill="#666666">[jsonb]</text>
<polygon fill="none" stroke="black" points="759.55,-197.2 759.55,-228 1024.53,-228 1024.53,-197.2 759.55,-197.2"/>
<text text-anchor="start" x="766.55" y="-209.4" font-family="Arial" font-size="14.00">id </text>
<text text-anchor="start" x="781.34" y="-209.4" font-family="Arial" font-size="14.00" fill="#666666">[uuid]</text>
<polygon fill="none" stroke="black" points="759.55,-166.4 759.55,-197.2 1024.53,-197.2 1024.53,-166.4 759.55,-166.4"/>
<text text-anchor="start" x="766.55" y="-178.6" font-family="Arial" font-size="14.00">is_active </text>
<text text-anchor="start" x="824.91" y="-178.6" font-family="Arial" font-size="14.00" fill="#666666">[boolean]</text>
<polygon fill="none" stroke="black" points="759.55,-135.6 759.55,-166.4 1024.53,-166.4 1024.53,-135.6 759.55,-135.6"/>
<text text-anchor="start" x="766.55" y="-147.8" font-family="Arial" font-size="14.00">name </text>
<text text-anchor="start" x="805.46" y="-147.8" font-family="Arial" font-size="14.00" fill="#666666">[varchar(100)]</text>
<polygon fill="none" stroke="black" points="759.55,-104.8 759.55,-135.6 1024.53,-135.6 1024.53,-104.8 759.55,-104.8"/>
<text text-anchor="start" x="766.55" y="-117" font-family="Arial" font-size="14.00">nodes </text>
<text text-anchor="start" x="808.59" y="-117" font-family="Arial" font-size="14.00" fill="#666666">[jsonb]</text>
<polygon fill="none" stroke="black" points="759.55,-74 759.55,-104.8 1024.53,-104.8 1024.53,-74 759.55,-74"/>
<text text-anchor="start" x="766.55" y="-86.2" font-family="Arial" font-size="14.00">project_id </text>
<text text-anchor="start" x="831.15" y="-86.2" font-family="Arial" font-size="14.00" fill="#666666">[uuid]</text>
<polygon fill="none" stroke="black" points="759.55,-43.2 759.55,-74 1024.53,-74 1024.53,-43.2 759.55,-43.2"/>
<text text-anchor="start" x="766.55" y="-55.4" font-family="Arial" font-size="14.00">updated_at </text>
<text text-anchor="start" x="840.51" y="-55.4" font-family="Arial" font-size="14.00" fill="#666666">[timestamp with time zone]</text>
</g>
<!-- public.workflow_runs&#45;&gt;public.workflows -->
<g id="edge4" class="edge">
<title>public.workflow_runs:workflow_id&#45;&gt;public.workflows:id</title>
<path fill="none" stroke="black" d="M688.21,-462.28C785.61,-447.59 645.31,-212.6 758.55,-212.6"/>
<polygon fill="black" stroke="black" points="688.33,-462.27 678.04,-458.49 683.01,-462.65 678.69,-462.95 678.69,-462.95 678.69,-462.95 683.01,-462.65 678.67,-467.47 688.33,-462.27"/>
</g>
</g>
</svg>
