<?xml version="1.0" encoding="UTF-8" standalone="no"?>
<!DOCTYPE svg PUBLIC "-//W3C//DTD SVG 1.1//EN"
 "http://www.w3.org/Graphics/SVG/1.1/DTD/svg11.dtd">
<!-- Generated by graphviz version 12.1.2 (20240928.0832)
 -->
<!-- Title: public.project_schemas Pages: 1 -->
<svg width="2465pt" height="1062pt"
 viewBox="0.00 0.00 2465.35 1062.00" xmlns="http://www.w3.org/2000/svg" xmlns:xlink="http://www.w3.org/1999/xlink">
<g id="graph0" class="graph" transform="scale(1 1) rotate(0) translate(4 1058)">
<title>public.project_schemas</title>
<polygon fill="white" stroke="none" points="-4,4 -4,-1058 2461.35,-1058 2461.35,4 -4,4"/>
<!-- public.project_schemas -->
<g id="node1" class="node">
<title>public.project_schemas</title>
<polygon fill="#efefef" stroke="none" points="46.2,-929 46.2,-964.6 354.13,-964.6 354.13,-929 46.2,-929"/>
<polygon fill="none" stroke="black" points="46.2,-929 46.2,-964.6 354.13,-964.6 354.13,-929 46.2,-929"/>
<text text-anchor="start" x="53.2" y="-942.4" font-family="Arial Bold" font-size="18.00">public.project_schemas</text>
<text text-anchor="start" x="222.64" y="-942.4" font-family="Arial" font-size="14.00">    </text>
<text text-anchor="start" x="253.76" y="-942.4" font-family="Arial" font-size="14.00" fill="#666666">[BASE TABLE]</text>
<polygon fill="none" stroke="black" points="46.2,-898.2 46.2,-929 354.13,-929 354.13,-898.2 46.2,-898.2"/>
<text text-anchor="start" x="53.2" y="-910.4" font-family="Arial" font-size="14.00">created_at </text>
<text text-anchor="start" x="123.25" y="-910.4" font-family="Arial" font-size="14.00" fill="#666666">[timestamp with time zone]</text>
<polygon fill="none" stroke="black" points="46.2,-867.4 46.2,-898.2 354.13,-898.2 354.13,-867.4 46.2,-867.4"/>
<text text-anchor="start" x="53.2" y="-879.6" font-family="Arial" font-size="14.00">id </text>
<text text-anchor="start" x="67.99" y="-879.6" font-family="Arial" font-size="14.00" fill="#666666">[uuid]</text>
<polygon fill="none" stroke="black" points="46.2,-836.6 46.2,-867.4 354.13,-867.4 354.13,-836.6 46.2,-836.6"/>
<text text-anchor="start" x="53.2" y="-848.8" font-family="Arial" font-size="14.00">project_id </text>
<text text-anchor="start" x="117.79" y="-848.8" font-family="Arial" font-size="14.00" fill="#666666">[uuid]</text>
<polygon fill="none" stroke="black" points="46.2,-805.8 46.2,-836.6 354.13,-836.6 354.13,-805.8 46.2,-805.8"/>
<text text-anchor="start" x="53.2" y="-818" font-family="Arial" font-size="14.00">schema_definition </text>
<text text-anchor="start" x="169.94" y="-818" font-family="Arial" font-size="14.00" fill="#666666">[jsonb]</text>
<polygon fill="none" stroke="black" points="46.2,-775 46.2,-805.8 354.13,-805.8 354.13,-775 46.2,-775"/>
<text text-anchor="start" x="53.2" y="-787.2" font-family="Arial" font-size="14.00">table_name </text>
<text text-anchor="start" x="130.25" y="-787.2" font-family="Arial" font-size="14.00" fill="#666666">[varchar(64)]</text>
<polygon fill="none" stroke="black" points="46.2,-744.2 46.2,-775 354.13,-775 354.13,-744.2 46.2,-744.2"/>
<text text-anchor="start" x="53.2" y="-756.4" font-family="Arial" font-size="14.00">updated_at </text>
<text text-anchor="start" x="127.16" y="-756.4" font-family="Arial" font-size="14.00" fill="#666666">[timestamp with time zone]</text>
<polygon fill="none" stroke="black" stroke-width="3" points="44.7,-742.7 44.7,-966.1 355.63,-966.1 355.63,-742.7 44.7,-742.7"/>
</g>
<!-- public.projects -->
<g id="node2" class="node">
<title>public.projects</title>
<polygon fill="#efefef" stroke="none" points="1083.33,-540 1083.33,-575.6 1337.01,-575.6 1337.01,-540 1083.33,-540"/>
<polygon fill="none" stroke="black" points="1083.33,-540 1083.33,-575.6 1337.01,-575.6 1337.01,-540 1083.33,-540"/>
<text text-anchor="start" x="1094.69" y="-553.4" font-family="Arial Bold" font-size="18.00">public.projects</text>
<text text-anchor="start" x="1201.16" y="-553.4" font-family="Arial" font-size="14.00">    </text>
<text text-anchor="start" x="1232.27" y="-553.4" font-family="Arial" font-size="14.00" fill="#666666">[BASE TABLE]</text>
<polygon fill="none" stroke="black" points="1083.33,-509.2 1083.33,-540 1337.01,-540 1337.01,-509.2 1083.33,-509.2"/>
<text text-anchor="start" x="1090.33" y="-521.4" font-family="Arial" font-size="14.00">created_at </text>
<text text-anchor="start" x="1160.37" y="-521.4" font-family="Arial" font-size="14.00" fill="#666666">[timestamp with time zone]</text>
<polygon fill="none" stroke="black" points="1083.33,-478.4 1083.33,-509.2 1337.01,-509.2 1337.01,-478.4 1083.33,-478.4"/>
<text text-anchor="start" x="1090.33" y="-490.6" font-family="Arial" font-size="14.00">id </text>
<text text-anchor="start" x="1105.11" y="-490.6" font-family="Arial" font-size="14.00" fill="#666666">[uuid]</text>
<polygon fill="none" stroke="black" points="1083.33,-447.6 1083.33,-478.4 1337.01,-478.4 1337.01,-447.6 1083.33,-447.6"/>
<text text-anchor="start" x="1090.33" y="-459.8" font-family="Arial" font-size="14.00">name </text>
<text text-anchor="start" x="1129.24" y="-459.8" font-family="Arial" font-size="14.00" fill="#666666">[varchar(100)]</text>
<polygon fill="none" stroke="black" points="1083.33,-416.8 1083.33,-447.6 1337.01,-447.6 1337.01,-416.8 1083.33,-416.8"/>
<text text-anchor="start" x="1090.33" y="-429" font-family="Arial" font-size="14.00">owner_id </text>
<text text-anchor="start" x="1151.03" y="-429" font-family="Arial" font-size="14.00" fill="#666666">[uuid]</text>
<polygon fill="none" stroke="black" points="1083.33,-386 1083.33,-416.8 1337.01,-416.8 1337.01,-386 1083.33,-386"/>
<text text-anchor="start" x="1090.33" y="-398.2" font-family="Arial" font-size="14.00">updated_at </text>
<text text-anchor="start" x="1164.28" y="-398.2" font-family="Arial" font-size="14.00" fill="#666666">[timestamp with time zone]</text>
</g>
<!-- public.project_schemas&#45;&gt;public.projects -->
<g id="edge1" class="edge">
<title>public.project_schemas:project_id&#45;&gt;public.projects:id</title>
<path fill="none" stroke="black" d="M365.37,-851.34C437.91,-841.13 346.55,-715.41 409.17,-654.8 519.69,-547.83 928.52,-493.8 1082.33,-493.8"/>
<polygon fill="black" stroke="black" points="365.45,-851.33 355.18,-847.49 360.12,-851.68 355.8,-851.96 355.8,-851.96 355.8,-851.96 360.12,-851.68 355.76,-856.47 365.45,-851.33"/>
</g>
<!-- public.users -->
<g id="node8" class="node">
<title>public.users</title>
<polygon fill="#efefef" stroke="none" points="1083.33,-228 1083.33,-263.6 1337.01,-263.6 1337.01,-228 1083.33,-228"/>
<polygon fill="none" stroke="black" points="1083.33,-228 1083.33,-263.6 1337.01,-263.6 1337.01,-228 1083.33,-228"/>
<text text-anchor="start" x="1104.68" y="-241.4" font-family="Arial Bold" font-size="18.00">public.users</text>
<text text-anchor="start" x="1191.16" y="-241.4" font-family="Arial" font-size="14.00">    </text>
<text text-anchor="start" x="1222.28" y="-241.4" font-family="Arial" font-size="14.00" fill="#666666">[BASE TABLE]</text>
<polygon fill="none" stroke="black" points="1083.33,-197.2 1083.33,-228 1337.01,-228 1337.01,-197.2 1083.33,-197.2"/>
<text text-anchor="start" x="1090.33" y="-209.4" font-family="Arial" font-size="14.00">created_at </text>
<text text-anchor="start" x="1160.37" y="-209.4" font-family="Arial" font-size="14.00" fill="#666666">[timestamp with time zone]</text>
<polygon fill="none" stroke="black" points="1083.33,-166.4 1083.33,-197.2 1337.01,-197.2 1337.01,-166.4 1083.33,-166.4"/>
<text text-anchor="start" x="1090.33" y="-178.6" font-family="Arial" font-size="14.00">email </text>
<text text-anchor="start" x="1127.67" y="-178.6" font-family="Arial" font-size="14.00" fill="#666666">[varchar(320)]</text>
<polygon fill="none" stroke="black" points="1083.33,-135.6 1083.33,-166.4 1337.01,-166.4 1337.01,-135.6 1083.33,-135.6"/>
<text text-anchor="start" x="1090.33" y="-147.8" font-family="Arial" font-size="14.00">id </text>
<text text-anchor="start" x="1105.11" y="-147.8" font-family="Arial" font-size="14.00" fill="#666666">[uuid]</text>
<polygon fill="none" stroke="black" points="1083.33,-104.8 1083.33,-135.6 1337.01,-135.6 1337.01,-104.8 1083.33,-104.8"/>
<text text-anchor="start" x="1090.33" y="-117" font-family="Arial" font-size="14.00">password_hash </text>
<text text-anchor="start" x="1192.28" y="-117" font-family="Arial" font-size="14.00" fill="#666666">[text]</text>
<polygon fill="none" stroke="black" points="1083.33,-74 1083.33,-104.8 1337.01,-104.8 1337.01,-74 1083.33,-74"/>
<text text-anchor="start" x="1090.33" y="-86.2" font-family="Arial" font-size="14.00">role </text>
<text text-anchor="start" x="1117.56" y="-86.2" font-family="Arial" font-size="14.00" fill="#666666">[text]</text>
<polygon fill="none" stroke="black" points="1083.33,-43.2 1083.33,-74 1337.01,-74 1337.01,-43.2 1083.33,-43.2"/>
<text text-anchor="start" x="1090.33" y="-55.4" font-family="Arial" font-size="14.00">updated_at </text>
<text text-anchor="start" x="1164.28" y="-55.4" font-family="Arial" font-size="14.00" fill="#666666">[timestamp with time zone]</text>
</g>
<!-- public.projects&#45;&gt;public.users -->
<g id="edge7" class="edge">
<title>public.projects:owner_id&#45;&gt;public.users:id</title>
<path fill="none" stroke="black" d="M1348.33,-431.54C1462.89,-416.5 1459.45,-151 1338.01,-151"/>
<polygon fill="black" stroke="black" points="1348.32,-431.54 1338.05,-427.69 1343,-431.88 1338.68,-432.16 1338.68,-432.16 1338.68,-432.16 1343,-431.88 1338.63,-436.67 1348.32,-431.54"/>
</g>
<!-- public.audit_logs -->
<g id="node3" class="node">
<title>public.audit_logs</title>
<polygon fill="#efefef" stroke="none" points="461.68,-975.2 461.68,-1010.8 724.66,-1010.8 724.66,-975.2 461.68,-975.2"/>
<polygon fill="none" stroke="black" points="461.68,-975.2 461.68,-1010.8 724.66,-1010.8 724.66,-975.2 461.68,-975.2"/>
<text text-anchor="start" x="468.68" y="-988.6" font-family="Arial Bold" font-size="18.00">public.audit_logs</text>
<text text-anchor="start" x="593.17" y="-988.6" font-family="Arial" font-size="14.00">    </text>
<text text-anchor="start" x="624.28" y="-988.6" font-family="Arial" font-size="14.00" fill="#666666">[BASE TABLE]</text>
<polygon fill="none" stroke="black" points="461.68,-944.4 461.68,-975.2 724.66,-975.2 724.66,-944.4 461.68,-944.4"/>
<text text-anchor="start" x="468.68" y="-956.6" font-family="Arial" font-size="14.00">action </text>
<text text-anchor="start" x="509.93" y="-956.6" font-family="Arial" font-size="14.00" fill="#666666">[text]</text>
<polygon fill="none" stroke="black" points="461.68,-913.6 461.68,-944.4 724.66,-944.4 724.66,-913.6 461.68,-913.6"/>
<text text-anchor="start" x="468.68" y="-925.8" font-family="Arial" font-size="14.00">changes </text>
<text text-anchor="start" x="525.5" y="-925.8" font-family="Arial" font-size="14.00" fill="#666666">[jsonb]</text>
<polygon fill="none" stroke="black" points="461.68,-882.8 461.68,-913.6 724.66,-913.6 724.66,-882.8 461.68,-882.8"/>
<text text-anchor="start" x="468.68" y="-895" font-family="Arial" font-size="14.00">created_at </text>
<text text-anchor="start" x="538.73" y="-895" font-family="Arial" font-size="14.00" fill="#666666">[timestamp with time zone]</text>
<polygon fill="none" stroke="black" points="461.68,-852 461.68,-882.8 724.66,-882.8 724.66,-852 461.68,-852"/>
<text text-anchor="start" x="468.68" y="-864.2" font-family="Arial" font-size="14.00">id </text>
<text text-anchor="start" x="483.46" y="-864.2" font-family="Arial" font-size="14.00" fill="#666666">[uuid]</text>
<polygon fill="none" stroke="black" points="461.68,-821.2 461.68,-852 724.66,-852 724.66,-821.2 461.68,-821.2"/>
<text text-anchor="start" x="468.68" y="-833.4" font-family="Arial" font-size="14.00">ip_address </text>
<text text-anchor="start" x="541.06" y="-833.4" font-family="Arial" font-size="14.00" fill="#666666">[varchar(45)]</text>
<polygon fill="none" stroke="black" points="461.68,-790.4 461.68,-821.2 724.66,-821.2 724.66,-790.4 461.68,-790.4"/>
<text text-anchor="start" x="468.68" y="-802.6" font-family="Arial" font-size="14.00">project_id </text>
<text text-anchor="start" x="533.27" y="-802.6" font-family="Arial" font-size="14.00" fill="#666666">[uuid]</text>
<polygon fill="none" stroke="black" points="461.68,-759.6 461.68,-790.4 724.66,-790.4 724.66,-759.6 461.68,-759.6"/>
<text text-anchor="start" x="468.68" y="-771.8" font-family="Arial" font-size="14.00">record_id </text>
<text text-anchor="start" x="530.93" y="-771.8" font-family="Arial" font-size="14.00" fill="#666666">[uuid]</text>
<polygon fill="none" stroke="black" points="461.68,-728.8 461.68,-759.6 724.66,-759.6 724.66,-728.8 461.68,-728.8"/>
<text text-anchor="start" x="468.68" y="-741" font-family="Arial" font-size="14.00">target_table </text>
<text text-anchor="start" x="546.51" y="-741" font-family="Arial" font-size="14.00" fill="#666666">[text]</text>
<polygon fill="none" stroke="black" points="461.68,-698 461.68,-728.8 724.66,-728.8 724.66,-698 461.68,-698"/>
<text text-anchor="start" x="468.68" y="-710.2" font-family="Arial" font-size="14.00">user_id </text>
<text text-anchor="start" x="518.48" y="-710.2" font-family="Arial" font-size="14.00" fill="#666666">[uuid]</text>
</g>
<!-- public.audit_logs&#45;&gt;public.projects -->
<g id="edge2" class="edge">
<title>public.audit_logs:project_id&#45;&gt;public.projects:id</title>
<path fill="none" stroke="black" d="M735.75,-805.01C789.76,-795.68 732.74,-705.87 776.17,-654.8 875.76,-537.69 928.59,-493.8 1082.33,-493.8"/>
<polygon fill="black" stroke="black" points="735.96,-804.99 725.64,-801.29 730.64,-805.41 726.32,-805.75 726.32,-805.75 726.32,-805.75 730.64,-805.41 726.34,-810.26 735.96,-804.99"/>
</g>
<!-- public.project_documents -->
<g id="node4" class="node">
<title>public.project_documents</title>
<polygon fill="#efefef" stroke="none" points="828.7,-882.8 828.7,-918.4 1153.64,-918.4 1153.64,-882.8 828.7,-882.8"/>
<polygon fill="none" stroke="black" points="828.7,-882.8 828.7,-918.4 1153.64,-918.4 1153.64,-882.8 828.7,-882.8"/>
<text text-anchor="start" x="835.7" y="-896.2" font-family="Arial Bold" font-size="18.00">public.project_documents</text>
<text text-anchor="start" x="1022.15" y="-896.2" font-family="Arial" font-size="14.00">    </text>
<text text-anchor="start" x="1053.26" y="-896.2" font-family="Arial" font-size="14.00" fill="#666666">[BASE TABLE]</text>
<polygon fill="none" stroke="black" points="828.7,-852 828.7,-882.8 1153.64,-882.8 1153.64,-852 828.7,-852"/>
<text text-anchor="start" x="835.7" y="-864.2" font-family="Arial" font-size="14.00">document </text>
<text text-anchor="start" x="901.07" y="-864.2" font-family="Arial" font-size="14.00" fill="#666666">[jsonb]</text>
<polygon fill="none" stroke="black" points="828.7,-821.2 828.7,-852 1153.64,-852 1153.64,-821.2 828.7,-821.2"/>
<text text-anchor="start" x="835.7" y="-833.4" font-family="Arial" font-size="14.00">project_id </text>
<text text-anchor="start" x="900.29" y="-833.4" font-family="Arial" font-size="14.00" fill="#666666">[uuid]</text>
<polygon fill="none" stroke="black" points="828.7,-790.4 828.7,-821.2 1153.64,-821.2 1153.64,-790.4 828.7,-790.4"/>
<text text-anchor="start" x="835.7" y="-802.6" font-family="Arial" font-size="14.00">updated_at </text>
<text text-anchor="start" x="909.65" y="-802.6" font-family="Arial" font-size="14.00" fill="#666666">[timestamp with time zone]</text>
</g>
<!-- public.project_documents&#45;&gt;public.projects -->
<g id="edge3" class="edge">
<title>public.project_documents:project_id&#45;&gt;public.projects:id</title>
<path fill="none" stroke="black" d="M1164.66,-835.09C1188.36,-826.38 1162.68,-781.74 1153.64,-747.2 1137.16,-684.26 1099.71,-681.77 1083.33,-618.8 1069.34,-565.03 1026.77,-493.8 1082.33,-493.8"/>
<polygon fill="black" stroke="black" points="1164.86,-835.06 1154.3,-832.1 1159.58,-835.85 1155.3,-836.5 1155.3,-836.5 1155.3,-836.5 1159.58,-835.85 1155.64,-841 1164.86,-835.06"/>
</g>
<!-- public.project_environments -->
<g id="node5" class="node">
<title>public.project_environments</title>
<polygon fill="#efefef" stroke="none" points="1257.7,-944.4 1257.7,-980 1602.63,-980 1602.63,-944.4 1257.7,-944.4"/>
<polygon fill="none" stroke="black" points="1257.7,-944.4 1257.7,-980 1602.63,-980 1602.63,-944.4 1257.7,-944.4"/>
<text text-anchor="start" x="1264.7" y="-957.8" font-family="Arial Bold" font-size="18.00">public.project_environments</text>
<text text-anchor="start" x="1471.15" y="-957.8" font-family="Arial" font-size="14.00">    </text>
<text text-anchor="start" x="1502.26" y="-957.8" font-family="Arial" font-size="14.00" fill="#666666">[BASE TABLE]</text>
<polygon fill="none" stroke="black" points="1257.7,-913.6 1257.7,-944.4 1602.63,-944.4 1602.63,-913.6 1257.7,-913.6"/>
<text text-anchor="start" x="1264.7" y="-925.8" font-family="Arial" font-size="14.00">created_at </text>
<text text-anchor="start" x="1334.75" y="-925.8" font-family="Arial" font-size="14.00" fill="#666666">[timestamp with time zone]</text>
<polygon fill="none" stroke="black" points="1257.7,-882.8 1257.7,-913.6 1602.63,-913.6 1602.63,-882.8 1257.7,-882.8"/>
<text text-anchor="start" x="1264.7" y="-895" font-family="Arial" font-size="14.00">id </text>
<text text-anchor="start" x="1279.49" y="-895" font-family="Arial" font-size="14.00" fill="#666666">[uuid]</text>
<polygon fill="none" stroke="black" points="1257.7,-852 1257.7,-882.8 1602.63,-882.8 1602.63,-852 1257.7,-852"/>
<text text-anchor="start" x="1264.7" y="-864.2" font-family="Arial" font-size="14.00">is_secret </text>
<text text-anchor="start" x="1324.61" y="-864.2" font-family="Arial" font-size="14.00" fill="#666666">[boolean]</text>
<polygon fill="none" stroke="black" points="1257.7,-821.2 1257.7,-852 1602.63,-852 1602.63,-821.2 1257.7,-821.2"/>
<text text-anchor="start" x="1264.7" y="-833.4" font-family="Arial" font-size="14.00">key </text>
<text text-anchor="start" x="1290.37" y="-833.4" font-family="Arial" font-size="14.00" fill="#666666">[varchar(255)]</text>
<polygon fill="none" stroke="black" points="1257.7,-790.4 1257.7,-821.2 1602.63,-821.2 1602.63,-790.4 1257.7,-790.4"/>
<text text-anchor="start" x="1264.7" y="-802.6" font-family="Arial" font-size="14.00">project_id </text>
<text text-anchor="start" x="1329.29" y="-802.6" font-family="Arial" font-size="14.00" fill="#666666">[uuid]</text>
<polygon fill="none" stroke="black" points="1257.7,-759.6 1257.7,-790.4 1602.63,-790.4 1602.63,-759.6 1257.7,-759.6"/>
<text text-anchor="start" x="1264.7" y="-771.8" font-family="Arial" font-size="14.00">updated_at </text>
<text text-anchor="start" x="1338.66" y="-771.8" font-family="Arial" font-size="14.00" fill="#666666">[timestamp with time zone]</text>
<polygon fill="none" stroke="black" points="1257.7,-728.8 1257.7,-759.6 1602.63,-759.6 1602.63,-728.8 1257.7,-728.8"/>
<text text-anchor="start" x="1264.7" y="-741" font-family="Arial" font-size="14.00">value </text>
<text text-anchor="start" x="1302.06" y="-741" font-family="Arial" font-size="14.00" fill="#666666">[text]</text>
</g>
<!-- public.project_environments&#45;&gt;public.projects -->
<g id="edge4" class="edge">
<title>public.project_environments:project_id&#45;&gt;public.projects:id</title>
<path fill="none" stroke="black" d="M1246.66,-804.77C1207.69,-795.81 1236.56,-730.55 1257.7,-685.6 1277.31,-643.9 1317.4,-660.51 1337.01,-618.8 1360.64,-568.52 1393.56,-493.8 1338.01,-493.8"/>
<polygon fill="black" stroke="black" points="1246.42,-804.74 1255.91,-810.24 1251.73,-805.29 1256.03,-805.73 1256.03,-805.73 1256.03,-805.73 1251.73,-805.29 1256.83,-801.29 1246.42,-804.74"/>
</g>
<!-- public.project_members -->
<g id="node6" class="node">
<title>public.project_members</title>
<polygon fill="#efefef" stroke="none" points="1706.7,-898.2 1706.7,-933.8 2019.63,-933.8 2019.63,-898.2 1706.7,-898.2"/>
<polygon fill="none" stroke="black" points="1706.7,-898.2 1706.7,-933.8 2019.63,-933.8 2019.63,-898.2 1706.7,-898.2"/>
<text text-anchor="start" x="1713.7" y="-911.6" font-family="Arial Bold" font-size="18.00">public.project_members</text>
<text text-anchor="start" x="1888.14" y="-911.6" font-family="Arial" font-size="14.00">    </text>
<text text-anchor="start" x="1919.26" y="-911.6" font-family="Arial" font-size="14.00" fill="#666666">[BASE TABLE]</text>
<polygon fill="none" stroke="black" points="1706.7,-867.4 1706.7,-898.2 2019.63,-898.2 2019.63,-867.4 1706.7,-867.4"/>
<text text-anchor="start" x="1713.7" y="-879.6" font-family="Arial" font-size="14.00">created_at </text>
<text text-anchor="start" x="1783.75" y="-879.6" font-family="Arial" font-size="14.00" fill="#666666">[timestamp with time zone]</text>
<polygon fill="none" stroke="black" points="1706.7,-836.6 1706.7,-867.4 2019.63,-867.4 2019.63,-836.6 1706.7,-836.6"/>
<text text-anchor="start" x="1713.7" y="-848.8" font-family="Arial" font-size="14.00">project_id </text>
<text text-anchor="start" x="1778.29" y="-848.8" font-family="Arial" font-size="14.00" fill="#666666">[uuid]</text>
<polygon fill="none" stroke="black" points="1706.7,-805.8 1706.7,-836.6 2019.63,-836.6 2019.63,-805.8 1706.7,-805.8"/>
<text text-anchor="start" x="1713.7" y="-818" font-family="Arial" font-size="14.00">role </text>
<text text-anchor="start" x="1740.93" y="-818" font-family="Arial" font-size="14.00" fill="#666666">[text]</text>
<polygon fill="none" stroke="black" points="1706.7,-775 1706.7,-805.8 2019.63,-805.8 2019.63,-775 1706.7,-775"/>
<text text-anchor="start" x="1713.7" y="-787.2" font-family="Arial" font-size="14.00">user_id </text>
<text text-anchor="start" x="1763.51" y="-787.2" font-family="Arial" font-size="14.00" fill="#666666">[uuid]</text>
</g>
<!-- public.project_members&#45;&gt;public.projects -->
<g id="edge5" class="edge">
<title>public.project_members:project_id&#45;&gt;public.projects:id</title>
<path fill="none" stroke="black" d="M1695.49,-851.37C1622.89,-841.71 1709.45,-722.49 1655.17,-654.8 1556.26,-531.48 1496.09,-493.8 1338.01,-493.8"/>
<polygon fill="black" stroke="black" points="1695.38,-851.37 1705.09,-856.47 1700.71,-851.69 1705.03,-851.96 1705.03,-851.96 1705.03,-851.96 1700.71,-851.69 1705.64,-847.49 1695.38,-851.37"/>
</g>
<!-- public.runtime_users -->
<g id="node7" class="node">
<title>public.runtime_users</title>
<polygon fill="#efefef" stroke="none" points="2124.19,-959.8 2124.19,-995.4 2414.15,-995.4 2414.15,-959.8 2124.19,-959.8"/>
<polygon fill="none" stroke="black" points="2124.19,-959.8 2124.19,-995.4 2414.15,-995.4 2414.15,-959.8 2124.19,-959.8"/>
<text text-anchor="start" x="2131.19" y="-973.2" font-family="Arial Bold" font-size="18.00">public.runtime_users</text>
<text text-anchor="start" x="2282.66" y="-973.2" font-family="Arial" font-size="14.00">    </text>
<text text-anchor="start" x="2313.77" y="-973.2" font-family="Arial" font-size="14.00" fill="#666666">[BASE TABLE]</text>
<polygon fill="none" stroke="black" points="2124.19,-929 2124.19,-959.8 2414.15,-959.8 2414.15,-929 2124.19,-929"/>
<text text-anchor="start" x="2131.19" y="-941.2" font-family="Arial" font-size="14.00">created_at </text>
<text text-anchor="start" x="2201.23" y="-941.2" font-family="Arial" font-size="14.00" fill="#666666">[timestamp with time zone]</text>
<polygon fill="none" stroke="black" points="2124.19,-898.2 2124.19,-929 2414.15,-929 2414.15,-898.2 2124.19,-898.2"/>
<text text-anchor="start" x="2131.19" y="-910.4" font-family="Arial" font-size="14.00">email </text>
<text text-anchor="start" x="2168.53" y="-910.4" font-family="Arial" font-size="14.00" fill="#666666">[varchar(255)]</text>
<polygon fill="none" stroke="black" points="2124.19,-867.4 2124.19,-898.2 2414.15,-898.2 2414.15,-867.4 2124.19,-867.4"/>
<text text-anchor="start" x="2131.19" y="-879.6" font-family="Arial" font-size="14.00">id </text>
<text text-anchor="start" x="2145.97" y="-879.6" font-family="Arial" font-size="14.00" fill="#666666">[uuid]</text>
<polygon fill="none" stroke="black" points="2124.19,-836.6 2124.19,-867.4 2414.15,-867.4 2414.15,-836.6 2124.19,-836.6"/>
<text text-anchor="start" x="2131.19" y="-848.8" font-family="Arial" font-size="14.00">metadata </text>
<text text-anchor="start" x="2193.45" y="-848.8" font-family="Arial" font-size="14.00" fill="#666666">[jsonb]</text>
<polygon fill="none" stroke="black" points="2124.19,-805.8 2124.19,-836.6 2414.15,-836.6 2414.15,-805.8 2124.19,-805.8"/>
<text text-anchor="start" x="2131.19" y="-818" font-family="Arial" font-size="14.00">password_hash </text>
<text text-anchor="start" x="2233.14" y="-818" font-family="Arial" font-size="14.00" fill="#666666">[varchar(255)]</text>
<polygon fill="none" stroke="black" points="2124.19,-775 2124.19,-805.8 2414.15,-805.8 2414.15,-775 2124.19,-775"/>
<text text-anchor="start" x="2131.19" y="-787.2" font-family="Arial" font-size="14.00">project_id </text>
<text text-anchor="start" x="2195.78" y="-787.2" font-family="Arial" font-size="14.00" fill="#666666">[uuid]</text>
<polygon fill="none" stroke="black" points="2124.19,-744.2 2124.19,-775 2414.15,-775 2414.15,-744.2 2124.19,-744.2"/>
<text text-anchor="start" x="2131.19" y="-756.4" font-family="Arial" font-size="14.00">role </text>
<text text-anchor="start" x="2158.42" y="-756.4" font-family="Arial" font-size="14.00" fill="#666666">[varchar(50)]</text>
<polygon fill="none" stroke="black" points="2124.19,-713.4 2124.19,-744.2 2414.15,-744.2 2414.15,-713.4 2124.19,-713.4"/>
<text text-anchor="start" x="2131.19" y="-725.6" font-family="Arial" font-size="14.00">updated_at </text>
<text text-anchor="start" x="2205.14" y="-725.6" font-family="Arial" font-size="14.00" fill="#666666">[timestamp with time zone]</text>
</g>
<!-- public.runtime_users&#45;&gt;public.projects -->
<g id="edge6" class="edge">
<title>public.runtime_users:project_id&#45;&gt;public.projects:id</title>
<path fill="none" stroke="black" d="M2112.83,-789.4C2065.9,-779.27 2117.91,-694.39 2072.17,-654.8 1945.87,-545.5 1505.03,-493.8 1338.01,-493.8"/>
<polygon fill="black" stroke="black" points="2112.9,-789.41 2122.42,-794.85 2118.21,-789.92 2122.52,-790.34 2122.52,-790.34 2122.52,-790.34 2118.21,-789.92 2123.28,-785.89 2112.9,-789.41"/>
</g>
</g>
</svg>
