<?xml version="1.0" encoding="UTF-8" standalone="no"?>
<!DOCTYPE svg PUBLIC "-//W3C//DTD SVG 1.1//EN"
 "http://www.w3.org/Graphics/SVG/1.1/DTD/svg11.dtd">
<!-- Generated by graphviz version 12.1.2 (20240928.0832)
 -->
<!-- Title: public.project_members Pages: 1 -->
<svg width="2254pt" height="1000pt"
 viewBox="0.00 0.00 2253.83 1000.40" xmlns="http://www.w3.org/2000/svg" xmlns:xlink="http://www.w3.org/1999/xlink">
<g id="graph0" class="graph" transform="scale(1 1) rotate(0) translate(4 996.4)">
<title>public.project_members</title>
<polygon fill="white" stroke="none" points="-4,4 -4,-996.4 2249.83,-996.4 2249.83,4 -4,4"/>
<!-- public.project_members -->
<g id="node1" class="node">
<title>public.project_members</title>
<polygon fill="#efefef" stroke="none" points="888.2,-882.8 888.2,-918.4 1201.14,-918.4 1201.14,-882.8 888.2,-882.8"/>
<polygon fill="none" stroke="black" points="888.2,-882.8 888.2,-918.4 1201.14,-918.4 1201.14,-882.8 888.2,-882.8"/>
<text text-anchor="start" x="895.2" y="-896.2" font-family="Arial Bold" font-size="18.00">public.project_members</text>
<text text-anchor="start" x="1069.65" y="-896.2" font-family="Arial" font-size="14.00">    </text>
<text text-anchor="start" x="1100.77" y="-896.2" font-family="Arial" font-size="14.00" fill="#666666">[BASE TABLE]</text>
<polygon fill="none" stroke="black" points="888.2,-852 888.2,-882.8 1201.14,-882.8 1201.14,-852 888.2,-852"/>
<text text-anchor="start" x="895.2" y="-864.2" font-family="Arial" font-size="14.00">created_at </text>
<text text-anchor="start" x="965.25" y="-864.2" font-family="Arial" font-size="14.00" fill="#666666">[timestamp with time zone]</text>
<polygon fill="none" stroke="black" points="888.2,-821.2 888.2,-852 1201.14,-852 1201.14,-821.2 888.2,-821.2"/>
<text text-anchor="start" x="895.2" y="-833.4" font-family="Arial" font-size="14.00">project_id </text>
<text text-anchor="start" x="959.8" y="-833.4" font-family="Arial" font-size="14.00" fill="#666666">[uuid]</text>
<polygon fill="none" stroke="black" points="888.2,-790.4 888.2,-821.2 1201.14,-821.2 1201.14,-790.4 888.2,-790.4"/>
<text text-anchor="start" x="895.2" y="-802.6" font-family="Arial" font-size="14.00">role </text>
<text text-anchor="start" x="922.44" y="-802.6" font-family="Arial" font-size="14.00" fill="#666666">[text]</text>
<polygon fill="none" stroke="black" points="888.2,-759.6 888.2,-790.4 1201.14,-790.4 1201.14,-759.6 888.2,-759.6"/>
<text text-anchor="start" x="895.2" y="-771.8" font-family="Arial" font-size="14.00">user_id </text>
<text text-anchor="start" x="945.01" y="-771.8" font-family="Arial" font-size="14.00" fill="#666666">[uuid]</text>
<polygon fill="none" stroke="black" stroke-width="3" points="886.7,-758.1 886.7,-919.9 1202.64,-919.9 1202.64,-758.1 886.7,-758.1"/>
</g>
<!-- public.projects -->
<g id="node2" class="node">
<title>public.projects</title>
<polygon fill="#efefef" stroke="none" points="609.83,-555.4 609.83,-591 863.51,-591 863.51,-555.4 609.83,-555.4"/>
<polygon fill="none" stroke="black" points="609.83,-555.4 609.83,-591 863.51,-591 863.51,-555.4 609.83,-555.4"/>
<text text-anchor="start" x="621.19" y="-568.8" font-family="Arial Bold" font-size="18.00">public.projects</text>
<text text-anchor="start" x="727.66" y="-568.8" font-family="Arial" font-size="14.00">    </text>
<text text-anchor="start" x="758.78" y="-568.8" font-family="Arial" font-size="14.00" fill="#666666">[BASE TABLE]</text>
<polygon fill="none" stroke="black" points="609.83,-524.6 609.83,-555.4 863.51,-555.4 863.51,-524.6 609.83,-524.6"/>
<text text-anchor="start" x="616.83" y="-536.8" font-family="Arial" font-size="14.00">created_at </text>
<text text-anchor="start" x="686.88" y="-536.8" font-family="Arial" font-size="14.00" fill="#666666">[timestamp with time zone]</text>
<polygon fill="none" stroke="black" points="609.83,-493.8 609.83,-524.6 863.51,-524.6 863.51,-493.8 609.83,-493.8"/>
<text text-anchor="start" x="616.83" y="-506" font-family="Arial" font-size="14.00">id </text>
<text text-anchor="start" x="631.62" y="-506" font-family="Arial" font-size="14.00" fill="#666666">[uuid]</text>
<polygon fill="none" stroke="black" points="609.83,-463 609.83,-493.8 863.51,-493.8 863.51,-463 609.83,-463"/>
<text text-anchor="start" x="616.83" y="-475.2" font-family="Arial" font-size="14.00">name </text>
<text text-anchor="start" x="655.74" y="-475.2" font-family="Arial" font-size="14.00" fill="#666666">[varchar(100)]</text>
<polygon fill="none" stroke="black" points="609.83,-432.2 609.83,-463 863.51,-463 863.51,-432.2 609.83,-432.2"/>
<text text-anchor="start" x="616.83" y="-444.4" font-family="Arial" font-size="14.00">owner_id </text>
<text text-anchor="start" x="677.53" y="-444.4" font-family="Arial" font-size="14.00" fill="#666666">[uuid]</text>
<polygon fill="none" stroke="black" points="609.83,-401.4 609.83,-432.2 863.51,-432.2 863.51,-401.4 609.83,-401.4"/>
<text text-anchor="start" x="616.83" y="-413.6" font-family="Arial" font-size="14.00">updated_at </text>
<text text-anchor="start" x="690.79" y="-413.6" font-family="Arial" font-size="14.00" fill="#666666">[timestamp with time zone]</text>
</g>
<!-- public.project_members&#45;&gt;public.projects -->
<g id="edge1" class="edge">
<title>public.project_members:project_id&#45;&gt;public.projects:id</title>
<path fill="none" stroke="black" d="M876.88,-835.98C754.74,-820.19 1006.67,-509.2 864.51,-509.2"/>
<polygon fill="black" stroke="black" points="876.89,-835.98 886.6,-841.07 882.21,-836.3 886.54,-836.56 886.54,-836.56 886.54,-836.56 882.21,-836.3 887.14,-832.09 876.89,-835.98"/>
<text text-anchor="start" x="894.2" y="-846.6" font-family="Arial" font-size="10.00">FOREIGN KEY (project_id) REFERENCES projects(id) ON DELETE CASCADE</text>
</g>
<!-- public.users -->
<g id="node5" class="node">
<title>public.users</title>
<polygon fill="#efefef" stroke="none" points="1080.83,-228 1080.83,-263.6 1334.51,-263.6 1334.51,-228 1080.83,-228"/>
<polygon fill="none" stroke="black" points="1080.83,-228 1080.83,-263.6 1334.51,-263.6 1334.51,-228 1080.83,-228"/>
<text text-anchor="start" x="1102.18" y="-241.4" font-family="Arial Bold" font-size="18.00">public.users</text>
<text text-anchor="start" x="1188.67" y="-241.4" font-family="Arial" font-size="14.00">    </text>
<text text-anchor="start" x="1219.78" y="-241.4" font-family="Arial" font-size="14.00" fill="#666666">[BASE TABLE]</text>
<polygon fill="none" stroke="black" points="1080.83,-197.2 1080.83,-228 1334.51,-228 1334.51,-197.2 1080.83,-197.2"/>
<text text-anchor="start" x="1087.83" y="-209.4" font-family="Arial" font-size="14.00">created_at </text>
<text text-anchor="start" x="1157.88" y="-209.4" font-family="Arial" font-size="14.00" fill="#666666">[timestamp with time zone]</text>
<polygon fill="none" stroke="black" points="1080.83,-166.4 1080.83,-197.2 1334.51,-197.2 1334.51,-166.4 1080.83,-166.4"/>
<text text-anchor="start" x="1087.83" y="-178.6" font-family="Arial" font-size="14.00">email </text>
<text text-anchor="start" x="1125.17" y="-178.6" font-family="Arial" font-size="14.00" fill="#666666">[varchar(320)]</text>
<polygon fill="none" stroke="black" points="1080.83,-135.6 1080.83,-166.4 1334.51,-166.4 1334.51,-135.6 1080.83,-135.6"/>
<text text-anchor="start" x="1087.83" y="-147.8" font-family="Arial" font-size="14.00">id </text>
<text text-anchor="start" x="1102.62" y="-147.8" font-family="Arial" font-size="14.00" fill="#666666">[uuid]</text>
<polygon fill="none" stroke="black" points="1080.83,-104.8 1080.83,-135.6 1334.51,-135.6 1334.51,-104.8 1080.83,-104.8"/>
<text text-anchor="start" x="1087.83" y="-117" font-family="Arial" font-size="14.00">password_hash </text>
<text text-anchor="start" x="1189.78" y="-117" font-family="Arial" font-size="14.00" fill="#666666">[text]</text>
<polygon fill="none" stroke="black" points="1080.83,-74 1080.83,-104.8 1334.51,-104.8 1334.51,-74 1080.83,-74"/>
<text text-anchor="start" x="1087.83" y="-86.2" font-family="Arial" font-size="14.00">role </text>
<text text-anchor="start" x="1115.06" y="-86.2" font-family="Arial" font-size="14.00" fill="#666666">[text]</text>
<polygon fill="none" stroke="black" points="1080.83,-43.2 1080.83,-74 1334.51,-74 1334.51,-43.2 1080.83,-43.2"/>
<text text-anchor="start" x="1087.83" y="-55.4" font-family="Arial" font-size="14.00">updated_at </text>
<text text-anchor="start" x="1161.79" y="-55.4" font-family="Arial" font-size="14.00" fill="#666666">[timestamp with time zone]</text>
</g>
<!-- public.project_members&#45;&gt;public.users -->
<g id="edge5" class="edge">
<title>public.project_members:user_id&#45;&gt;public.users:id</title>
<path fill="none" stroke="black" d="M1044.25,-748.19C1040.74,-706.26 1016.19,-696.33 1008.67,-649.6 987.01,-514.98 984.58,-477.01 1008.67,-342.8 1024.74,-253.31 988.91,-151 1079.83,-151"/>
<polygon fill="black" stroke="black" points="1044.25,-748.27 1040.16,-758.45 1044.47,-753.6 1044.64,-757.93 1044.64,-757.93 1044.64,-757.93 1044.47,-753.6 1049.15,-758.08 1044.25,-748.27"/>
<text text-anchor="start" x="1051.67" y="-768.6" font-family="Arial" font-size="10.00">FOREIGN KEY (user_id) REFERENCES users(id) ON DELETE CASCADE</text>
</g>
<!-- public.projects&#45;&gt;public.users -->
<g id="edge4" class="edge">
<title>public.projects:owner_id&#45;&gt;public.users:id</title>
<path fill="none" stroke="black" d="M874.64,-447.2C1022.79,-434.99 920.43,-151 1079.83,-151"/>
<polygon fill="black" stroke="black" points="874.84,-447.19 864.67,-443.09 869.51,-447.4 865.18,-447.57 865.18,-447.57 865.18,-447.57 869.51,-447.4 865.03,-452.08 874.84,-447.19"/>
<text text-anchor="start" x="782.58" y="-431.6" font-family="Arial" font-size="10.00">FOREIGN KEY (owner_id) REFERENCES users(id) ON DELETE CASCADE</text>
</g>
<!-- public.project_documents -->
<g id="node3" class="node">
<title>public.project_documents</title>
<polygon fill="#efefef" stroke="none" points="43.2,-867.4 43.2,-903 368.14,-903 368.14,-867.4 43.2,-867.4"/>
<polygon fill="none" stroke="black" points="43.2,-867.4 43.2,-903 368.14,-903 368.14,-867.4 43.2,-867.4"/>
<text text-anchor="start" x="50.2" y="-880.8" font-family="Arial Bold" font-size="18.00">public.project_documents</text>
<text text-anchor="start" x="236.65" y="-880.8" font-family="Arial" font-size="14.00">    </text>
<text text-anchor="start" x="267.77" y="-880.8" font-family="Arial" font-size="14.00" fill="#666666">[BASE TABLE]</text>
<polygon fill="none" stroke="black" points="43.2,-836.6 43.2,-867.4 368.14,-867.4 368.14,-836.6 43.2,-836.6"/>
<text text-anchor="start" x="50.2" y="-848.8" font-family="Arial" font-size="14.00">document </text>
<text text-anchor="start" x="115.57" y="-848.8" font-family="Arial" font-size="14.00" fill="#666666">[jsonb]</text>
<polygon fill="none" stroke="black" points="43.2,-805.8 43.2,-836.6 368.14,-836.6 368.14,-805.8 43.2,-805.8"/>
<text text-anchor="start" x="50.2" y="-818" font-family="Arial" font-size="14.00">project_id </text>
<text text-anchor="start" x="114.79" y="-818" font-family="Arial" font-size="14.00" fill="#666666">[uuid]</text>
<polygon fill="none" stroke="black" points="43.2,-775 43.2,-805.8 368.14,-805.8 368.14,-775 43.2,-775"/>
<text text-anchor="start" x="50.2" y="-787.2" font-family="Arial" font-size="14.00">updated_at </text>
<text text-anchor="start" x="124.16" y="-787.2" font-family="Arial" font-size="14.00" fill="#666666">[timestamp with time zone]</text>
</g>
<!-- public.project_documents&#45;&gt;public.projects -->
<g id="edge2" class="edge">
<title>public.project_documents:project_id&#45;&gt;public.projects:id</title>
<path fill="none" stroke="black" d="M379.35,-820.38C428.18,-811.68 386.88,-736.02 420.67,-685.6 484.48,-590.38 494.2,-509.2 608.83,-509.2"/>
<polygon fill="black" stroke="black" points="379.44,-820.37 369.11,-816.69 374.12,-820.8 369.81,-821.15 369.81,-821.15 369.81,-821.15 374.12,-820.8 369.84,-825.66 379.44,-820.37"/>
<text text-anchor="start" x="376.14" y="-831.2" font-family="Arial" font-size="10.00">FOREIGN KEY (project_id) REFERENCES projects(id) ON DELETE CASCADE</text>
</g>
<!-- public.project_schemas -->
<g id="node4" class="node">
<title>public.project_schemas</title>
<polygon fill="#efefef" stroke="none" points="472.7,-913.6 472.7,-949.2 780.64,-949.2 780.64,-913.6 472.7,-913.6"/>
<polygon fill="none" stroke="black" points="472.7,-913.6 472.7,-949.2 780.64,-949.2 780.64,-913.6 472.7,-913.6"/>
<text text-anchor="start" x="479.7" y="-927" font-family="Arial Bold" font-size="18.00">public.project_schemas</text>
<text text-anchor="start" x="649.15" y="-927" font-family="Arial" font-size="14.00">    </text>
<text text-anchor="start" x="680.26" y="-927" font-family="Arial" font-size="14.00" fill="#666666">[BASE TABLE]</text>
<polygon fill="none" stroke="black" points="472.7,-882.8 472.7,-913.6 780.64,-913.6 780.64,-882.8 472.7,-882.8"/>
<text text-anchor="start" x="479.7" y="-895" font-family="Arial" font-size="14.00">created_at </text>
<text text-anchor="start" x="549.75" y="-895" font-family="Arial" font-size="14.00" fill="#666666">[timestamp with time zone]</text>
<polygon fill="none" stroke="black" points="472.7,-852 472.7,-882.8 780.64,-882.8 780.64,-852 472.7,-852"/>
<text text-anchor="start" x="479.7" y="-864.2" font-family="Arial" font-size="14.00">id </text>
<text text-anchor="start" x="494.49" y="-864.2" font-family="Arial" font-size="14.00" fill="#666666">[uuid]</text>
<polygon fill="none" stroke="black" points="472.7,-821.2 472.7,-852 780.64,-852 780.64,-821.2 472.7,-821.2"/>
<text text-anchor="start" x="479.7" y="-833.4" font-family="Arial" font-size="14.00">project_id </text>
<text text-anchor="start" x="544.3" y="-833.4" font-family="Arial" font-size="14.00" fill="#666666">[uuid]</text>
<polygon fill="none" stroke="black" points="472.7,-790.4 472.7,-821.2 780.64,-821.2 780.64,-790.4 472.7,-790.4"/>
<text text-anchor="start" x="479.7" y="-802.6" font-family="Arial" font-size="14.00">schema_definition </text>
<text text-anchor="start" x="596.44" y="-802.6" font-family="Arial" font-size="14.00" fill="#666666">[jsonb]</text>
<polygon fill="none" stroke="black" points="472.7,-759.6 472.7,-790.4 780.64,-790.4 780.64,-759.6 472.7,-759.6"/>
<text text-anchor="start" x="479.7" y="-771.8" font-family="Arial" font-size="14.00">table_name </text>
<text text-anchor="start" x="556.76" y="-771.8" font-family="Arial" font-size="14.00" fill="#666666">[varchar(64)]</text>
<polygon fill="none" stroke="black" points="472.7,-728.8 472.7,-759.6 780.64,-759.6 780.64,-728.8 472.7,-728.8"/>
<text text-anchor="start" x="479.7" y="-741" font-family="Arial" font-size="14.00">updated_at </text>
<text text-anchor="start" x="553.66" y="-741" font-family="Arial" font-size="14.00" fill="#666666">[timestamp with time zone]</text>
</g>
<!-- public.project_schemas&#45;&gt;public.projects -->
<g id="edge3" class="edge">
<title>public.project_schemas:project_id&#45;&gt;public.projects:id</title>
<path fill="none" stroke="black" d="M791.81,-835.75C845.66,-826.09 818.65,-736.39 780.64,-685.6 733.13,-622.13 657.38,-697.63 609.83,-634.2 576.51,-589.75 553.27,-509.2 608.83,-509.2"/>
<polygon fill="black" stroke="black" points="791.94,-835.74 781.6,-832.09 786.62,-836.18 782.3,-836.54 782.3,-836.54 782.3,-836.54 786.62,-836.18 782.34,-841.06 791.94,-835.74"/>
<text text-anchor="start" x="419.55" y="-846.6" font-family="Arial" font-size="10.00">FOREIGN KEY (project_id) REFERENCES projects(id) ON DELETE CASCADE</text>
</g>
<!-- public.refresh_tokens -->
<g id="node6" class="node">
<title>public.refresh_tokens</title>
<polygon fill="#efefef" stroke="none" points="1060.7,-570.8 1060.7,-606.4 1354.64,-606.4 1354.64,-570.8 1060.7,-570.8"/>
<polygon fill="none" stroke="black" points="1060.7,-570.8 1060.7,-606.4 1354.64,-606.4 1354.64,-570.8 1060.7,-570.8"/>
<text text-anchor="start" x="1067.7" y="-584.2" font-family="Arial Bold" font-size="18.00">public.refresh_tokens</text>
<text text-anchor="start" x="1223.15" y="-584.2" font-family="Arial" font-size="14.00">    </text>
<text text-anchor="start" x="1254.27" y="-584.2" font-family="Arial" font-size="14.00" fill="#666666">[BASE TABLE]</text>
<polygon fill="none" stroke="black" points="1060.7,-540 1060.7,-570.8 1354.64,-570.8 1354.64,-540 1060.7,-540"/>
<text text-anchor="start" x="1067.7" y="-552.2" font-family="Arial" font-size="14.00">created_at </text>
<text text-anchor="start" x="1137.75" y="-552.2" font-family="Arial" font-size="14.00" fill="#666666">[timestamp with time zone]</text>
<polygon fill="none" stroke="black" points="1060.7,-509.2 1060.7,-540 1354.64,-540 1354.64,-509.2 1060.7,-509.2"/>
<text text-anchor="start" x="1067.7" y="-521.4" font-family="Arial" font-size="14.00">expires_at </text>
<text text-anchor="start" x="1136.18" y="-521.4" font-family="Arial" font-size="14.00" fill="#666666">[timestamp with time zone]</text>
<polygon fill="none" stroke="black" points="1060.7,-478.4 1060.7,-509.2 1354.64,-509.2 1354.64,-478.4 1060.7,-478.4"/>
<text text-anchor="start" x="1067.7" y="-490.6" font-family="Arial" font-size="14.00">id </text>
<text text-anchor="start" x="1082.49" y="-490.6" font-family="Arial" font-size="14.00" fill="#666666">[uuid]</text>
<polygon fill="none" stroke="black" points="1060.7,-447.6 1060.7,-478.4 1354.64,-478.4 1354.64,-447.6 1060.7,-447.6"/>
<text text-anchor="start" x="1067.7" y="-459.8" font-family="Arial" font-size="14.00">revoked_at </text>
<text text-anchor="start" x="1140.86" y="-459.8" font-family="Arial" font-size="14.00" fill="#666666">[timestamp with time zone]</text>
<polygon fill="none" stroke="black" points="1060.7,-416.8 1060.7,-447.6 1354.64,-447.6 1354.64,-416.8 1060.7,-416.8"/>
<text text-anchor="start" x="1067.7" y="-429" font-family="Arial" font-size="14.00">token_hash </text>
<text text-anchor="start" x="1143.98" y="-429" font-family="Arial" font-size="14.00" fill="#666666">[character(64)]</text>
<polygon fill="none" stroke="black" points="1060.7,-386 1060.7,-416.8 1354.64,-416.8 1354.64,-386 1060.7,-386"/>
<text text-anchor="start" x="1067.7" y="-398.2" font-family="Arial" font-size="14.00">user_id </text>
<text text-anchor="start" x="1117.51" y="-398.2" font-family="Arial" font-size="14.00" fill="#666666">[uuid]</text>
</g>
<!-- public.refresh_tokens&#45;&gt;public.users -->
<g id="edge6" class="edge">
<title>public.refresh_tokens:user_id&#45;&gt;public.users:id</title>
<path fill="none" stroke="black" d="M1208.55,-374.79C1218.16,-323.62 1303.88,-361.25 1334.51,-306.8 1368.46,-246.45 1404.76,-151 1335.51,-151"/>
<polygon fill="black" stroke="black" points="1208.56,-374.7 1203.22,-384.28 1208.1,-380.02 1207.73,-384.33 1207.73,-384.33 1207.73,-384.33 1208.1,-380.02 1212.18,-385.05 1208.56,-374.7"/>
<text text-anchor="start" x="953.7" y="-369" font-family="Arial" font-size="10.00">FOREIGN KEY (user_id) REFERENCES users(id) ON DELETE CASCADE</text>
</g>
<!-- public.tenant_limits -->
<g id="node7" class="node">
<title>public.tenant_limits</title>
<polygon fill="#efefef" stroke="none" points="1458.68,-555.4 1458.68,-591 1740.66,-591 1740.66,-555.4 1458.68,-555.4"/>
<polygon fill="none" stroke="black" points="1458.68,-555.4 1458.68,-591 1740.66,-591 1740.66,-555.4 1458.68,-555.4"/>
<text text-anchor="start" x="1465.68" y="-568.8" font-family="Arial Bold" font-size="18.00">public.tenant_limits</text>
<text text-anchor="start" x="1609.17" y="-568.8" font-family="Arial" font-size="14.00">    </text>
<text text-anchor="start" x="1640.28" y="-568.8" font-family="Arial" font-size="14.00" fill="#666666">[BASE TABLE]</text>
<polygon fill="none" stroke="black" points="1458.68,-524.6 1458.68,-555.4 1740.66,-555.4 1740.66,-524.6 1458.68,-524.6"/>
<text text-anchor="start" x="1465.68" y="-536.8" font-family="Arial" font-size="14.00">allow_code_export </text>
<text text-anchor="start" x="1586.32" y="-536.8" font-family="Arial" font-size="14.00" fill="#666666">[boolean]</text>
<polygon fill="none" stroke="black" points="1458.68,-493.8 1458.68,-524.6 1740.66,-524.6 1740.66,-493.8 1458.68,-493.8"/>
<text text-anchor="start" x="1465.68" y="-506" font-family="Arial" font-size="14.00">created_at </text>
<text text-anchor="start" x="1535.73" y="-506" font-family="Arial" font-size="14.00" fill="#666666">[timestamp with time zone]</text>
<polygon fill="none" stroke="black" points="1458.68,-463 1458.68,-493.8 1740.66,-493.8 1740.66,-463 1458.68,-463"/>
<text text-anchor="start" x="1465.68" y="-475.2" font-family="Arial" font-size="14.00">max_projects </text>
<text text-anchor="start" x="1552.83" y="-475.2" font-family="Arial" font-size="14.00" fill="#666666">[integer]</text>
<polygon fill="none" stroke="black" points="1458.68,-432.2 1458.68,-463 1740.66,-463 1740.66,-432.2 1458.68,-432.2"/>
<text text-anchor="start" x="1465.68" y="-444.4" font-family="Arial" font-size="14.00">plan_type </text>
<text text-anchor="start" x="1530.29" y="-444.4" font-family="Arial" font-size="14.00" fill="#666666">[varchar(20)]</text>
<polygon fill="none" stroke="black" points="1458.68,-401.4 1458.68,-432.2 1740.66,-432.2 1740.66,-401.4 1458.68,-401.4"/>
<text text-anchor="start" x="1465.68" y="-413.6" font-family="Arial" font-size="14.00">user_id </text>
<text text-anchor="start" x="1515.49" y="-413.6" font-family="Arial" font-size="14.00" fill="#666666">[uuid]</text>
</g>
<!-- public.tenant_limits&#45;&gt;public.users -->
<g id="edge7" class="edge">
<title>public.tenant_limits:user_id&#45;&gt;public.users:id</title>
<path fill="none" stroke="black" d="M1447.65,-414.5C1393.32,-388.52 1396.96,-151 1335.51,-151"/>
<polygon fill="black" stroke="black" points="1447.61,-414.49 1456.35,-421.11 1452.81,-415.68 1457.03,-416.65 1457.03,-416.65 1457.03,-416.65 1452.81,-415.68 1458.36,-412.34 1447.61,-414.49"/>
<text text-anchor="start" x="1464.68" y="-426.8" font-family="Arial" font-size="10.00">FOREIGN KEY (user_id) REFERENCES users(id) ON DELETE CASCADE</text>
</g>
<!-- public.user_terms_agreements -->
<g id="node8" class="node">
<title>public.user_terms_agreements</title>
<polygon fill="#efefef" stroke="none" points="1844.71,-570.8 1844.71,-606.4 2202.63,-606.4 2202.63,-570.8 1844.71,-570.8"/>
<polygon fill="none" stroke="black" points="1844.71,-570.8 1844.71,-606.4 2202.63,-606.4 2202.63,-570.8 1844.71,-570.8"/>
<text text-anchor="start" x="1851.71" y="-584.2" font-family="Arial Bold" font-size="18.00">public.user_terms_agreements</text>
<text text-anchor="start" x="2071.14" y="-584.2" font-family="Arial" font-size="14.00">    </text>
<text text-anchor="start" x="2102.26" y="-584.2" font-family="Arial" font-size="14.00" fill="#666666">[BASE TABLE]</text>
<polygon fill="none" stroke="black" points="1844.71,-540 1844.71,-570.8 2202.63,-570.8 2202.63,-540 1844.71,-540"/>
<text text-anchor="start" x="1851.71" y="-552.2" font-family="Arial" font-size="14.00">agreed_at </text>
<text text-anchor="start" x="1918.66" y="-552.2" font-family="Arial" font-size="14.00" fill="#666666">[timestamp with time zone]</text>
<polygon fill="none" stroke="black" points="1844.71,-509.2 1844.71,-540 2202.63,-540 2202.63,-509.2 1844.71,-509.2"/>
<text text-anchor="start" x="1851.71" y="-521.4" font-family="Arial" font-size="14.00">consents </text>
<text text-anchor="start" x="1911.64" y="-521.4" font-family="Arial" font-size="14.00" fill="#666666">[jsonb]</text>
<polygon fill="none" stroke="black" points="1844.71,-478.4 1844.71,-509.2 2202.63,-509.2 2202.63,-478.4 1844.71,-478.4"/>
<text text-anchor="start" x="1851.71" y="-490.6" font-family="Arial" font-size="14.00">id </text>
<text text-anchor="start" x="1866.5" y="-490.6" font-family="Arial" font-size="14.00" fill="#666666">[uuid]</text>
<polygon fill="none" stroke="black" points="1844.71,-447.6 1844.71,-478.4 2202.63,-478.4 2202.63,-447.6 1844.71,-447.6"/>
<text text-anchor="start" x="1851.71" y="-459.8" font-family="Arial" font-size="14.00">ip_address </text>
<text text-anchor="start" x="1924.09" y="-459.8" font-family="Arial" font-size="14.00" fill="#666666">[varchar(45)]</text>
<polygon fill="none" stroke="black" points="1844.71,-416.8 1844.71,-447.6 2202.63,-447.6 2202.63,-416.8 1844.71,-416.8"/>
<text text-anchor="start" x="1851.71" y="-429" font-family="Arial" font-size="14.00">terms_version </text>
<text text-anchor="start" x="1943.52" y="-429" font-family="Arial" font-size="14.00" fill="#666666">[varchar(20)]</text>
<polygon fill="none" stroke="black" points="1844.71,-386 1844.71,-416.8 2202.63,-416.8 2202.63,-386 1844.71,-386"/>
<text text-anchor="start" x="1851.71" y="-398.2" font-family="Arial" font-size="14.00">user_id </text>
<text text-anchor="start" x="1901.52" y="-398.2" font-family="Arial" font-size="14.00" fill="#666666">[uuid]</text>
</g>
<!-- public.user_terms_agreements&#45;&gt;public.users -->
<g id="edge8" class="edge">
<title>public.user_terms_agreements:user_id&#45;&gt;public.users:id</title>
<path fill="none" stroke="black" d="M1833.62,-400C1811.27,-392.94 1817.49,-360.74 1792.67,-342.8 1614.08,-213.75 1555.85,-151 1335.51,-151"/>
<polygon fill="black" stroke="black" points="1833.47,-399.98 1842.76,-405.81 1838.76,-400.72 1843.05,-401.31 1843.05,-401.31 1843.05,-401.31 1838.76,-400.72 1844,-396.9 1833.47,-399.98"/>
<text text-anchor="start" x="1589.74" y="-385.4" font-family="Arial" font-size="10.00">FOREIGN KEY (user_id) REFERENCES users(id) ON DELETE CASCADE</text>
</g>
</g>
</svg>
