<?xml version="1.0" encoding="UTF-8" standalone="no"?>
<!DOCTYPE svg PUBLIC "-//W3C//DTD SVG 1.1//EN"
 "http://www.w3.org/Graphics/SVG/1.1/DTD/svg11.dtd">
<!-- Generated by graphviz version 12.1.2 (20240928.0832)
 -->
<!-- Title: public.project_schemas Pages: 1 -->
<svg width="3319pt" height="1062pt"
 viewBox="0.00 0.00 3319.35 1062.00" xmlns="http://www.w3.org/2000/svg" xmlns:xlink="http://www.w3.org/1999/xlink">
<g id="graph0" class="graph" transform="scale(1 1) rotate(0) translate(4 1058)">
<title>public.project_schemas</title>
<polygon fill="white" stroke="none" points="-4,4 -4,-1058 3315.35,-1058 3315.35,4 -4,4"/>
<!-- public.project_schemas -->
<g id="node1" class="node">
<title>public.project_schemas</title>
<polygon fill="#efefef" stroke="none" points="46.2,-929 46.2,-964.6 354.13,-964.6 354.13,-929 46.2,-929"/>
<polygon fill="none" stroke="black" points="46.2,-929 46.2,-964.6 354.13,-964.6 354.13,-929 46.2,-929"/>
<text text-anchor="start" x="53.2" y="-942.4" font-family="Arial Bold" font-size="18.00">public.project_schemas</text>
<text text-anchor="start" x="222.64" y="-942.4" font-family="Arial" font-size="14.00">    </text>
<text text-anchor="start" x="253.76" y="-942.4" font-family="Arial" font-size="14.00" fill="#666666">[BASE TABLE]</text>
<polygon fill="none" stroke="black" points="46.2,-898.2 46.2,-929 354.13,-929 354.13,-898.2 46.2,-898.2"/>
<text text-anchor="start" x="53.2" y="-910.4" font-family="Arial" font-size="14.00">created_at </text>
<text text-anchor="start" x="123.25" y="-910.4" font-family="Arial" font-size="14.00" fill="#666666">[timestamp with time zone]</text>
<polygon fill="none" stroke="black" points="46.2,-867.4 46.2,-898.2 354.13,-898.2 354.13,-867.4 46.2,-867.4"/>
<text text-anchor="start" x="53.2" y="-879.6" font-family="Arial" font-size="14.00">id </text>
<text text-anchor="start" x="67.99" y="-879.6" font-family="Arial" font-size="14.00" fill="#666666">[uuid]</text>
<polygon fill="none" stroke="black" points="46.2,-836.6 46.2,-867.4 354.13,-867.4 354.13,-836.6 46.2,-836.6"/>
<text text-anchor="start" x="53.2" y="-848.8" font-family="Arial" font-size="14.00">project_id </text>
<text text-anchor="start" x="117.79" y="-848.8" font-family="Arial" font-size="14.00" fill="#666666">[uuid]</text>
<polygon fill="none" stroke="black" points="46.2,-805.8 46.2,-836.6 354.13,-836.6 354.13,-805.8 46.2,-805.8"/>
<text text-anchor="start" x="53.2" y="-818" font-family="Arial" font-size="14.00">schema_definition </text>
<text text-anchor="start" x="169.94" y="-818" font-family="Arial" font-size="14.00" fill="#666666">[jsonb]</text>
<polygon fill="none" stroke="black" points="46.2,-775 46.2,-805.8 354.13,-805.8 354.13,-775 46.2,-775"/>
<text text-anchor="start" x="53.2" y="-787.2" font-family="Arial" font-size="14.00">table_name </text>
<text text-anchor="start" x="130.25" y="-787.2" font-family="Arial" font-size="14.00" fill="#666666">[varchar(64)]</text>
<polygon fill="none" stroke="black" points="46.2,-744.2 46.2,-775 354.13,-775 354.13,-744.2 46.2,-744.2"/>
<text text-anchor="start" x="53.2" y="-756.4" font-family="Arial" font-size="14.00">updated_at </text>
<text text-anchor="start" x="127.16" y="-756.4" font-family="Arial" font-size="14.00" fill="#666666">[timestamp with time zone]</text>
<polygon fill="none" stroke="black" stroke-width="3" points="44.7,-742.7 44.7,-966.1 355.63,-966.1 355.63,-742.7 44.7,-742.7"/>
</g>
<!-- public.projects -->
<g id="node2" class="node">
<title>public.projects</title>
<polygon fill="#efefef" stroke="none" points="1526.33,-540 1526.33,-575.6 1780.01,-575.6 1780.01,-540 1526.33,-540"/>
<polygon fill="none" stroke="black" points="1526.33,-540 1526.33,-575.6 1780.01,-575.6 1780.01,-540 1526.33,-540"/>
<text text-anchor="start" x="1537.69" y="-553.4" font-family="Arial Bold" font-size="18.00">public.projects</text>
<text text-anchor="start" x="1644.16" y="-553.4" font-family="Arial" font-size="14.00">    </text>
<text text-anchor="start" x="1675.27" y="-553.4" font-family="Arial" font-size="14.00" fill="#666666">[BASE TABLE]</text>
<polygon fill="none" stroke="black" points="1526.33,-509.2 1526.33,-540 1780.01,-540 1780.01,-509.2 1526.33,-509.2"/>
<text text-anchor="start" x="1533.33" y="-521.4" font-family="Arial" font-size="14.00">created_at </text>
<text text-anchor="start" x="1603.37" y="-521.4" font-family="Arial" font-size="14.00" fill="#666666">[timestamp with time zone]</text>
<polygon fill="none" stroke="black" points="1526.33,-478.4 1526.33,-509.2 1780.01,-509.2 1780.01,-478.4 1526.33,-478.4"/>
<text text-anchor="start" x="1533.33" y="-490.6" font-family="Arial" font-size="14.00">id </text>
<text text-anchor="start" x="1548.11" y="-490.6" font-family="Arial" font-size="14.00" fill="#666666">[uuid]</text>
<polygon fill="none" stroke="black" points="1526.33,-447.6 1526.33,-478.4 1780.01,-478.4 1780.01,-447.6 1526.33,-447.6"/>
<text text-anchor="start" x="1533.33" y="-459.8" font-family="Arial" font-size="14.00">name </text>
<text text-anchor="start" x="1572.24" y="-459.8" font-family="Arial" font-size="14.00" fill="#666666">[varchar(100)]</text>
<polygon fill="none" stroke="black" points="1526.33,-416.8 1526.33,-447.6 1780.01,-447.6 1780.01,-416.8 1526.33,-416.8"/>
<text text-anchor="start" x="1533.33" y="-429" font-family="Arial" font-size="14.00">owner_id </text>
<text text-anchor="start" x="1594.03" y="-429" font-family="Arial" font-size="14.00" fill="#666666">[uuid]</text>
<polygon fill="none" stroke="black" points="1526.33,-386 1526.33,-416.8 1780.01,-416.8 1780.01,-386 1526.33,-386"/>
<text text-anchor="start" x="1533.33" y="-398.2" font-family="Arial" font-size="14.00">updated_at </text>
<text text-anchor="start" x="1607.28" y="-398.2" font-family="Arial" font-size="14.00" fill="#666666">[timestamp with time zone]</text>
</g>
<!-- public.project_schemas&#45;&gt;public.projects -->
<g id="edge1" class="edge">
<title>public.project_schemas:project_id&#45;&gt;public.projects:id</title>
<path fill="none" stroke="black" d="M365.35,-851.32C437.69,-840.89 343.84,-712.48 409.17,-654.8 503.1,-571.87 1400.02,-493.8 1525.33,-493.8"/>
<polygon fill="black" stroke="black" points="365.45,-851.32 355.17,-847.49 360.12,-851.67 355.8,-851.96 355.8,-851.96 355.8,-851.96 360.12,-851.67 355.76,-856.47 365.45,-851.32"/>
</g>
<!-- public.users -->
<g id="node10" class="node">
<title>public.users</title>
<polygon fill="#efefef" stroke="none" points="1526.33,-228 1526.33,-263.6 1780.01,-263.6 1780.01,-228 1526.33,-228"/>
<polygon fill="none" stroke="black" points="1526.33,-228 1526.33,-263.6 1780.01,-263.6 1780.01,-228 1526.33,-228"/>
<text text-anchor="start" x="1547.68" y="-241.4" font-family="Arial Bold" font-size="18.00">public.users</text>
<text text-anchor="start" x="1634.16" y="-241.4" font-family="Arial" font-size="14.00">    </text>
<text text-anchor="start" x="1665.28" y="-241.4" font-family="Arial" font-size="14.00" fill="#666666">[BASE TABLE]</text>
<polygon fill="none" stroke="black" points="1526.33,-197.2 1526.33,-228 1780.01,-228 1780.01,-197.2 1526.33,-197.2"/>
<text text-anchor="start" x="1533.33" y="-209.4" font-family="Arial" font-size="14.00">created_at </text>
<text text-anchor="start" x="1603.37" y="-209.4" font-family="Arial" font-size="14.00" fill="#666666">[timestamp with time zone]</text>
<polygon fill="none" stroke="black" points="1526.33,-166.4 1526.33,-197.2 1780.01,-197.2 1780.01,-166.4 1526.33,-166.4"/>
<text text-anchor="start" x="1533.33" y="-178.6" font-family="Arial" font-size="14.00">email </text>
<text text-anchor="start" x="1570.67" y="-178.6" font-family="Arial" font-size="14.00" fill="#666666">[varchar(320)]</text>
<polygon fill="none" stroke="black" points="1526.33,-135.6 1526.33,-166.4 1780.01,-166.4 1780.01,-135.6 1526.33,-135.6"/>
<text text-anchor="start" x="1533.33" y="-147.8" font-family="Arial" font-size="14.00">id </text>
<text text-anchor="start" x="1548.11" y="-147.8" font-family="Arial" font-size="14.00" fill="#666666">[uuid]</text>
<polygon fill="none" stroke="black" points="1526.33,-104.8 1526.33,-135.6 1780.01,-135.6 1780.01,-104.8 1526.33,-104.8"/>
<text text-anchor="start" x="1533.33" y="-117" font-family="Arial" font-size="14.00">password_hash </text>
<text text-anchor="start" x="1635.28" y="-117" font-family="Arial" font-size="14.00" fill="#666666">[text]</text>
<polygon fill="none" stroke="black" points="1526.33,-74 1526.33,-104.8 1780.01,-104.8 1780.01,-74 1526.33,-74"/>
<text text-anchor="start" x="1533.33" y="-86.2" font-family="Arial" font-size="14.00">role </text>
<text text-anchor="start" x="1560.56" y="-86.2" font-family="Arial" font-size="14.00" fill="#666666">[text]</text>
<polygon fill="none" stroke="black" points="1526.33,-43.2 1526.33,-74 1780.01,-74 1780.01,-43.2 1526.33,-43.2"/>
<text text-anchor="start" x="1533.33" y="-55.4" font-family="Arial" font-size="14.00">updated_at </text>
<text text-anchor="start" x="1607.28" y="-55.4" font-family="Arial" font-size="14.00" fill="#666666">[timestamp with time zone]</text>
</g>
<!-- public.projects&#45;&gt;public.users -->
<g id="edge9" class="edge">
<title>public.projects:owner_id&#45;&gt;public.users:id</title>
<path fill="none" stroke="black" d="M1791.33,-431.54C1905.89,-416.5 1902.45,-151 1781.01,-151"/>
<polygon fill="black" stroke="black" points="1791.32,-431.54 1781.05,-427.69 1786,-431.88 1781.68,-432.16 1781.68,-432.16 1781.68,-432.16 1786,-431.88 1781.63,-436.67 1791.32,-431.54"/>
</g>
<!-- public.audit_logs -->
<g id="node3" class="node">
<title>public.audit_logs</title>
<polygon fill="#efefef" stroke="none" points="461.68,-975.2 461.68,-1010.8 724.66,-1010.8 724.66,-975.2 461.68,-975.2"/>
<polygon fill="none" stroke="black" points="461.68,-975.2 461.68,-1010.8 724.66,-1010.8 724.66,-975.2 461.68,-975.2"/>
<text text-anchor="start" x="468.68" y="-988.6" font-family="Arial Bold" font-size="18.00">public.audit_logs</text>
<text text-anchor="start" x="593.17" y="-988.6" font-family="Arial" font-size="14.00">    </text>
<text text-anchor="start" x="624.28" y="-988.6" font-family="Arial" font-size="14.00" fill="#666666">[BASE TABLE]</text>
<polygon fill="none" stroke="black" points="461.68,-944.4 461.68,-975.2 724.66,-975.2 724.66,-944.4 461.68,-944.4"/>
<text text-anchor="start" x="468.68" y="-956.6" font-family="Arial" font-size="14.00">action </text>
<text text-anchor="start" x="509.93" y="-956.6" font-family="Arial" font-size="14.00" fill="#666666">[text]</text>
<polygon fill="none" stroke="black" points="461.68,-913.6 461.68,-944.4 724.66,-944.4 724.66,-913.6 461.68,-913.6"/>
<text text-anchor="start" x="468.68" y="-925.8" font-family="Arial" font-size="14.00">changes </text>
<text text-anchor="start" x="525.5" y="-925.8" font-family="Arial" font-size="14.00" fill="#666666">[jsonb]</text>
<polygon fill="none" stroke="black" points="461.68,-882.8 461.68,-913.6 724.66,-913.6 724.66,-882.8 461.68,-882.8"/>
<text text-anchor="start" x="468.68" y="-895" font-family="Arial" font-size="14.00">created_at </text>
<text text-anchor="start" x="538.73" y="-895" font-family="Arial" font-size="14.00" fill="#666666">[timestamp with time zone]</text>
<polygon fill="none" stroke="black" points="461.68,-852 461.68,-882.8 724.66,-882.8 724.66,-852 461.68,-852"/>
<text text-anchor="start" x="468.68" y="-864.2" font-family="Arial" font-size="14.00">id </text>
<text text-anchor="start" x="483.46" y="-864.2" font-family="Arial" font-size="14.00" fill="#666666">[uuid]</text>
<polygon fill="none" stroke="black" points="461.68,-821.2 461.68,-852 724.66,-852 724.66,-821.2 461.68,-821.2"/>
<text text-anchor="start" x="468.68" y="-833.4" font-family="Arial" font-size="14.00">ip_address </text>
<text text-anchor="start" x="541.06" y="-833.4" font-family="Arial" font-size="14.00" fill="#666666">[varchar(45)]</text>
<polygon fill="none" stroke="black" points="461.68,-790.4 461.68,-821.2 724.66,-821.2 724.66,-790.4 461.68,-790.4"/>
<text text-anchor="start" x="468.68" y="-802.6" font-family="Arial" font-size="14.00">project_id </text>
<text text-anchor="start" x="533.27" y="-802.6" font-family="Arial" font-size="14.00" fill="#666666">[uuid]</text>
<polygon fill="none" stroke="black" points="461.68,-759.6 461.68,-790.4 724.66,-790.4 724.66,-759.6 461.68,-759.6"/>
<text text-anchor="start" x="468.68" y="-771.8" font-family="Arial" font-size="14.00">record_id </text>
<text text-anchor="start" x="530.93" y="-771.8" font-family="Arial" font-size="14.00" fill="#666666">[uuid]</text>
<polygon fill="none" stroke="black" points="461.68,-728.8 461.68,-759.6 724.66,-759.6 724.66,-728.8 461.68,-728.8"/>
<text text-anchor="start" x="468.68" y="-741" font-family="Arial" font-size="14.00">target_table </text>
<text text-anchor="start" x="546.51" y="-741" font-family="Arial" font-size="14.00" fill="#666666">[text]</text>
<polygon fill="none" stroke="black" points="461.68,-698 461.68,-728.8 724.66,-728.8 724.66,-698 461.68,-698"/>
<text text-anchor="start" x="468.68" y="-710.2" font-family="Arial" font-size="14.00">user_id </text>
<text text-anchor="start" x="518.48" y="-710.2" font-family="Arial" font-size="14.00" fill="#666666">[uuid]</text>
</g>
<!-- public.audit_logs&#45;&gt;public.projects -->
<g id="edge2" class="edge">
<title>public.audit_logs:project_id&#45;&gt;public.projects:id</title>
<path fill="none" stroke="black" d="M736.02,-804.89C788.81,-794.61 726.31,-699.4 776.17,-654.8 903.07,-541.27 1355.05,-493.8 1525.33,-493.8"/>
<polygon fill="black" stroke="black" points="735.95,-804.9 725.6,-801.29 730.64,-805.36 726.32,-805.74 726.32,-805.74 726.32,-805.74 730.64,-805.36 726.38,-810.25 735.95,-804.9"/>
</g>
<!-- public.project_deployments -->
<g id="node4" class="node">
<title>public.project_deployments</title>
<polygon fill="#efefef" stroke="none" points="828.7,-882.8 828.7,-918.4 1167.64,-918.4 1167.64,-882.8 828.7,-882.8"/>
<polygon fill="none" stroke="black" points="828.7,-882.8 828.7,-918.4 1167.64,-918.4 1167.64,-882.8 828.7,-882.8"/>
<text text-anchor="start" x="835.7" y="-896.2" font-family="Arial Bold" font-size="18.00">public.project_deployments</text>
<text text-anchor="start" x="1036.15" y="-896.2" font-family="Arial" font-size="14.00">    </text>
<text text-anchor="start" x="1067.27" y="-896.2" font-family="Arial" font-size="14.00" fill="#666666">[BASE TABLE]</text>
<polygon fill="none" stroke="black" points="828.7,-852 828.7,-882.8 1167.64,-882.8 1167.64,-852 828.7,-852"/>
<text text-anchor="start" x="835.7" y="-864.2" font-family="Arial" font-size="14.00">active_version_id </text>
<text text-anchor="start" x="947.76" y="-864.2" font-family="Arial" font-size="14.00" fill="#666666">[uuid]</text>
<polygon fill="none" stroke="black" points="828.7,-821.2 828.7,-852 1167.64,-852 1167.64,-821.2 828.7,-821.2"/>
<text text-anchor="start" x="835.7" y="-833.4" font-family="Arial" font-size="14.00">project_id </text>
<text text-anchor="start" x="900.29" y="-833.4" font-family="Arial" font-size="14.00" fill="#666666">[uuid]</text>
<polygon fill="none" stroke="black" points="828.7,-790.4 828.7,-821.2 1167.64,-821.2 1167.64,-790.4 828.7,-790.4"/>
<text text-anchor="start" x="835.7" y="-802.6" font-family="Arial" font-size="14.00">updated_at </text>
<text text-anchor="start" x="909.65" y="-802.6" font-family="Arial" font-size="14.00" fill="#666666">[timestamp with time zone]</text>
</g>
<!-- public.project_deployments&#45;&gt;public.projects -->
<g id="edge3" class="edge">
<title>public.project_deployments:project_id&#45;&gt;public.projects:id</title>
<path fill="none" stroke="black" d="M1178.94,-835.91C1245.05,-826.23 1168.87,-717.14 1219.17,-654.8 1315.7,-535.15 1371.59,-493.8 1525.33,-493.8"/>
<polygon fill="black" stroke="black" points="1178.95,-835.91 1168.67,-832.09 1173.63,-836.27 1169.3,-836.56 1169.3,-836.56 1169.3,-836.56 1173.63,-836.27 1169.27,-841.07 1178.95,-835.91"/>
</g>
<!-- public.project_documents -->
<g id="node5" class="node">
<title>public.project_documents</title>
<polygon fill="#efefef" stroke="none" points="1271.7,-882.8 1271.7,-918.4 1596.64,-918.4 1596.64,-882.8 1271.7,-882.8"/>
<polygon fill="none" stroke="black" points="1271.7,-882.8 1271.7,-918.4 1596.64,-918.4 1596.64,-882.8 1271.7,-882.8"/>
<text text-anchor="start" x="1278.7" y="-896.2" font-family="Arial Bold" font-size="18.00">public.project_documents</text>
<text text-anchor="start" x="1465.15" y="-896.2" font-family="Arial" font-size="14.00">    </text>
<text text-anchor="start" x="1496.26" y="-896.2" font-family="Arial" font-size="14.00" fill="#666666">[BASE TABLE]</text>
<polygon fill="none" stroke="black" points="1271.7,-852 1271.7,-882.8 1596.64,-882.8 1596.64,-852 1271.7,-852"/>
<text text-anchor="start" x="1278.7" y="-864.2" font-family="Arial" font-size="14.00">document </text>
<text text-anchor="start" x="1344.07" y="-864.2" font-family="Arial" font-size="14.00" fill="#666666">[jsonb]</text>
<polygon fill="none" stroke="black" points="1271.7,-821.2 1271.7,-852 1596.64,-852 1596.64,-821.2 1271.7,-821.2"/>
<text text-anchor="start" x="1278.7" y="-833.4" font-family="Arial" font-size="14.00">project_id </text>
<text text-anchor="start" x="1343.29" y="-833.4" font-family="Arial" font-size="14.00" fill="#666666">[uuid]</text>
<polygon fill="none" stroke="black" points="1271.7,-790.4 1271.7,-821.2 1596.64,-821.2 1596.64,-790.4 1271.7,-790.4"/>
<text text-anchor="start" x="1278.7" y="-802.6" font-family="Arial" font-size="14.00">updated_at </text>
<text text-anchor="start" x="1352.65" y="-802.6" font-family="Arial" font-size="14.00" fill="#666666">[timestamp with time zone]</text>
</g>
<!-- public.project_documents&#45;&gt;public.projects -->
<g id="edge4" class="edge">
<title>public.project_documents:project_id&#45;&gt;public.projects:id</title>
<path fill="none" stroke="black" d="M1607.66,-835.09C1631.36,-826.38 1605.68,-781.74 1596.64,-747.2 1580.16,-684.26 1542.71,-681.77 1526.33,-618.8 1512.34,-565.03 1469.77,-493.8 1525.33,-493.8"/>
<polygon fill="black" stroke="black" points="1607.86,-835.06 1597.3,-832.1 1602.58,-835.85 1598.3,-836.5 1598.3,-836.5 1598.3,-836.5 1602.58,-835.85 1598.64,-841 1607.86,-835.06"/>
</g>
<!-- public.project_environments -->
<g id="node6" class="node">
<title>public.project_environments</title>
<polygon fill="#efefef" stroke="none" points="1700.7,-944.4 1700.7,-980 2045.63,-980 2045.63,-944.4 1700.7,-944.4"/>
<polygon fill="none" stroke="black" points="1700.7,-944.4 1700.7,-980 2045.63,-980 2045.63,-944.4 1700.7,-944.4"/>
<text text-anchor="start" x="1707.7" y="-957.8" font-family="Arial Bold" font-size="18.00">public.project_environments</text>
<text text-anchor="start" x="1914.15" y="-957.8" font-family="Arial" font-size="14.00">    </text>
<text text-anchor="start" x="1945.26" y="-957.8" font-family="Arial" font-size="14.00" fill="#666666">[BASE TABLE]</text>
<polygon fill="none" stroke="black" points="1700.7,-913.6 1700.7,-944.4 2045.63,-944.4 2045.63,-913.6 1700.7,-913.6"/>
<text text-anchor="start" x="1707.7" y="-925.8" font-family="Arial" font-size="14.00">created_at </text>
<text text-anchor="start" x="1777.75" y="-925.8" font-family="Arial" font-size="14.00" fill="#666666">[timestamp with time zone]</text>
<polygon fill="none" stroke="black" points="1700.7,-882.8 1700.7,-913.6 2045.63,-913.6 2045.63,-882.8 1700.7,-882.8"/>
<text text-anchor="start" x="1707.7" y="-895" font-family="Arial" font-size="14.00">id </text>
<text text-anchor="start" x="1722.49" y="-895" font-family="Arial" font-size="14.00" fill="#666666">[uuid]</text>
<polygon fill="none" stroke="black" points="1700.7,-852 1700.7,-882.8 2045.63,-882.8 2045.63,-852 1700.7,-852"/>
<text text-anchor="start" x="1707.7" y="-864.2" font-family="Arial" font-size="14.00">is_secret </text>
<text text-anchor="start" x="1767.61" y="-864.2" font-family="Arial" font-size="14.00" fill="#666666">[boolean]</text>
<polygon fill="none" stroke="black" points="1700.7,-821.2 1700.7,-852 2045.63,-852 2045.63,-821.2 1700.7,-821.2"/>
<text text-anchor="start" x="1707.7" y="-833.4" font-family="Arial" font-size="14.00">key </text>
<text text-anchor="start" x="1733.37" y="-833.4" font-family="Arial" font-size="14.00" fill="#666666">[varchar(255)]</text>
<polygon fill="none" stroke="black" points="1700.7,-790.4 1700.7,-821.2 2045.63,-821.2 2045.63,-790.4 1700.7,-790.4"/>
<text text-anchor="start" x="1707.7" y="-802.6" font-family="Arial" font-size="14.00">project_id </text>
<text text-anchor="start" x="1772.29" y="-802.6" font-family="Arial" font-size="14.00" fill="#666666">[uuid]</text>
<polygon fill="none" stroke="black" points="1700.7,-759.6 1700.7,-790.4 2045.63,-790.4 2045.63,-759.6 1700.7,-759.6"/>
<text text-anchor="start" x="1707.7" y="-771.8" font-family="Arial" font-size="14.00">updated_at </text>
<text text-anchor="start" x="1781.66" y="-771.8" font-family="Arial" font-size="14.00" fill="#666666">[timestamp with time zone]</text>
<polygon fill="none" stroke="black" points="1700.7,-728.8 1700.7,-759.6 2045.63,-759.6 2045.63,-728.8 1700.7,-728.8"/>
<text text-anchor="start" x="1707.7" y="-741" font-family="Arial" font-size="14.00">value </text>
<text text-anchor="start" x="1745.06" y="-741" font-family="Arial" font-size="14.00" fill="#666666">[text]</text>
</g>
<!-- public.project_environments&#45;&gt;public.projects -->
<g id="edge5" class="edge">
<title>public.project_environments:project_id&#45;&gt;public.projects:id</title>
<path fill="none" stroke="black" d="M1689.66,-804.77C1650.69,-795.81 1679.56,-730.55 1700.7,-685.6 1720.31,-643.9 1760.4,-660.51 1780.01,-618.8 1803.64,-568.52 1836.56,-493.8 1781.01,-493.8"/>
<polygon fill="black" stroke="black" points="1689.42,-804.74 1698.91,-810.24 1694.73,-805.29 1699.03,-805.73 1699.03,-805.73 1699.03,-805.73 1694.73,-805.29 1699.83,-801.29 1689.42,-804.74"/>
</g>
<!-- public.project_members -->
<g id="node7" class="node">
<title>public.project_members</title>
<polygon fill="#efefef" stroke="none" points="2149.7,-898.2 2149.7,-933.8 2462.63,-933.8 2462.63,-898.2 2149.7,-898.2"/>
<polygon fill="none" stroke="black" points="2149.7,-898.2 2149.7,-933.8 2462.63,-933.8 2462.63,-898.2 2149.7,-898.2"/>
<text text-anchor="start" x="2156.7" y="-911.6" font-family="Arial Bold" font-size="18.00">public.project_members</text>
<text text-anchor="start" x="2331.14" y="-911.6" font-family="Arial" font-size="14.00">    </text>
<text text-anchor="start" x="2362.26" y="-911.6" font-family="Arial" font-size="14.00" fill="#666666">[BASE TABLE]</text>
<polygon fill="none" stroke="black" points="2149.7,-867.4 2149.7,-898.2 2462.63,-898.2 2462.63,-867.4 2149.7,-867.4"/>
<text text-anchor="start" x="2156.7" y="-879.6" font-family="Arial" font-size="14.00">created_at </text>
<text text-anchor="start" x="2226.75" y="-879.6" font-family="Arial" font-size="14.00" fill="#666666">[timestamp with time zone]</text>
<polygon fill="none" stroke="black" points="2149.7,-836.6 2149.7,-867.4 2462.63,-867.4 2462.63,-836.6 2149.7,-836.6"/>
<text text-anchor="start" x="2156.7" y="-848.8" font-family="Arial" font-size="14.00">project_id </text>
<text text-anchor="start" x="2221.29" y="-848.8" font-family="Arial" font-size="14.00" fill="#666666">[uuid]</text>
<polygon fill="none" stroke="black" points="2149.7,-805.8 2149.7,-836.6 2462.63,-836.6 2462.63,-805.8 2149.7,-805.8"/>
<text text-anchor="start" x="2156.7" y="-818" font-family="Arial" font-size="14.00">role </text>
<text text-anchor="start" x="2183.93" y="-818" font-family="Arial" font-size="14.00" fill="#666666">[text]</text>
<polygon fill="none" stroke="black" points="2149.7,-775 2149.7,-805.8 2462.63,-805.8 2462.63,-775 2149.7,-775"/>
<text text-anchor="start" x="2156.7" y="-787.2" font-family="Arial" font-size="14.00">user_id </text>
<text text-anchor="start" x="2206.51" y="-787.2" font-family="Arial" font-size="14.00" fill="#666666">[uuid]</text>
</g>
<!-- public.project_members&#45;&gt;public.projects -->
<g id="edge6" class="edge">
<title>public.project_members:project_id&#45;&gt;public.projects:id</title>
<path fill="none" stroke="black" d="M2138.49,-851.37C2065.89,-841.71 2152.45,-722.49 2098.17,-654.8 1999.26,-531.48 1939.09,-493.8 1781.01,-493.8"/>
<polygon fill="black" stroke="black" points="2138.38,-851.37 2148.09,-856.47 2143.71,-851.69 2148.03,-851.96 2148.03,-851.96 2148.03,-851.96 2143.71,-851.69 2148.64,-847.49 2138.38,-851.37"/>
</g>
<!-- public.project_versions -->
<g id="node8" class="node">
<title>public.project_versions</title>
<polygon fill="#efefef" stroke="none" points="2566.69,-959.8 2566.69,-995.4 2873.64,-995.4 2873.64,-959.8 2566.69,-959.8"/>
<polygon fill="none" stroke="black" points="2566.69,-959.8 2566.69,-995.4 2873.64,-995.4 2873.64,-959.8 2566.69,-959.8"/>
<text text-anchor="start" x="2573.69" y="-973.2" font-family="Arial Bold" font-size="18.00">public.project_versions</text>
<text text-anchor="start" x="2742.15" y="-973.2" font-family="Arial" font-size="14.00">    </text>
<text text-anchor="start" x="2773.27" y="-973.2" font-family="Arial" font-size="14.00" fill="#666666">[BASE TABLE]</text>
<polygon fill="none" stroke="black" points="2566.69,-929 2566.69,-959.8 2873.64,-959.8 2873.64,-929 2566.69,-929"/>
<text text-anchor="start" x="2573.69" y="-941.2" font-family="Arial" font-size="14.00">created_at </text>
<text text-anchor="start" x="2643.74" y="-941.2" font-family="Arial" font-size="14.00" fill="#666666">[timestamp with time zone]</text>
<polygon fill="none" stroke="black" points="2566.69,-898.2 2566.69,-929 2873.64,-929 2873.64,-898.2 2566.69,-898.2"/>
<text text-anchor="start" x="2573.69" y="-910.4" font-family="Arial" font-size="14.00">created_by </text>
<text text-anchor="start" x="2646.85" y="-910.4" font-family="Arial" font-size="14.00" fill="#666666">[uuid]</text>
<polygon fill="none" stroke="black" points="2566.69,-867.4 2566.69,-898.2 2873.64,-898.2 2873.64,-867.4 2566.69,-867.4"/>
<text text-anchor="start" x="2573.69" y="-879.6" font-family="Arial" font-size="14.00">description </text>
<text text-anchor="start" x="2645.28" y="-879.6" font-family="Arial" font-size="14.00" fill="#666666">[text]</text>
<polygon fill="none" stroke="black" points="2566.69,-836.6 2566.69,-867.4 2873.64,-867.4 2873.64,-836.6 2566.69,-836.6"/>
<text text-anchor="start" x="2573.69" y="-848.8" font-family="Arial" font-size="14.00">id </text>
<text text-anchor="start" x="2588.48" y="-848.8" font-family="Arial" font-size="14.00" fill="#666666">[uuid]</text>
<polygon fill="none" stroke="black" points="2566.69,-805.8 2566.69,-836.6 2873.64,-836.6 2873.64,-805.8 2566.69,-805.8"/>
<text text-anchor="start" x="2573.69" y="-818" font-family="Arial" font-size="14.00">name </text>
<text text-anchor="start" x="2612.6" y="-818" font-family="Arial" font-size="14.00" fill="#666666">[varchar(100)]</text>
<polygon fill="none" stroke="black" points="2566.69,-775 2566.69,-805.8 2873.64,-805.8 2873.64,-775 2566.69,-775"/>
<text text-anchor="start" x="2573.69" y="-787.2" font-family="Arial" font-size="14.00">project_id </text>
<text text-anchor="start" x="2638.28" y="-787.2" font-family="Arial" font-size="14.00" fill="#666666">[uuid]</text>
<polygon fill="none" stroke="black" points="2566.69,-744.2 2566.69,-775 2873.64,-775 2873.64,-744.2 2566.69,-744.2"/>
<text text-anchor="start" x="2573.69" y="-756.4" font-family="Arial" font-size="14.00">snapshot </text>
<text text-anchor="start" x="2634.4" y="-756.4" font-family="Arial" font-size="14.00" fill="#666666">[jsonb]</text>
<polygon fill="none" stroke="black" points="2566.69,-713.4 2566.69,-744.2 2873.64,-744.2 2873.64,-713.4 2566.69,-713.4"/>
<text text-anchor="start" x="2573.69" y="-725.6" font-family="Arial" font-size="14.00">version_number </text>
<text text-anchor="start" x="2677.97" y="-725.6" font-family="Arial" font-size="14.00" fill="#666666">[integer]</text>
</g>
<!-- public.project_versions&#45;&gt;public.projects -->
<g id="edge7" class="edge">
<title>public.project_versions:project_id&#45;&gt;public.projects:id</title>
<path fill="none" stroke="black" d="M2555.35,-789.4C2508.52,-779.27 2560.79,-694.41 2515.17,-654.8 2389.05,-545.3 1948.03,-493.8 1781.01,-493.8"/>
<polygon fill="black" stroke="black" points="2555.41,-789.41 2564.93,-794.85 2560.72,-789.92 2565.03,-790.34 2565.03,-790.34 2565.03,-790.34 2560.72,-789.92 2565.79,-785.89 2555.41,-789.41"/>
</g>
<!-- public.runtime_users -->
<g id="node9" class="node">
<title>public.runtime_users</title>
<polygon fill="#efefef" stroke="none" points="2978.19,-959.8 2978.19,-995.4 3268.15,-995.4 3268.15,-959.8 2978.19,-959.8"/>
<polygon fill="none" stroke="black" points="2978.19,-959.8 2978.19,-995.4 3268.15,-995.4 3268.15,-959.8 2978.19,-959.8"/>
<text text-anchor="start" x="2985.19" y="-973.2" font-family="Arial Bold" font-size="18.00">public.runtime_users</text>
<text text-anchor="start" x="3136.66" y="-973.2" font-family="Arial" font-size="14.00">    </text>
<text text-anchor="start" x="3167.77" y="-973.2" font-family="Arial" font-size="14.00" fill="#666666">[BASE TABLE]</text>
<polygon fill="none" stroke="black" points="2978.19,-929 2978.19,-959.8 3268.15,-959.8 3268.15,-929 2978.19,-929"/>
<text text-anchor="start" x="2985.19" y="-941.2" font-family="Arial" font-size="14.00">created_at </text>
<text text-anchor="start" x="3055.23" y="-941.2" font-family="Arial" font-size="14.00" fill="#666666">[timestamp with time zone]</text>
<polygon fill="none" stroke="black" points="2978.19,-898.2 2978.19,-929 3268.15,-929 3268.15,-898.2 2978.19,-898.2"/>
<text text-anchor="start" x="2985.19" y="-910.4" font-family="Arial" font-size="14.00">email </text>
<text text-anchor="start" x="3022.53" y="-910.4" font-family="Arial" font-size="14.00" fill="#666666">[varchar(255)]</text>
<polygon fill="none" stroke="black" points="2978.19,-867.4 2978.19,-898.2 3268.15,-898.2 3268.15,-867.4 2978.19,-867.4"/>
<text text-anchor="start" x="2985.19" y="-879.6" font-family="Arial" font-size="14.00">id </text>
<text text-anchor="start" x="2999.97" y="-879.6" font-family="Arial" font-size="14.00" fill="#666666">[uuid]</text>
<polygon fill="none" stroke="black" points="2978.19,-836.6 2978.19,-867.4 3268.15,-867.4 3268.15,-836.6 2978.19,-836.6"/>
<text text-anchor="start" x="2985.19" y="-848.8" font-family="Arial" font-size="14.00">metadata </text>
<text text-anchor="start" x="3047.45" y="-848.8" font-family="Arial" font-size="14.00" fill="#666666">[jsonb]</text>
<polygon fill="none" stroke="black" points="2978.19,-805.8 2978.19,-836.6 3268.15,-836.6 3268.15,-805.8 2978.19,-805.8"/>
<text text-anchor="start" x="2985.19" y="-818" font-family="Arial" font-size="14.00">password_hash </text>
<text text-anchor="start" x="3087.14" y="-818" font-family="Arial" font-size="14.00" fill="#666666">[varchar(255)]</text>
<polygon fill="none" stroke="black" points="2978.19,-775 2978.19,-805.8 3268.15,-805.8 3268.15,-775 2978.19,-775"/>
<text text-anchor="start" x="2985.19" y="-787.2" font-family="Arial" font-size="14.00">project_id </text>
<text text-anchor="start" x="3049.78" y="-787.2" font-family="Arial" font-size="14.00" fill="#666666">[uuid]</text>
<polygon fill="none" stroke="black" points="2978.19,-744.2 2978.19,-775 3268.15,-775 3268.15,-744.2 2978.19,-744.2"/>
<text text-anchor="start" x="2985.19" y="-756.4" font-family="Arial" font-size="14.00">role </text>
<text text-anchor="start" x="3012.42" y="-756.4" font-family="Arial" font-size="14.00" fill="#666666">[varchar(50)]</text>
<polygon fill="none" stroke="black" points="2978.19,-713.4 2978.19,-744.2 3268.15,-744.2 3268.15,-713.4 2978.19,-713.4"/>
<text text-anchor="start" x="2985.19" y="-725.6" font-family="Arial" font-size="14.00">updated_at </text>
<text text-anchor="start" x="3059.14" y="-725.6" font-family="Arial" font-size="14.00" fill="#666666">[timestamp with time zone]</text>
</g>
<!-- public.runtime_users&#45;&gt;public.projects -->
<g id="edge8" class="edge">
<title>public.runtime_users:project_id&#45;&gt;public.projects:id</title>
<path fill="none" stroke="black" d="M2966.84,-789.38C2920.08,-779.06 2973.38,-692.62 2926.17,-654.8 2725.59,-494.15 2037.99,-493.8 1781.01,-493.8"/>
<polygon fill="black" stroke="black" points="2966.9,-789.39 2976.41,-794.85 2972.21,-789.91 2976.52,-790.33 2976.52,-790.33 2976.52,-790.33 2972.21,-789.91 2977.29,-785.89 2966.9,-789.39"/>
</g>
</g>
</svg>
