<?xml version="1.0" encoding="UTF-8" standalone="no"?>
<!DOCTYPE svg PUBLIC "-//W3C//DTD SVG 1.1//EN"
 "http://www.w3.org/Graphics/SVG/1.1/DTD/svg11.dtd">
<!-- Generated by graphviz version 12.1.2 (20240928.0832)
 -->
<!-- Title: public.project_documents Pages: 1 -->
<svg width="4526pt" height="1185pt"
 viewBox="0.00 0.00 4526.36 1185.20" xmlns="http://www.w3.org/2000/svg" xmlns:xlink="http://www.w3.org/1999/xlink">
<g id="graph0" class="graph" transform="scale(1 1) rotate(0) translate(4 1181.2)">
<title>public.project_documents</title>
<polygon fill="white" stroke="none" points="-4,4 -4,-1181.2 4522.36,-1181.2 4522.36,4 -4,4"/>
<!-- public.project_documents -->
<g id="node1" class="node">
<title>public.project_documents</title>
<polygon fill="#efefef" stroke="none" points="46.2,-944.4 46.2,-980 371.14,-980 371.14,-944.4 46.2,-944.4"/>
<polygon fill="none" stroke="black" points="46.2,-944.4 46.2,-980 371.14,-980 371.14,-944.4 46.2,-944.4"/>
<text text-anchor="start" x="53.2" y="-957.8" font-family="Arial Bold" font-size="18.00">public.project_documents</text>
<text text-anchor="start" x="239.65" y="-957.8" font-family="Arial" font-size="14.00">    </text>
<text text-anchor="start" x="270.77" y="-957.8" font-family="Arial" font-size="14.00" fill="#666666">[BASE TABLE]</text>
<polygon fill="none" stroke="black" points="46.2,-913.6 46.2,-944.4 371.14,-944.4 371.14,-913.6 46.2,-913.6"/>
<text text-anchor="start" x="53.2" y="-925.8" font-family="Arial" font-size="14.00">document </text>
<text text-anchor="start" x="118.57" y="-925.8" font-family="Arial" font-size="14.00" fill="#666666">[jsonb]</text>
<polygon fill="none" stroke="black" points="46.2,-882.8 46.2,-913.6 371.14,-913.6 371.14,-882.8 46.2,-882.8"/>
<text text-anchor="start" x="53.2" y="-895" font-family="Arial" font-size="14.00">project_id </text>
<text text-anchor="start" x="117.79" y="-895" font-family="Arial" font-size="14.00" fill="#666666">[uuid]</text>
<polygon fill="none" stroke="black" points="46.2,-852 46.2,-882.8 371.14,-882.8 371.14,-852 46.2,-852"/>
<text text-anchor="start" x="53.2" y="-864.2" font-family="Arial" font-size="14.00">updated_at </text>
<text text-anchor="start" x="127.16" y="-864.2" font-family="Arial" font-size="14.00" fill="#666666">[timestamp with time zone]</text>
<polygon fill="none" stroke="black" stroke-width="3" points="44.7,-850.5 44.7,-981.5 372.64,-981.5 372.64,-850.5 44.7,-850.5"/>
</g>
<!-- public.projects -->
<g id="node2" class="node">
<title>public.projects</title>
<polygon fill="#efefef" stroke="none" points="2201.83,-540 2201.83,-575.6 2455.51,-575.6 2455.51,-540 2201.83,-540"/>
<polygon fill="none" stroke="black" points="2201.83,-540 2201.83,-575.6 2455.51,-575.6 2455.51,-540 2201.83,-540"/>
<text text-anchor="start" x="2213.19" y="-553.4" font-family="Arial Bold" font-size="18.00">public.projects</text>
<text text-anchor="start" x="2319.66" y="-553.4" font-family="Arial" font-size="14.00">    </text>
<text text-anchor="start" x="2350.78" y="-553.4" font-family="Arial" font-size="14.00" fill="#666666">[BASE TABLE]</text>
<polygon fill="none" stroke="black" points="2201.83,-509.2 2201.83,-540 2455.51,-540 2455.51,-509.2 2201.83,-509.2"/>
<text text-anchor="start" x="2208.83" y="-521.4" font-family="Arial" font-size="14.00">created_at </text>
<text text-anchor="start" x="2278.88" y="-521.4" font-family="Arial" font-size="14.00" fill="#666666">[timestamp with time zone]</text>
<polygon fill="none" stroke="black" points="2201.83,-478.4 2201.83,-509.2 2455.51,-509.2 2455.51,-478.4 2201.83,-478.4"/>
<text text-anchor="start" x="2208.83" y="-490.6" font-family="Arial" font-size="14.00">id </text>
<text text-anchor="start" x="2223.62" y="-490.6" font-family="Arial" font-size="14.00" fill="#666666">[uuid]</text>
<polygon fill="none" stroke="black" points="2201.83,-447.6 2201.83,-478.4 2455.51,-478.4 2455.51,-447.6 2201.83,-447.6"/>
<text text-anchor="start" x="2208.83" y="-459.8" font-family="Arial" font-size="14.00">name </text>
<text text-anchor="start" x="2247.74" y="-459.8" font-family="Arial" font-size="14.00" fill="#666666">[varchar(100)]</text>
<polygon fill="none" stroke="black" points="2201.83,-416.8 2201.83,-447.6 2455.51,-447.6 2455.51,-416.8 2201.83,-416.8"/>
<text text-anchor="start" x="2208.83" y="-429" font-family="Arial" font-size="14.00">owner_id </text>
<text text-anchor="start" x="2269.53" y="-429" font-family="Arial" font-size="14.00" fill="#666666">[uuid]</text>
<polygon fill="none" stroke="black" points="2201.83,-386 2201.83,-416.8 2455.51,-416.8 2455.51,-386 2201.83,-386"/>
<text text-anchor="start" x="2208.83" y="-398.2" font-family="Arial" font-size="14.00">updated_at </text>
<text text-anchor="start" x="2282.79" y="-398.2" font-family="Arial" font-size="14.00" fill="#666666">[timestamp with time zone]</text>
</g>
<!-- public.project_documents&#45;&gt;public.projects -->
<g id="edge1" class="edge">
<title>public.project_documents:project_id&#45;&gt;public.projects:id</title>
<path fill="none" stroke="black" d="M382.36,-897.65C473.83,-887.01 345.33,-725.6 425.67,-654.8 574.25,-523.85 2002.78,-493.8 2200.83,-493.8"/>
<polygon fill="black" stroke="black" points="382.46,-897.64 372.23,-893.69 377.13,-897.93 372.81,-898.16 372.81,-898.16 372.81,-898.16 377.13,-897.93 372.72,-902.68 382.46,-897.64"/>
</g>
<!-- public.users -->
<g id="node13" class="node">
<title>public.users</title>
<polygon fill="#efefef" stroke="none" points="2201.83,-228 2201.83,-263.6 2455.51,-263.6 2455.51,-228 2201.83,-228"/>
<polygon fill="none" stroke="black" points="2201.83,-228 2201.83,-263.6 2455.51,-263.6 2455.51,-228 2201.83,-228"/>
<text text-anchor="start" x="2223.18" y="-241.4" font-family="Arial Bold" font-size="18.00">public.users</text>
<text text-anchor="start" x="2309.67" y="-241.4" font-family="Arial" font-size="14.00">    </text>
<text text-anchor="start" x="2340.78" y="-241.4" font-family="Arial" font-size="14.00" fill="#666666">[BASE TABLE]</text>
<polygon fill="none" stroke="black" points="2201.83,-197.2 2201.83,-228 2455.51,-228 2455.51,-197.2 2201.83,-197.2"/>
<text text-anchor="start" x="2208.83" y="-209.4" font-family="Arial" font-size="14.00">created_at </text>
<text text-anchor="start" x="2278.88" y="-209.4" font-family="Arial" font-size="14.00" fill="#666666">[timestamp with time zone]</text>
<polygon fill="none" stroke="black" points="2201.83,-166.4 2201.83,-197.2 2455.51,-197.2 2455.51,-166.4 2201.83,-166.4"/>
<text text-anchor="start" x="2208.83" y="-178.6" font-family="Arial" font-size="14.00">email </text>
<text text-anchor="start" x="2246.17" y="-178.6" font-family="Arial" font-size="14.00" fill="#666666">[varchar(320)]</text>
<polygon fill="none" stroke="black" points="2201.83,-135.6 2201.83,-166.4 2455.51,-166.4 2455.51,-135.6 2201.83,-135.6"/>
<text text-anchor="start" x="2208.83" y="-147.8" font-family="Arial" font-size="14.00">id </text>
<text text-anchor="start" x="2223.62" y="-147.8" font-family="Arial" font-size="14.00" fill="#666666">[uuid]</text>
<polygon fill="none" stroke="black" points="2201.83,-104.8 2201.83,-135.6 2455.51,-135.6 2455.51,-104.8 2201.83,-104.8"/>
<text text-anchor="start" x="2208.83" y="-117" font-family="Arial" font-size="14.00">password_hash </text>
<text text-anchor="start" x="2310.78" y="-117" font-family="Arial" font-size="14.00" fill="#666666">[text]</text>
<polygon fill="none" stroke="black" points="2201.83,-74 2201.83,-104.8 2455.51,-104.8 2455.51,-74 2201.83,-74"/>
<text text-anchor="start" x="2208.83" y="-86.2" font-family="Arial" font-size="14.00">role </text>
<text text-anchor="start" x="2236.06" y="-86.2" font-family="Arial" font-size="14.00" fill="#666666">[text]</text>
<polygon fill="none" stroke="black" points="2201.83,-43.2 2201.83,-74 2455.51,-74 2455.51,-43.2 2201.83,-43.2"/>
<text text-anchor="start" x="2208.83" y="-55.4" font-family="Arial" font-size="14.00">updated_at </text>
<text text-anchor="start" x="2282.79" y="-55.4" font-family="Arial" font-size="14.00" fill="#666666">[timestamp with time zone]</text>
</g>
<!-- public.projects&#45;&gt;public.users -->
<g id="edge12" class="edge">
<title>public.projects:owner_id&#45;&gt;public.users:id</title>
<path fill="none" stroke="black" d="M2466.83,-431.54C2581.39,-416.5 2577.95,-151 2456.51,-151"/>
<polygon fill="black" stroke="black" points="2466.82,-431.54 2456.56,-427.69 2461.5,-431.88 2457.18,-432.16 2457.18,-432.16 2457.18,-432.16 2461.5,-431.88 2457.13,-436.67 2466.82,-431.54"/>
</g>
<!-- public.audit_logs -->
<g id="node3" class="node">
<title>public.audit_logs</title>
<polygon fill="#efefef" stroke="none" points="478.18,-1036.8 478.18,-1072.4 741.16,-1072.4 741.16,-1036.8 478.18,-1036.8"/>
<polygon fill="none" stroke="black" points="478.18,-1036.8 478.18,-1072.4 741.16,-1072.4 741.16,-1036.8 478.18,-1036.8"/>
<text text-anchor="start" x="485.18" y="-1050.2" font-family="Arial Bold" font-size="18.00">public.audit_logs</text>
<text text-anchor="start" x="609.67" y="-1050.2" font-family="Arial" font-size="14.00">    </text>
<text text-anchor="start" x="640.79" y="-1050.2" font-family="Arial" font-size="14.00" fill="#666666">[BASE TABLE]</text>
<polygon fill="none" stroke="black" points="478.18,-1006 478.18,-1036.8 741.16,-1036.8 741.16,-1006 478.18,-1006"/>
<text text-anchor="start" x="485.18" y="-1018.2" font-family="Arial" font-size="14.00">action </text>
<text text-anchor="start" x="526.43" y="-1018.2" font-family="Arial" font-size="14.00" fill="#666666">[text]</text>
<polygon fill="none" stroke="black" points="478.18,-975.2 478.18,-1006 741.16,-1006 741.16,-975.2 478.18,-975.2"/>
<text text-anchor="start" x="485.18" y="-987.4" font-family="Arial" font-size="14.00">changes </text>
<text text-anchor="start" x="542" y="-987.4" font-family="Arial" font-size="14.00" fill="#666666">[jsonb]</text>
<polygon fill="none" stroke="black" points="478.18,-944.4 478.18,-975.2 741.16,-975.2 741.16,-944.4 478.18,-944.4"/>
<text text-anchor="start" x="485.18" y="-956.6" font-family="Arial" font-size="14.00">created_at </text>
<text text-anchor="start" x="555.23" y="-956.6" font-family="Arial" font-size="14.00" fill="#666666">[timestamp with time zone]</text>
<polygon fill="none" stroke="black" points="478.18,-913.6 478.18,-944.4 741.16,-944.4 741.16,-913.6 478.18,-913.6"/>
<text text-anchor="start" x="485.18" y="-925.8" font-family="Arial" font-size="14.00">id </text>
<text text-anchor="start" x="499.97" y="-925.8" font-family="Arial" font-size="14.00" fill="#666666">[uuid]</text>
<polygon fill="none" stroke="black" points="478.18,-882.8 478.18,-913.6 741.16,-913.6 741.16,-882.8 478.18,-882.8"/>
<text text-anchor="start" x="485.18" y="-895" font-family="Arial" font-size="14.00">ip_address </text>
<text text-anchor="start" x="557.56" y="-895" font-family="Arial" font-size="14.00" fill="#666666">[varchar(45)]</text>
<polygon fill="none" stroke="black" points="478.18,-852 478.18,-882.8 741.16,-882.8 741.16,-852 478.18,-852"/>
<text text-anchor="start" x="485.18" y="-864.2" font-family="Arial" font-size="14.00">project_id </text>
<text text-anchor="start" x="549.77" y="-864.2" font-family="Arial" font-size="14.00" fill="#666666">[uuid]</text>
<polygon fill="none" stroke="black" points="478.18,-821.2 478.18,-852 741.16,-852 741.16,-821.2 478.18,-821.2"/>
<text text-anchor="start" x="485.18" y="-833.4" font-family="Arial" font-size="14.00">record_id </text>
<text text-anchor="start" x="547.44" y="-833.4" font-family="Arial" font-size="14.00" fill="#666666">[uuid]</text>
<polygon fill="none" stroke="black" points="478.18,-790.4 478.18,-821.2 741.16,-821.2 741.16,-790.4 478.18,-790.4"/>
<text text-anchor="start" x="485.18" y="-802.6" font-family="Arial" font-size="14.00">target_table </text>
<text text-anchor="start" x="563.02" y="-802.6" font-family="Arial" font-size="14.00" fill="#666666">[text]</text>
<polygon fill="none" stroke="black" points="478.18,-759.6 478.18,-790.4 741.16,-790.4 741.16,-759.6 478.18,-759.6"/>
<text text-anchor="start" x="485.18" y="-771.8" font-family="Arial" font-size="14.00">user_id </text>
<text text-anchor="start" x="534.99" y="-771.8" font-family="Arial" font-size="14.00" fill="#666666">[uuid]</text>
</g>
<!-- public.audit_logs&#45;&gt;public.projects -->
<g id="edge2" class="edge">
<title>public.audit_logs:project_id&#45;&gt;public.projects:id</title>
<path fill="none" stroke="black" d="M752.57,-866.74C830.25,-855.95 722.86,-716.74 792.67,-654.8 910.47,-550.29 2043.35,-493.8 2200.83,-493.8"/>
<polygon fill="black" stroke="black" points="752.47,-866.74 742.21,-862.89 747.15,-867.08 742.83,-867.36 742.83,-867.36 742.83,-867.36 747.15,-867.08 742.78,-871.87 752.47,-866.74"/>
</g>
<!-- public.project_datasources -->
<g id="node4" class="node">
<title>public.project_datasources</title>
<polygon fill="#efefef" stroke="none" points="845.21,-1006 845.21,-1041.6 1176.13,-1041.6 1176.13,-1006 845.21,-1006"/>
<polygon fill="none" stroke="black" points="845.21,-1006 845.21,-1041.6 1176.13,-1041.6 1176.13,-1006 845.21,-1006"/>
<text text-anchor="start" x="852.21" y="-1019.4" font-family="Arial Bold" font-size="18.00">public.project_datasources</text>
<text text-anchor="start" x="1044.64" y="-1019.4" font-family="Arial" font-size="14.00">    </text>
<text text-anchor="start" x="1075.76" y="-1019.4" font-family="Arial" font-size="14.00" fill="#666666">[BASE TABLE]</text>
<polygon fill="none" stroke="black" points="845.21,-975.2 845.21,-1006 1176.13,-1006 1176.13,-975.2 845.21,-975.2"/>
<text text-anchor="start" x="852.21" y="-987.4" font-family="Arial" font-size="14.00">config </text>
<text text-anchor="start" x="893.46" y="-987.4" font-family="Arial" font-size="14.00" fill="#666666">[jsonb]</text>
<polygon fill="none" stroke="black" points="845.21,-944.4 845.21,-975.2 1176.13,-975.2 1176.13,-944.4 845.21,-944.4"/>
<text text-anchor="start" x="852.21" y="-956.6" font-family="Arial" font-size="14.00">created_at </text>
<text text-anchor="start" x="922.26" y="-956.6" font-family="Arial" font-size="14.00" fill="#666666">[timestamp with time zone]</text>
<polygon fill="none" stroke="black" points="845.21,-913.6 845.21,-944.4 1176.13,-944.4 1176.13,-913.6 845.21,-913.6"/>
<text text-anchor="start" x="852.21" y="-925.8" font-family="Arial" font-size="14.00">id </text>
<text text-anchor="start" x="867" y="-925.8" font-family="Arial" font-size="14.00" fill="#666666">[uuid]</text>
<polygon fill="none" stroke="black" points="845.21,-882.8 845.21,-913.6 1176.13,-913.6 1176.13,-882.8 845.21,-882.8"/>
<text text-anchor="start" x="852.21" y="-895" font-family="Arial" font-size="14.00">name </text>
<text text-anchor="start" x="891.12" y="-895" font-family="Arial" font-size="14.00" fill="#666666">[varchar(100)]</text>
<polygon fill="none" stroke="black" points="845.21,-852 845.21,-882.8 1176.13,-882.8 1176.13,-852 845.21,-852"/>
<text text-anchor="start" x="852.21" y="-864.2" font-family="Arial" font-size="14.00">project_id </text>
<text text-anchor="start" x="916.8" y="-864.2" font-family="Arial" font-size="14.00" fill="#666666">[uuid]</text>
<polygon fill="none" stroke="black" points="845.21,-821.2 845.21,-852 1176.13,-852 1176.13,-821.2 845.21,-821.2"/>
<text text-anchor="start" x="852.21" y="-833.4" font-family="Arial" font-size="14.00">type </text>
<text text-anchor="start" x="882.56" y="-833.4" font-family="Arial" font-size="14.00" fill="#666666">[text]</text>
<polygon fill="none" stroke="black" points="845.21,-790.4 845.21,-821.2 1176.13,-821.2 1176.13,-790.4 845.21,-790.4"/>
<text text-anchor="start" x="852.21" y="-802.6" font-family="Arial" font-size="14.00">updated_at </text>
<text text-anchor="start" x="926.17" y="-802.6" font-family="Arial" font-size="14.00" fill="#666666">[timestamp with time zone]</text>
</g>
<!-- public.project_datasources&#45;&gt;public.projects -->
<g id="edge3" class="edge">
<title>public.project_datasources:project_id&#45;&gt;public.projects:id</title>
<path fill="none" stroke="black" d="M1187.07,-866.81C1265.78,-856.65 1159.29,-718.59 1227.67,-654.8 1387.95,-505.28 1981.63,-493.8 2200.83,-493.8"/>
<polygon fill="black" stroke="black" points="1187.44,-866.78 1177.19,-862.89 1182.12,-867.1 1177.8,-867.36 1177.8,-867.36 1177.8,-867.36 1182.12,-867.1 1177.73,-871.87 1187.44,-866.78"/>
</g>
<!-- public.project_deployments -->
<g id="node5" class="node">
<title>public.project_deployments</title>
<polygon fill="#efefef" stroke="none" points="1280.2,-944.4 1280.2,-980 1619.14,-980 1619.14,-944.4 1280.2,-944.4"/>
<polygon fill="none" stroke="black" points="1280.2,-944.4 1280.2,-980 1619.14,-980 1619.14,-944.4 1280.2,-944.4"/>
<text text-anchor="start" x="1287.2" y="-957.8" font-family="Arial Bold" font-size="18.00">public.project_deployments</text>
<text text-anchor="start" x="1487.65" y="-957.8" font-family="Arial" font-size="14.00">    </text>
<text text-anchor="start" x="1518.77" y="-957.8" font-family="Arial" font-size="14.00" fill="#666666">[BASE TABLE]</text>
<polygon fill="none" stroke="black" points="1280.2,-913.6 1280.2,-944.4 1619.14,-944.4 1619.14,-913.6 1280.2,-913.6"/>
<text text-anchor="start" x="1287.2" y="-925.8" font-family="Arial" font-size="14.00">active_version_id </text>
<text text-anchor="start" x="1399.26" y="-925.8" font-family="Arial" font-size="14.00" fill="#666666">[uuid]</text>
<polygon fill="none" stroke="black" points="1280.2,-882.8 1280.2,-913.6 1619.14,-913.6 1619.14,-882.8 1280.2,-882.8"/>
<text text-anchor="start" x="1287.2" y="-895" font-family="Arial" font-size="14.00">project_id </text>
<text text-anchor="start" x="1351.79" y="-895" font-family="Arial" font-size="14.00" fill="#666666">[uuid]</text>
<polygon fill="none" stroke="black" points="1280.2,-852 1280.2,-882.8 1619.14,-882.8 1619.14,-852 1280.2,-852"/>
<text text-anchor="start" x="1287.2" y="-864.2" font-family="Arial" font-size="14.00">updated_at </text>
<text text-anchor="start" x="1361.16" y="-864.2" font-family="Arial" font-size="14.00" fill="#666666">[timestamp with time zone]</text>
</g>
<!-- public.project_deployments&#45;&gt;public.projects -->
<g id="edge4" class="edge">
<title>public.project_deployments:project_id&#45;&gt;public.projects:id</title>
<path fill="none" stroke="black" d="M1630.35,-897.67C1721.93,-887.54 1598.62,-733.66 1670.67,-654.8 1753.72,-563.9 2077.7,-493.8 2200.83,-493.8"/>
<polygon fill="black" stroke="black" points="1630.46,-897.67 1620.24,-893.69 1625.13,-897.94 1620.81,-898.17 1620.81,-898.17 1620.81,-898.17 1625.13,-897.94 1620.71,-902.68 1630.46,-897.67"/>
</g>
<!-- public.project_environments -->
<g id="node6" class="node">
<title>public.project_environments</title>
<polygon fill="#efefef" stroke="none" points="1723.2,-1006 1723.2,-1041.6 2068.14,-1041.6 2068.14,-1006 1723.2,-1006"/>
<polygon fill="none" stroke="black" points="1723.2,-1006 1723.2,-1041.6 2068.14,-1041.6 2068.14,-1006 1723.2,-1006"/>
<text text-anchor="start" x="1730.2" y="-1019.4" font-family="Arial Bold" font-size="18.00">public.project_environments</text>
<text text-anchor="start" x="1936.65" y="-1019.4" font-family="Arial" font-size="14.00">    </text>
<text text-anchor="start" x="1967.77" y="-1019.4" font-family="Arial" font-size="14.00" fill="#666666">[BASE TABLE]</text>
<polygon fill="none" stroke="black" points="1723.2,-975.2 1723.2,-1006 2068.14,-1006 2068.14,-975.2 1723.2,-975.2"/>
<text text-anchor="start" x="1730.2" y="-987.4" font-family="Arial" font-size="14.00">created_at </text>
<text text-anchor="start" x="1800.25" y="-987.4" font-family="Arial" font-size="14.00" fill="#666666">[timestamp with time zone]</text>
<polygon fill="none" stroke="black" points="1723.2,-944.4 1723.2,-975.2 2068.14,-975.2 2068.14,-944.4 1723.2,-944.4"/>
<text text-anchor="start" x="1730.2" y="-956.6" font-family="Arial" font-size="14.00">id </text>
<text text-anchor="start" x="1744.99" y="-956.6" font-family="Arial" font-size="14.00" fill="#666666">[uuid]</text>
<polygon fill="none" stroke="black" points="1723.2,-913.6 1723.2,-944.4 2068.14,-944.4 2068.14,-913.6 1723.2,-913.6"/>
<text text-anchor="start" x="1730.2" y="-925.8" font-family="Arial" font-size="14.00">is_secret </text>
<text text-anchor="start" x="1790.11" y="-925.8" font-family="Arial" font-size="14.00" fill="#666666">[boolean]</text>
<polygon fill="none" stroke="black" points="1723.2,-882.8 1723.2,-913.6 2068.14,-913.6 2068.14,-882.8 1723.2,-882.8"/>
<text text-anchor="start" x="1730.2" y="-895" font-family="Arial" font-size="14.00">key </text>
<text text-anchor="start" x="1755.88" y="-895" font-family="Arial" font-size="14.00" fill="#666666">[varchar(255)]</text>
<polygon fill="none" stroke="black" points="1723.2,-852 1723.2,-882.8 2068.14,-882.8 2068.14,-852 1723.2,-852"/>
<text text-anchor="start" x="1730.2" y="-864.2" font-family="Arial" font-size="14.00">project_id </text>
<text text-anchor="start" x="1794.8" y="-864.2" font-family="Arial" font-size="14.00" fill="#666666">[uuid]</text>
<polygon fill="none" stroke="black" points="1723.2,-821.2 1723.2,-852 2068.14,-852 2068.14,-821.2 1723.2,-821.2"/>
<text text-anchor="start" x="1730.2" y="-833.4" font-family="Arial" font-size="14.00">updated_at </text>
<text text-anchor="start" x="1804.16" y="-833.4" font-family="Arial" font-size="14.00" fill="#666666">[timestamp with time zone]</text>
<polygon fill="none" stroke="black" points="1723.2,-790.4 1723.2,-821.2 2068.14,-821.2 2068.14,-790.4 1723.2,-790.4"/>
<text text-anchor="start" x="1730.2" y="-802.6" font-family="Arial" font-size="14.00">value </text>
<text text-anchor="start" x="1767.56" y="-802.6" font-family="Arial" font-size="14.00" fill="#666666">[text]</text>
</g>
<!-- public.project_environments&#45;&gt;public.projects -->
<g id="edge5" class="edge">
<title>public.project_environments:project_id&#45;&gt;public.projects:id</title>
<path fill="none" stroke="black" d="M2079.23,-866.91C2160.48,-858.43 2087.59,-742.64 2119.67,-654.8 2147.16,-579.53 2120.7,-493.8 2200.83,-493.8"/>
<polygon fill="black" stroke="black" points="2079.46,-866.9 2069.25,-862.89 2074.13,-867.16 2069.81,-867.37 2069.81,-867.37 2069.81,-867.37 2074.13,-867.16 2069.69,-871.88 2079.46,-866.9"/>
</g>
<!-- public.project_members -->
<g id="node7" class="node">
<title>public.project_members</title>
<polygon fill="#efefef" stroke="none" points="2172.2,-959.8 2172.2,-995.4 2485.14,-995.4 2485.14,-959.8 2172.2,-959.8"/>
<polygon fill="none" stroke="black" points="2172.2,-959.8 2172.2,-995.4 2485.14,-995.4 2485.14,-959.8 2172.2,-959.8"/>
<text text-anchor="start" x="2179.2" y="-973.2" font-family="Arial Bold" font-size="18.00">public.project_members</text>
<text text-anchor="start" x="2353.65" y="-973.2" font-family="Arial" font-size="14.00">    </text>
<text text-anchor="start" x="2384.77" y="-973.2" font-family="Arial" font-size="14.00" fill="#666666">[BASE TABLE]</text>
<polygon fill="none" stroke="black" points="2172.2,-929 2172.2,-959.8 2485.14,-959.8 2485.14,-929 2172.2,-929"/>
<text text-anchor="start" x="2179.2" y="-941.2" font-family="Arial" font-size="14.00">created_at </text>
<text text-anchor="start" x="2249.25" y="-941.2" font-family="Arial" font-size="14.00" fill="#666666">[timestamp with time zone]</text>
<polygon fill="none" stroke="black" points="2172.2,-898.2 2172.2,-929 2485.14,-929 2485.14,-898.2 2172.2,-898.2"/>
<text text-anchor="start" x="2179.2" y="-910.4" font-family="Arial" font-size="14.00">project_id </text>
<text text-anchor="start" x="2243.8" y="-910.4" font-family="Arial" font-size="14.00" fill="#666666">[uuid]</text>
<polygon fill="none" stroke="black" points="2172.2,-867.4 2172.2,-898.2 2485.14,-898.2 2485.14,-867.4 2172.2,-867.4"/>
<text text-anchor="start" x="2179.2" y="-879.6" font-family="Arial" font-size="14.00">role </text>
<text text-anchor="start" x="2206.44" y="-879.6" font-family="Arial" font-size="14.00" fill="#666666">[text]</text>
<polygon fill="none" stroke="black" points="2172.2,-836.6 2172.2,-867.4 2485.14,-867.4 2485.14,-836.6 2172.2,-836.6"/>
<text text-anchor="start" x="2179.2" y="-848.8" font-family="Arial" font-size="14.00">user_id </text>
<text text-anchor="start" x="2229.01" y="-848.8" font-family="Arial" font-size="14.00" fill="#666666">[uuid]</text>
</g>
<!-- public.project_members&#45;&gt;public.projects -->
<g id="edge6" class="edge">
<title>public.project_members:project_id&#45;&gt;public.projects:id</title>
<path fill="none" stroke="black" d="M2494.68,-907.98C2528.77,-858.17 2500.07,-493.8 2456.51,-493.8"/>
<polygon fill="black" stroke="black" points="2494.77,-907.92 2483.94,-909.66 2490.31,-910.85 2486.7,-913.23 2486.7,-913.23 2486.7,-913.23 2490.31,-910.85 2488.89,-917.18 2494.77,-907.92"/>
</g>
<!-- public.project_schemas -->
<g id="node8" class="node">
<title>public.project_schemas</title>
<polygon fill="#efefef" stroke="none" points="2589.7,-990.6 2589.7,-1026.2 2897.64,-1026.2 2897.64,-990.6 2589.7,-990.6"/>
<polygon fill="none" stroke="black" points="2589.7,-990.6 2589.7,-1026.2 2897.64,-1026.2 2897.64,-990.6 2589.7,-990.6"/>
<text text-anchor="start" x="2596.7" y="-1004" font-family="Arial Bold" font-size="18.00">public.project_schemas</text>
<text text-anchor="start" x="2766.15" y="-1004" font-family="Arial" font-size="14.00">    </text>
<text text-anchor="start" x="2797.26" y="-1004" font-family="Arial" font-size="14.00" fill="#666666">[BASE TABLE]</text>
<polygon fill="none" stroke="black" points="2589.7,-959.8 2589.7,-990.6 2897.64,-990.6 2897.64,-959.8 2589.7,-959.8"/>
<text text-anchor="start" x="2596.7" y="-972" font-family="Arial" font-size="14.00">created_at </text>
<text text-anchor="start" x="2666.75" y="-972" font-family="Arial" font-size="14.00" fill="#666666">[timestamp with time zone]</text>
<polygon fill="none" stroke="black" points="2589.7,-929 2589.7,-959.8 2897.64,-959.8 2897.64,-929 2589.7,-929"/>
<text text-anchor="start" x="2596.7" y="-941.2" font-family="Arial" font-size="14.00">id </text>
<text text-anchor="start" x="2611.49" y="-941.2" font-family="Arial" font-size="14.00" fill="#666666">[uuid]</text>
<polygon fill="none" stroke="black" points="2589.7,-898.2 2589.7,-929 2897.64,-929 2897.64,-898.2 2589.7,-898.2"/>
<text text-anchor="start" x="2596.7" y="-910.4" font-family="Arial" font-size="14.00">project_id </text>
<text text-anchor="start" x="2661.3" y="-910.4" font-family="Arial" font-size="14.00" fill="#666666">[uuid]</text>
<polygon fill="none" stroke="black" points="2589.7,-867.4 2589.7,-898.2 2897.64,-898.2 2897.64,-867.4 2589.7,-867.4"/>
<text text-anchor="start" x="2596.7" y="-879.6" font-family="Arial" font-size="14.00">schema_definition </text>
<text text-anchor="start" x="2713.44" y="-879.6" font-family="Arial" font-size="14.00" fill="#666666">[jsonb]</text>
<polygon fill="none" stroke="black" points="2589.7,-836.6 2589.7,-867.4 2897.64,-867.4 2897.64,-836.6 2589.7,-836.6"/>
<text text-anchor="start" x="2596.7" y="-848.8" font-family="Arial" font-size="14.00">table_name </text>
<text text-anchor="start" x="2673.76" y="-848.8" font-family="Arial" font-size="14.00" fill="#666666">[varchar(64)]</text>
<polygon fill="none" stroke="black" points="2589.7,-805.8 2589.7,-836.6 2897.64,-836.6 2897.64,-805.8 2589.7,-805.8"/>
<text text-anchor="start" x="2596.7" y="-818" font-family="Arial" font-size="14.00">updated_at </text>
<text text-anchor="start" x="2670.66" y="-818" font-family="Arial" font-size="14.00" fill="#666666">[timestamp with time zone]</text>
</g>
<!-- public.project_schemas&#45;&gt;public.projects -->
<g id="edge7" class="edge">
<title>public.project_schemas:project_id&#45;&gt;public.projects:id</title>
<path fill="none" stroke="black" d="M2578.68,-911.3C2533.23,-888.76 2555.52,-706.78 2537.67,-654.8 2511.64,-579.01 2536.64,-493.8 2456.51,-493.8"/>
<polygon fill="black" stroke="black" points="2578.63,-911.29 2587.37,-917.91 2583.83,-912.48 2588.05,-913.45 2588.05,-913.45 2588.05,-913.45 2583.83,-912.48 2589.38,-909.14 2578.63,-911.29"/>
</g>
<!-- public.project_versions -->
<g id="node9" class="node">
<title>public.project_versions</title>
<polygon fill="#efefef" stroke="none" points="3002.2,-1021.4 3002.2,-1057 3309.14,-1057 3309.14,-1021.4 3002.2,-1021.4"/>
<polygon fill="none" stroke="black" points="3002.2,-1021.4 3002.2,-1057 3309.14,-1057 3309.14,-1021.4 3002.2,-1021.4"/>
<text text-anchor="start" x="3009.2" y="-1034.8" font-family="Arial Bold" font-size="18.00">public.project_versions</text>
<text text-anchor="start" x="3177.66" y="-1034.8" font-family="Arial" font-size="14.00">    </text>
<text text-anchor="start" x="3208.77" y="-1034.8" font-family="Arial" font-size="14.00" fill="#666666">[BASE TABLE]</text>
<polygon fill="none" stroke="black" points="3002.2,-990.6 3002.2,-1021.4 3309.14,-1021.4 3309.14,-990.6 3002.2,-990.6"/>
<text text-anchor="start" x="3009.2" y="-1002.8" font-family="Arial" font-size="14.00">created_at </text>
<text text-anchor="start" x="3079.24" y="-1002.8" font-family="Arial" font-size="14.00" fill="#666666">[timestamp with time zone]</text>
<polygon fill="none" stroke="black" points="3002.2,-959.8 3002.2,-990.6 3309.14,-990.6 3309.14,-959.8 3002.2,-959.8"/>
<text text-anchor="start" x="3009.2" y="-972" font-family="Arial" font-size="14.00">created_by </text>
<text text-anchor="start" x="3082.35" y="-972" font-family="Arial" font-size="14.00" fill="#666666">[uuid]</text>
<polygon fill="none" stroke="black" points="3002.2,-929 3002.2,-959.8 3309.14,-959.8 3309.14,-929 3002.2,-929"/>
<text text-anchor="start" x="3009.2" y="-941.2" font-family="Arial" font-size="14.00">description </text>
<text text-anchor="start" x="3080.79" y="-941.2" font-family="Arial" font-size="14.00" fill="#666666">[text]</text>
<polygon fill="none" stroke="black" points="3002.2,-898.2 3002.2,-929 3309.14,-929 3309.14,-898.2 3002.2,-898.2"/>
<text text-anchor="start" x="3009.2" y="-910.4" font-family="Arial" font-size="14.00">id </text>
<text text-anchor="start" x="3023.98" y="-910.4" font-family="Arial" font-size="14.00" fill="#666666">[uuid]</text>
<polygon fill="none" stroke="black" points="3002.2,-867.4 3002.2,-898.2 3309.14,-898.2 3309.14,-867.4 3002.2,-867.4"/>
<text text-anchor="start" x="3009.2" y="-879.6" font-family="Arial" font-size="14.00">name </text>
<text text-anchor="start" x="3048.11" y="-879.6" font-family="Arial" font-size="14.00" fill="#666666">[varchar(100)]</text>
<polygon fill="none" stroke="black" points="3002.2,-836.6 3002.2,-867.4 3309.14,-867.4 3309.14,-836.6 3002.2,-836.6"/>
<text text-anchor="start" x="3009.2" y="-848.8" font-family="Arial" font-size="14.00">project_id </text>
<text text-anchor="start" x="3073.79" y="-848.8" font-family="Arial" font-size="14.00" fill="#666666">[uuid]</text>
<polygon fill="none" stroke="black" points="3002.2,-805.8 3002.2,-836.6 3309.14,-836.6 3309.14,-805.8 3002.2,-805.8"/>
<text text-anchor="start" x="3009.2" y="-818" font-family="Arial" font-size="14.00">snapshot </text>
<text text-anchor="start" x="3069.91" y="-818" font-family="Arial" font-size="14.00" fill="#666666">[jsonb]</text>
<polygon fill="none" stroke="black" points="3002.2,-775 3002.2,-805.8 3309.14,-805.8 3309.14,-775 3002.2,-775"/>
<text text-anchor="start" x="3009.2" y="-787.2" font-family="Arial" font-size="14.00">version_number </text>
<text text-anchor="start" x="3113.47" y="-787.2" font-family="Arial" font-size="14.00" fill="#666666">[integer]</text>
</g>
<!-- public.project_versions&#45;&gt;public.projects -->
<g id="edge8" class="edge">
<title>public.project_versions:project_id&#45;&gt;public.projects:id</title>
<path fill="none" stroke="black" d="M2990.99,-851.35C2918.63,-841.34 3009.23,-718.04 2949.67,-654.8 2870.63,-570.87 2571.79,-493.8 2456.51,-493.8"/>
<polygon fill="black" stroke="black" points="2990.88,-851.34 3000.58,-856.47 2996.21,-851.68 3000.53,-851.96 3000.53,-851.96 3000.53,-851.96 2996.21,-851.68 3001.15,-847.49 2990.88,-851.34"/>
</g>
<!-- public.runtime_users -->
<g id="node10" class="node">
<title>public.runtime_users</title>
<polygon fill="#efefef" stroke="none" points="3413.69,-1021.4 3413.69,-1057 3703.65,-1057 3703.65,-1021.4 3413.69,-1021.4"/>
<polygon fill="none" stroke="black" points="3413.69,-1021.4 3413.69,-1057 3703.65,-1057 3703.65,-1021.4 3413.69,-1021.4"/>
<text text-anchor="start" x="3420.69" y="-1034.8" font-family="Arial Bold" font-size="18.00">public.runtime_users</text>
<text text-anchor="start" x="3572.16" y="-1034.8" font-family="Arial" font-size="14.00">    </text>
<text text-anchor="start" x="3603.28" y="-1034.8" font-family="Arial" font-size="14.00" fill="#666666">[BASE TABLE]</text>
<polygon fill="none" stroke="black" points="3413.69,-990.6 3413.69,-1021.4 3703.65,-1021.4 3703.65,-990.6 3413.69,-990.6"/>
<text text-anchor="start" x="3420.69" y="-1002.8" font-family="Arial" font-size="14.00">created_at </text>
<text text-anchor="start" x="3490.74" y="-1002.8" font-family="Arial" font-size="14.00" fill="#666666">[timestamp with time zone]</text>
<polygon fill="none" stroke="black" points="3413.69,-959.8 3413.69,-990.6 3703.65,-990.6 3703.65,-959.8 3413.69,-959.8"/>
<text text-anchor="start" x="3420.69" y="-972" font-family="Arial" font-size="14.00">email </text>
<text text-anchor="start" x="3458.03" y="-972" font-family="Arial" font-size="14.00" fill="#666666">[varchar(255)]</text>
<polygon fill="none" stroke="black" points="3413.69,-929 3413.69,-959.8 3703.65,-959.8 3703.65,-929 3413.69,-929"/>
<text text-anchor="start" x="3420.69" y="-941.2" font-family="Arial" font-size="14.00">id </text>
<text text-anchor="start" x="3435.48" y="-941.2" font-family="Arial" font-size="14.00" fill="#666666">[uuid]</text>
<polygon fill="none" stroke="black" points="3413.69,-898.2 3413.69,-929 3703.65,-929 3703.65,-898.2 3413.69,-898.2"/>
<text text-anchor="start" x="3420.69" y="-910.4" font-family="Arial" font-size="14.00">metadata </text>
<text text-anchor="start" x="3482.95" y="-910.4" font-family="Arial" font-size="14.00" fill="#666666">[jsonb]</text>
<polygon fill="none" stroke="black" points="3413.69,-867.4 3413.69,-898.2 3703.65,-898.2 3703.65,-867.4 3413.69,-867.4"/>
<text text-anchor="start" x="3420.69" y="-879.6" font-family="Arial" font-size="14.00">password_hash </text>
<text text-anchor="start" x="3522.64" y="-879.6" font-family="Arial" font-size="14.00" fill="#666666">[varchar(255)]</text>
<polygon fill="none" stroke="black" points="3413.69,-836.6 3413.69,-867.4 3703.65,-867.4 3703.65,-836.6 3413.69,-836.6"/>
<text text-anchor="start" x="3420.69" y="-848.8" font-family="Arial" font-size="14.00">project_id </text>
<text text-anchor="start" x="3485.28" y="-848.8" font-family="Arial" font-size="14.00" fill="#666666">[uuid]</text>
<polygon fill="none" stroke="black" points="3413.69,-805.8 3413.69,-836.6 3703.65,-836.6 3703.65,-805.8 3413.69,-805.8"/>
<text text-anchor="start" x="3420.69" y="-818" font-family="Arial" font-size="14.00">role </text>
<text text-anchor="start" x="3447.92" y="-818" font-family="Arial" font-size="14.00" fill="#666666">[varchar(50)]</text>
<polygon fill="none" stroke="black" points="3413.69,-775 3413.69,-805.8 3703.65,-805.8 3703.65,-775 3413.69,-775"/>
<text text-anchor="start" x="3420.69" y="-787.2" font-family="Arial" font-size="14.00">updated_at </text>
<text text-anchor="start" x="3494.65" y="-787.2" font-family="Arial" font-size="14.00" fill="#666666">[timestamp with time zone]</text>
</g>
<!-- public.runtime_users&#45;&gt;public.projects -->
<g id="edge9" class="edge">
<title>public.runtime_users:project_id&#45;&gt;public.projects:id</title>
<path fill="none" stroke="black" d="M3402.52,-851.33C3330.56,-840.99 3425.38,-713.78 3361.67,-654.8 3211.74,-516.01 2660.81,-493.8 2456.51,-493.8"/>
<polygon fill="black" stroke="black" points="3402.38,-851.32 3412.06,-856.47 3407.7,-851.67 3412.02,-851.96 3412.02,-851.96 3412.02,-851.96 3407.7,-851.67 3412.65,-847.49 3402.38,-851.32"/>
</g>
<!-- public.workflow_runs -->
<g id="node11" class="node">
<title>public.workflow_runs</title>
<polygon fill="#efefef" stroke="none" points="3807.69,-1098.4 3807.69,-1134 4105.65,-1134 4105.65,-1098.4 3807.69,-1098.4"/>
<polygon fill="none" stroke="black" points="3807.69,-1098.4 3807.69,-1134 4105.65,-1134 4105.65,-1098.4 3807.69,-1098.4"/>
<text text-anchor="start" x="3814.69" y="-1111.8" font-family="Arial Bold" font-size="18.00">public.workflow_runs</text>
<text text-anchor="start" x="3974.16" y="-1111.8" font-family="Arial" font-size="14.00">    </text>
<text text-anchor="start" x="4005.28" y="-1111.8" font-family="Arial" font-size="14.00" fill="#666666">[BASE TABLE]</text>
<polygon fill="none" stroke="black" points="3807.69,-1067.6 3807.69,-1098.4 4105.65,-1098.4 4105.65,-1067.6 3807.69,-1067.6"/>
<text text-anchor="start" x="3814.69" y="-1079.8" font-family="Arial" font-size="14.00">created_at </text>
<text text-anchor="start" x="3884.73" y="-1079.8" font-family="Arial" font-size="14.00" fill="#666666">[timestamp with time zone]</text>
<polygon fill="none" stroke="black" points="3807.69,-1036.8 3807.69,-1067.6 4105.65,-1067.6 4105.65,-1036.8 3807.69,-1036.8"/>
<text text-anchor="start" x="3814.69" y="-1049" font-family="Arial" font-size="14.00">created_by </text>
<text text-anchor="start" x="3887.85" y="-1049" font-family="Arial" font-size="14.00" fill="#666666">[uuid]</text>
<polygon fill="none" stroke="black" points="3807.69,-1006 3807.69,-1036.8 4105.65,-1036.8 4105.65,-1006 3807.69,-1006"/>
<text text-anchor="start" x="3814.69" y="-1018.2" font-family="Arial" font-size="14.00">error </text>
<text text-anchor="start" x="3848.14" y="-1018.2" font-family="Arial" font-size="14.00" fill="#666666">[jsonb]</text>
<polygon fill="none" stroke="black" points="3807.69,-975.2 3807.69,-1006 4105.65,-1006 4105.65,-975.2 3807.69,-975.2"/>
<text text-anchor="start" x="3814.69" y="-987.4" font-family="Arial" font-size="14.00">finished_at </text>
<text text-anchor="start" x="3886.29" y="-987.4" font-family="Arial" font-size="14.00" fill="#666666">[timestamp with time zone]</text>
<polygon fill="none" stroke="black" points="3807.69,-944.4 3807.69,-975.2 4105.65,-975.2 4105.65,-944.4 3807.69,-944.4"/>
<text text-anchor="start" x="3814.69" y="-956.6" font-family="Arial" font-size="14.00">id </text>
<text text-anchor="start" x="3829.47" y="-956.6" font-family="Arial" font-size="14.00" fill="#666666">[uuid]</text>
<polygon fill="none" stroke="black" points="3807.69,-913.6 3807.69,-944.4 4105.65,-944.4 4105.65,-913.6 3807.69,-913.6"/>
<text text-anchor="start" x="3814.69" y="-925.8" font-family="Arial" font-size="14.00">input </text>
<text text-anchor="start" x="3848.93" y="-925.8" font-family="Arial" font-size="14.00" fill="#666666">[jsonb]</text>
<polygon fill="none" stroke="black" points="3807.69,-882.8 3807.69,-913.6 4105.65,-913.6 4105.65,-882.8 3807.69,-882.8"/>
<text text-anchor="start" x="3814.69" y="-895" font-family="Arial" font-size="14.00">output </text>
<text text-anchor="start" x="3857.5" y="-895" font-family="Arial" font-size="14.00" fill="#666666">[jsonb]</text>
<polygon fill="none" stroke="black" points="3807.69,-852 3807.69,-882.8 4105.65,-882.8 4105.65,-852 3807.69,-852"/>
<text text-anchor="start" x="3814.69" y="-864.2" font-family="Arial" font-size="14.00">project_id </text>
<text text-anchor="start" x="3879.28" y="-864.2" font-family="Arial" font-size="14.00" fill="#666666">[uuid]</text>
<polygon fill="none" stroke="black" points="3807.69,-821.2 3807.69,-852 4105.65,-852 4105.65,-821.2 3807.69,-821.2"/>
<text text-anchor="start" x="3814.69" y="-833.4" font-family="Arial" font-size="14.00">started_at </text>
<text text-anchor="start" x="3880.84" y="-833.4" font-family="Arial" font-size="14.00" fill="#666666">[timestamp with time zone]</text>
<polygon fill="none" stroke="black" points="3807.69,-790.4 3807.69,-821.2 4105.65,-821.2 4105.65,-790.4 3807.69,-790.4"/>
<text text-anchor="start" x="3814.69" y="-802.6" font-family="Arial" font-size="14.00">status </text>
<text text-anchor="start" x="3855.93" y="-802.6" font-family="Arial" font-size="14.00" fill="#666666">[text]</text>
<polygon fill="none" stroke="black" points="3807.69,-759.6 3807.69,-790.4 4105.65,-790.4 4105.65,-759.6 3807.69,-759.6"/>
<text text-anchor="start" x="3814.69" y="-771.8" font-family="Arial" font-size="14.00">trigger_context </text>
<text text-anchor="start" x="3911.18" y="-771.8" font-family="Arial" font-size="14.00" fill="#666666">[jsonb]</text>
<polygon fill="none" stroke="black" points="3807.69,-728.8 3807.69,-759.6 4105.65,-759.6 4105.65,-728.8 3807.69,-728.8"/>
<text text-anchor="start" x="3814.69" y="-741" font-family="Arial" font-size="14.00">trigger_type </text>
<text text-anchor="start" x="3892.51" y="-741" font-family="Arial" font-size="14.00" fill="#666666">[text]</text>
<polygon fill="none" stroke="black" points="3807.69,-698 3807.69,-728.8 4105.65,-728.8 4105.65,-698 3807.69,-698"/>
<text text-anchor="start" x="3814.69" y="-710.2" font-family="Arial" font-size="14.00">workflow_id </text>
<text text-anchor="start" x="3891.71" y="-710.2" font-family="Arial" font-size="14.00" fill="#666666">[uuid]</text>
</g>
<!-- public.workflow_runs&#45;&gt;public.projects -->
<g id="edge10" class="edge">
<title>public.workflow_runs:project_id&#45;&gt;public.projects:id</title>
<path fill="none" stroke="black" d="M3796.74,-866.8C3718.06,-856.54 3825.44,-717.15 3755.67,-654.8 3647.21,-557.88 2601.97,-493.8 2456.51,-493.8"/>
<polygon fill="black" stroke="black" points="3796.37,-866.78 3806.08,-871.87 3801.7,-867.1 3806.02,-867.36 3806.02,-867.36 3806.02,-867.36 3801.7,-867.1 3806.62,-862.89 3796.37,-866.78"/>
</g>
<!-- public.workflows -->
<g id="node12" class="node">
<title>public.workflows</title>
<polygon fill="#efefef" stroke="none" points="4210.18,-1021.4 4210.18,-1057 4475.16,-1057 4475.16,-1021.4 4210.18,-1021.4"/>
<polygon fill="none" stroke="black" points="4210.18,-1021.4 4210.18,-1057 4475.16,-1057 4475.16,-1021.4 4210.18,-1021.4"/>
<text text-anchor="start" x="4217.18" y="-1034.8" font-family="Arial Bold" font-size="18.00">public.workflows</text>
<text text-anchor="start" x="4343.67" y="-1034.8" font-family="Arial" font-size="14.00">    </text>
<text text-anchor="start" x="4374.78" y="-1034.8" font-family="Arial" font-size="14.00" fill="#666666">[BASE TABLE]</text>
<polygon fill="none" stroke="black" points="4210.18,-990.6 4210.18,-1021.4 4475.16,-1021.4 4475.16,-990.6 4210.18,-990.6"/>
<text text-anchor="start" x="4217.18" y="-1002.8" font-family="Arial" font-size="14.00">created_at </text>
<text text-anchor="start" x="4287.23" y="-1002.8" font-family="Arial" font-size="14.00" fill="#666666">[timestamp with time zone]</text>
<polygon fill="none" stroke="black" points="4210.18,-959.8 4210.18,-990.6 4475.16,-990.6 4475.16,-959.8 4210.18,-959.8"/>
<text text-anchor="start" x="4217.18" y="-972" font-family="Arial" font-size="14.00">edges </text>
<text text-anchor="start" x="4259.22" y="-972" font-family="Arial" font-size="14.00" fill="#666666">[jsonb]</text>
<polygon fill="none" stroke="black" points="4210.18,-929 4210.18,-959.8 4475.16,-959.8 4475.16,-929 4210.18,-929"/>
<text text-anchor="start" x="4217.18" y="-941.2" font-family="Arial" font-size="14.00">id </text>
<text text-anchor="start" x="4231.97" y="-941.2" font-family="Arial" font-size="14.00" fill="#666666">[uuid]</text>
<polygon fill="none" stroke="black" points="4210.18,-898.2 4210.18,-929 4475.16,-929 4475.16,-898.2 4210.18,-898.2"/>
<text text-anchor="start" x="4217.18" y="-910.4" font-family="Arial" font-size="14.00">is_active </text>
<text text-anchor="start" x="4275.54" y="-910.4" font-family="Arial" font-size="14.00" fill="#666666">[boolean]</text>
<polygon fill="none" stroke="black" points="4210.18,-867.4 4210.18,-898.2 4475.16,-898.2 4475.16,-867.4 4210.18,-867.4"/>
<text text-anchor="start" x="4217.18" y="-879.6" font-family="Arial" font-size="14.00">name </text>
<text text-anchor="start" x="4256.09" y="-879.6" font-family="Arial" font-size="14.00" fill="#666666">[varchar(100)]</text>
<polygon fill="none" stroke="black" points="4210.18,-836.6 4210.18,-867.4 4475.16,-867.4 4475.16,-836.6 4210.18,-836.6"/>
<text text-anchor="start" x="4217.18" y="-848.8" font-family="Arial" font-size="14.00">nodes </text>
<text text-anchor="start" x="4259.22" y="-848.8" font-family="Arial" font-size="14.00" fill="#666666">[jsonb]</text>
<polygon fill="none" stroke="black" points="4210.18,-805.8 4210.18,-836.6 4475.16,-836.6 4475.16,-805.8 4210.18,-805.8"/>
<text text-anchor="start" x="4217.18" y="-818" font-family="Arial" font-size="14.00">project_id </text>
<text text-anchor="start" x="4281.78" y="-818" font-family="Arial" font-size="14.00" fill="#666666">[uuid]</text>
<polygon fill="none" stroke="black" points="4210.18,-775 4210.18,-805.8 4475.16,-805.8 4475.16,-775 4210.18,-775"/>
<text text-anchor="start" x="4217.18" y="-787.2" font-family="Arial" font-size="14.00">updated_at </text>
<text text-anchor="start" x="4291.14" y="-787.2" font-family="Arial" font-size="14.00" fill="#666666">[timestamp with time zone]</text>
</g>
<!-- public.workflows&#45;&gt;public.projects -->
<g id="edge11" class="edge">
<title>public.workflows:project_id&#45;&gt;public.projects:id</title>
<path fill="none" stroke="black" d="M4198.98,-820.38C4139.81,-809.88 4214.81,-701.24 4157.67,-654.8 4010.33,-535.05 2646.37,-493.8 2456.51,-493.8"/>
<polygon fill="black" stroke="black" points="4198.88,-820.37 4208.49,-825.66 4204.2,-820.8 4208.52,-821.15 4208.52,-821.15 4208.52,-821.15 4204.2,-820.8 4209.21,-816.69 4198.88,-820.37"/>
</g>
</g>
</svg>
