<?xml version="1.0" encoding="UTF-8" standalone="no"?>
<!DOCTYPE svg PUBLIC "-//W3C//DTD SVG 1.1//EN"
 "http://www.w3.org/Graphics/SVG/1.1/DTD/svg11.dtd">
<!-- Generated by graphviz version 12.1.2 (20240928.0832)
 -->
<!-- Title: public.user_terms_agreements Pages: 1 -->
<svg width="3198pt" height="966pt"
 viewBox="0.00 0.00 3198.34 965.60" xmlns="http://www.w3.org/2000/svg" xmlns:xlink="http://www.w3.org/1999/xlink">
<g id="graph0" class="graph" transform="scale(1 1) rotate(0) translate(4 961.6)">
<title>public.user_terms_agreements</title>
<polygon fill="white" stroke="none" points="-4,4 -4,-961.6 3194.34,-961.6 3194.34,4 -4,4"/>
<!-- public.user_terms_agreements -->
<g id="node1" class="node">
<title>public.user_terms_agreements</title>
<polygon fill="#efefef" stroke="none" points="46.2,-724.8 46.2,-760.4 404.12,-760.4 404.12,-724.8 46.2,-724.8"/>
<polygon fill="none" stroke="black" points="46.2,-724.8 46.2,-760.4 404.12,-760.4 404.12,-724.8 46.2,-724.8"/>
<text text-anchor="start" x="53.2" y="-738.2" font-family="Arial Bold" font-size="18.00">public.user_terms_agreements</text>
<text text-anchor="start" x="272.63" y="-738.2" font-family="Arial" font-size="14.00">    </text>
<text text-anchor="start" x="303.74" y="-738.2" font-family="Arial" font-size="14.00" fill="#666666">[BASE TABLE]</text>
<polygon fill="none" stroke="black" points="46.2,-694 46.2,-724.8 404.12,-724.8 404.12,-694 46.2,-694"/>
<text text-anchor="start" x="53.2" y="-706.2" font-family="Arial" font-size="14.00">agreed_at </text>
<text text-anchor="start" x="120.14" y="-706.2" font-family="Arial" font-size="14.00" fill="#666666">[timestamp with time zone]</text>
<polygon fill="none" stroke="black" points="46.2,-663.2 46.2,-694 404.12,-694 404.12,-663.2 46.2,-663.2"/>
<text text-anchor="start" x="53.2" y="-675.4" font-family="Arial" font-size="14.00">consents </text>
<text text-anchor="start" x="113.12" y="-675.4" font-family="Arial" font-size="14.00" fill="#666666">[jsonb]</text>
<polygon fill="none" stroke="black" points="46.2,-632.4 46.2,-663.2 404.12,-663.2 404.12,-632.4 46.2,-632.4"/>
<text text-anchor="start" x="53.2" y="-644.6" font-family="Arial" font-size="14.00">id </text>
<text text-anchor="start" x="67.99" y="-644.6" font-family="Arial" font-size="14.00" fill="#666666">[uuid]</text>
<polygon fill="none" stroke="black" points="46.2,-601.6 46.2,-632.4 404.12,-632.4 404.12,-601.6 46.2,-601.6"/>
<text text-anchor="start" x="53.2" y="-613.8" font-family="Arial" font-size="14.00">ip_address </text>
<text text-anchor="start" x="125.58" y="-613.8" font-family="Arial" font-size="14.00" fill="#666666">[varchar(45)]</text>
<polygon fill="none" stroke="black" points="46.2,-570.8 46.2,-601.6 404.12,-601.6 404.12,-570.8 46.2,-570.8"/>
<text text-anchor="start" x="53.2" y="-583" font-family="Arial" font-size="14.00">terms_version </text>
<text text-anchor="start" x="145.01" y="-583" font-family="Arial" font-size="14.00" fill="#666666">[varchar(20)]</text>
<polygon fill="none" stroke="black" points="46.2,-540 46.2,-570.8 404.12,-570.8 404.12,-540 46.2,-540"/>
<text text-anchor="start" x="53.2" y="-552.2" font-family="Arial" font-size="14.00">user_id </text>
<text text-anchor="start" x="103.01" y="-552.2" font-family="Arial" font-size="14.00" fill="#666666">[uuid]</text>
<polygon fill="none" stroke="black" stroke-width="3" points="44.7,-538.5 44.7,-761.9 405.62,-761.9 405.62,-538.5 44.7,-538.5"/>
</g>
<!-- public.users -->
<g id="node2" class="node">
<title>public.users</title>
<polygon fill="#efefef" stroke="none" points="1514.32,-228 1514.32,-263.6 1768,-263.6 1768,-228 1514.32,-228"/>
<polygon fill="none" stroke="black" points="1514.32,-228 1514.32,-263.6 1768,-263.6 1768,-228 1514.32,-228"/>
<text text-anchor="start" x="1535.67" y="-241.4" font-family="Arial Bold" font-size="18.00">public.users</text>
<text text-anchor="start" x="1622.16" y="-241.4" font-family="Arial" font-size="14.00">    </text>
<text text-anchor="start" x="1653.27" y="-241.4" font-family="Arial" font-size="14.00" fill="#666666">[BASE TABLE]</text>
<polygon fill="none" stroke="black" points="1514.32,-197.2 1514.32,-228 1768,-228 1768,-197.2 1514.32,-197.2"/>
<text text-anchor="start" x="1521.32" y="-209.4" font-family="Arial" font-size="14.00">created_at </text>
<text text-anchor="start" x="1591.37" y="-209.4" font-family="Arial" font-size="14.00" fill="#666666">[timestamp with time zone]</text>
<polygon fill="none" stroke="black" points="1514.32,-166.4 1514.32,-197.2 1768,-197.2 1768,-166.4 1514.32,-166.4"/>
<text text-anchor="start" x="1521.32" y="-178.6" font-family="Arial" font-size="14.00">email </text>
<text text-anchor="start" x="1558.66" y="-178.6" font-family="Arial" font-size="14.00" fill="#666666">[varchar(320)]</text>
<polygon fill="none" stroke="black" points="1514.32,-135.6 1514.32,-166.4 1768,-166.4 1768,-135.6 1514.32,-135.6"/>
<text text-anchor="start" x="1521.32" y="-147.8" font-family="Arial" font-size="14.00">id </text>
<text text-anchor="start" x="1536.1" y="-147.8" font-family="Arial" font-size="14.00" fill="#666666">[uuid]</text>
<polygon fill="none" stroke="black" points="1514.32,-104.8 1514.32,-135.6 1768,-135.6 1768,-104.8 1514.32,-104.8"/>
<text text-anchor="start" x="1521.32" y="-117" font-family="Arial" font-size="14.00">password_hash </text>
<text text-anchor="start" x="1623.27" y="-117" font-family="Arial" font-size="14.00" fill="#666666">[text]</text>
<polygon fill="none" stroke="black" points="1514.32,-74 1514.32,-104.8 1768,-104.8 1768,-74 1514.32,-74"/>
<text text-anchor="start" x="1521.32" y="-86.2" font-family="Arial" font-size="14.00">role </text>
<text text-anchor="start" x="1548.55" y="-86.2" font-family="Arial" font-size="14.00" fill="#666666">[text]</text>
<polygon fill="none" stroke="black" points="1514.32,-43.2 1514.32,-74 1768,-74 1768,-43.2 1514.32,-43.2"/>
<text text-anchor="start" x="1521.32" y="-55.4" font-family="Arial" font-size="14.00">updated_at </text>
<text text-anchor="start" x="1595.28" y="-55.4" font-family="Arial" font-size="14.00" fill="#666666">[timestamp with time zone]</text>
</g>
<!-- public.user_terms_agreements&#45;&gt;public.users -->
<g id="edge1" class="edge">
<title>public.user_terms_agreements:user_id&#45;&gt;public.users:id</title>
<path fill="none" stroke="black" d="M415.11,-554.81C494.35,-544.67 390.53,-406.85 459.16,-342.8 633.23,-180.34 1275.21,-151 1513.32,-151"/>
<polygon fill="black" stroke="black" points="415.43,-554.79 405.18,-550.89 410.11,-555.1 405.78,-555.36 405.78,-555.36 405.78,-555.36 410.11,-555.1 405.72,-559.87 415.43,-554.79"/>
</g>
<!-- public.audit_logs -->
<g id="node3" class="node">
<title>public.audit_logs</title>
<polygon fill="#efefef" stroke="none" points="511.67,-771 511.67,-806.6 774.65,-806.6 774.65,-771 511.67,-771"/>
<polygon fill="none" stroke="black" points="511.67,-771 511.67,-806.6 774.65,-806.6 774.65,-771 511.67,-771"/>
<text text-anchor="start" x="518.67" y="-784.4" font-family="Arial Bold" font-size="18.00">public.audit_logs</text>
<text text-anchor="start" x="643.16" y="-784.4" font-family="Arial" font-size="14.00">    </text>
<text text-anchor="start" x="674.28" y="-784.4" font-family="Arial" font-size="14.00" fill="#666666">[BASE TABLE]</text>
<polygon fill="none" stroke="black" points="511.67,-740.2 511.67,-771 774.65,-771 774.65,-740.2 511.67,-740.2"/>
<text text-anchor="start" x="518.67" y="-752.4" font-family="Arial" font-size="14.00">action </text>
<text text-anchor="start" x="559.92" y="-752.4" font-family="Arial" font-size="14.00" fill="#666666">[text]</text>
<polygon fill="none" stroke="black" points="511.67,-709.4 511.67,-740.2 774.65,-740.2 774.65,-709.4 511.67,-709.4"/>
<text text-anchor="start" x="518.67" y="-721.6" font-family="Arial" font-size="14.00">changes </text>
<text text-anchor="start" x="575.49" y="-721.6" font-family="Arial" font-size="14.00" fill="#666666">[jsonb]</text>
<polygon fill="none" stroke="black" points="511.67,-678.6 511.67,-709.4 774.65,-709.4 774.65,-678.6 511.67,-678.6"/>
<text text-anchor="start" x="518.67" y="-690.8" font-family="Arial" font-size="14.00">created_at </text>
<text text-anchor="start" x="588.72" y="-690.8" font-family="Arial" font-size="14.00" fill="#666666">[timestamp with time zone]</text>
<polygon fill="none" stroke="black" points="511.67,-647.8 511.67,-678.6 774.65,-678.6 774.65,-647.8 511.67,-647.8"/>
<text text-anchor="start" x="518.67" y="-660" font-family="Arial" font-size="14.00">id </text>
<text text-anchor="start" x="533.46" y="-660" font-family="Arial" font-size="14.00" fill="#666666">[uuid]</text>
<polygon fill="none" stroke="black" points="511.67,-617 511.67,-647.8 774.65,-647.8 774.65,-617 511.67,-617"/>
<text text-anchor="start" x="518.67" y="-629.2" font-family="Arial" font-size="14.00">ip_address </text>
<text text-anchor="start" x="591.05" y="-629.2" font-family="Arial" font-size="14.00" fill="#666666">[varchar(45)]</text>
<polygon fill="none" stroke="black" points="511.67,-586.2 511.67,-617 774.65,-617 774.65,-586.2 511.67,-586.2"/>
<text text-anchor="start" x="518.67" y="-598.4" font-family="Arial" font-size="14.00">project_id </text>
<text text-anchor="start" x="583.26" y="-598.4" font-family="Arial" font-size="14.00" fill="#666666">[uuid]</text>
<polygon fill="none" stroke="black" points="511.67,-555.4 511.67,-586.2 774.65,-586.2 774.65,-555.4 511.67,-555.4"/>
<text text-anchor="start" x="518.67" y="-567.6" font-family="Arial" font-size="14.00">record_id </text>
<text text-anchor="start" x="580.92" y="-567.6" font-family="Arial" font-size="14.00" fill="#666666">[uuid]</text>
<polygon fill="none" stroke="black" points="511.67,-524.6 511.67,-555.4 774.65,-555.4 774.65,-524.6 511.67,-524.6"/>
<text text-anchor="start" x="518.67" y="-536.8" font-family="Arial" font-size="14.00">target_table </text>
<text text-anchor="start" x="596.5" y="-536.8" font-family="Arial" font-size="14.00" fill="#666666">[text]</text>
<polygon fill="none" stroke="black" points="511.67,-493.8 511.67,-524.6 774.65,-524.6 774.65,-493.8 511.67,-493.8"/>
<text text-anchor="start" x="518.67" y="-506" font-family="Arial" font-size="14.00">user_id </text>
<text text-anchor="start" x="568.48" y="-506" font-family="Arial" font-size="14.00" fill="#666666">[uuid]</text>
</g>
<!-- public.audit_logs&#45;&gt;public.users -->
<g id="edge2" class="edge">
<title>public.audit_logs:user_id&#45;&gt;public.users:id</title>
<path fill="none" stroke="black" d="M785.86,-508.42C845.25,-498.37 773.59,-394.19 826.16,-342.8 939.52,-231.97 1354.78,-151 1513.32,-151"/>
<polygon fill="black" stroke="black" points="785.95,-508.41 775.64,-504.69 780.63,-508.82 776.31,-509.15 776.31,-509.15 776.31,-509.15 780.63,-508.82 776.33,-513.66 785.95,-508.41"/>
</g>
<!-- public.project_members -->
<g id="node4" class="node">
<title>public.project_members</title>
<polygon fill="#efefef" stroke="none" points="878.69,-694 878.69,-729.6 1191.63,-729.6 1191.63,-694 878.69,-694"/>
<polygon fill="none" stroke="black" points="878.69,-694 878.69,-729.6 1191.63,-729.6 1191.63,-694 878.69,-694"/>
<text text-anchor="start" x="885.69" y="-707.4" font-family="Arial Bold" font-size="18.00">public.project_members</text>
<text text-anchor="start" x="1060.14" y="-707.4" font-family="Arial" font-size="14.00">    </text>
<text text-anchor="start" x="1091.25" y="-707.4" font-family="Arial" font-size="14.00" fill="#666666">[BASE TABLE]</text>
<polygon fill="none" stroke="black" points="878.69,-663.2 878.69,-694 1191.63,-694 1191.63,-663.2 878.69,-663.2"/>
<text text-anchor="start" x="885.69" y="-675.4" font-family="Arial" font-size="14.00">created_at </text>
<text text-anchor="start" x="955.74" y="-675.4" font-family="Arial" font-size="14.00" fill="#666666">[timestamp with time zone]</text>
<polygon fill="none" stroke="black" points="878.69,-632.4 878.69,-663.2 1191.63,-663.2 1191.63,-632.4 878.69,-632.4"/>
<text text-anchor="start" x="885.69" y="-644.6" font-family="Arial" font-size="14.00">project_id </text>
<text text-anchor="start" x="950.28" y="-644.6" font-family="Arial" font-size="14.00" fill="#666666">[uuid]</text>
<polygon fill="none" stroke="black" points="878.69,-601.6 878.69,-632.4 1191.63,-632.4 1191.63,-601.6 878.69,-601.6"/>
<text text-anchor="start" x="885.69" y="-613.8" font-family="Arial" font-size="14.00">role </text>
<text text-anchor="start" x="912.93" y="-613.8" font-family="Arial" font-size="14.00" fill="#666666">[text]</text>
<polygon fill="none" stroke="black" points="878.69,-570.8 878.69,-601.6 1191.63,-601.6 1191.63,-570.8 878.69,-570.8"/>
<text text-anchor="start" x="885.69" y="-583" font-family="Arial" font-size="14.00">user_id </text>
<text text-anchor="start" x="935.5" y="-583" font-family="Arial" font-size="14.00" fill="#666666">[uuid]</text>
</g>
<!-- public.project_members&#45;&gt;public.users -->
<g id="edge3" class="edge">
<title>public.project_members:user_id&#45;&gt;public.users:id</title>
<path fill="none" stroke="black" d="M1202.88,-585.71C1295.31,-576.24 1184.7,-432.2 1243.16,-342.8 1323.74,-219.55 1366.06,-151 1513.32,-151"/>
<polygon fill="black" stroke="black" points="1202.95,-585.71 1192.74,-581.69 1197.62,-585.96 1193.29,-586.17 1193.29,-586.17 1193.29,-586.17 1197.62,-585.96 1193.18,-590.68 1202.95,-585.71"/>
</g>
<!-- public.project_versions -->
<g id="node5" class="node">
<title>public.project_versions</title>
<polygon fill="#efefef" stroke="none" points="1295.68,-755.6 1295.68,-791.2 1602.63,-791.2 1602.63,-755.6 1295.68,-755.6"/>
<polygon fill="none" stroke="black" points="1295.68,-755.6 1295.68,-791.2 1602.63,-791.2 1602.63,-755.6 1295.68,-755.6"/>
<text text-anchor="start" x="1302.68" y="-769" font-family="Arial Bold" font-size="18.00">public.project_versions</text>
<text text-anchor="start" x="1471.14" y="-769" font-family="Arial" font-size="14.00">    </text>
<text text-anchor="start" x="1502.26" y="-769" font-family="Arial" font-size="14.00" fill="#666666">[BASE TABLE]</text>
<polygon fill="none" stroke="black" points="1295.68,-724.8 1295.68,-755.6 1602.63,-755.6 1602.63,-724.8 1295.68,-724.8"/>
<text text-anchor="start" x="1302.68" y="-737" font-family="Arial" font-size="14.00">created_at </text>
<text text-anchor="start" x="1372.73" y="-737" font-family="Arial" font-size="14.00" fill="#666666">[timestamp with time zone]</text>
<polygon fill="none" stroke="black" points="1295.68,-694 1295.68,-724.8 1602.63,-724.8 1602.63,-694 1295.68,-694"/>
<text text-anchor="start" x="1302.68" y="-706.2" font-family="Arial" font-size="14.00">created_by </text>
<text text-anchor="start" x="1375.84" y="-706.2" font-family="Arial" font-size="14.00" fill="#666666">[uuid]</text>
<polygon fill="none" stroke="black" points="1295.68,-663.2 1295.68,-694 1602.63,-694 1602.63,-663.2 1295.68,-663.2"/>
<text text-anchor="start" x="1302.68" y="-675.4" font-family="Arial" font-size="14.00">description </text>
<text text-anchor="start" x="1374.28" y="-675.4" font-family="Arial" font-size="14.00" fill="#666666">[text]</text>
<polygon fill="none" stroke="black" points="1295.68,-632.4 1295.68,-663.2 1602.63,-663.2 1602.63,-632.4 1295.68,-632.4"/>
<text text-anchor="start" x="1302.68" y="-644.6" font-family="Arial" font-size="14.00">id </text>
<text text-anchor="start" x="1317.47" y="-644.6" font-family="Arial" font-size="14.00" fill="#666666">[uuid]</text>
<polygon fill="none" stroke="black" points="1295.68,-601.6 1295.68,-632.4 1602.63,-632.4 1602.63,-601.6 1295.68,-601.6"/>
<text text-anchor="start" x="1302.68" y="-613.8" font-family="Arial" font-size="14.00">name </text>
<text text-anchor="start" x="1341.59" y="-613.8" font-family="Arial" font-size="14.00" fill="#666666">[varchar(100)]</text>
<polygon fill="none" stroke="black" points="1295.68,-570.8 1295.68,-601.6 1602.63,-601.6 1602.63,-570.8 1295.68,-570.8"/>
<text text-anchor="start" x="1302.68" y="-583" font-family="Arial" font-size="14.00">project_id </text>
<text text-anchor="start" x="1367.28" y="-583" font-family="Arial" font-size="14.00" fill="#666666">[uuid]</text>
<polygon fill="none" stroke="black" points="1295.68,-540 1295.68,-570.8 1602.63,-570.8 1602.63,-540 1295.68,-540"/>
<text text-anchor="start" x="1302.68" y="-552.2" font-family="Arial" font-size="14.00">snapshot </text>
<text text-anchor="start" x="1363.39" y="-552.2" font-family="Arial" font-size="14.00" fill="#666666">[jsonb]</text>
<polygon fill="none" stroke="black" points="1295.68,-509.2 1295.68,-540 1602.63,-540 1602.63,-509.2 1295.68,-509.2"/>
<text text-anchor="start" x="1302.68" y="-521.4" font-family="Arial" font-size="14.00">version_number </text>
<text text-anchor="start" x="1406.96" y="-521.4" font-family="Arial" font-size="14.00" fill="#666666">[integer]</text>
</g>
<!-- public.project_versions&#45;&gt;public.users -->
<g id="edge4" class="edge">
<title>public.project_versions:created_by&#45;&gt;public.users:id</title>
<path fill="none" stroke="black" d="M1613.67,-706.68C1652.03,-683.22 1615.33,-514.66 1602.63,-466 1582.2,-387.71 1534.84,-385.07 1514.32,-306.8 1496.75,-239.82 1444.07,-151 1513.32,-151"/>
<polygon fill="black" stroke="black" points="1613.61,-706.7 1602.78,-704.97 1608.46,-708.09 1604.28,-709.23 1604.28,-709.23 1604.28,-709.23 1608.46,-708.09 1605.13,-713.66 1613.61,-706.7"/>
</g>
<!-- public.projects -->
<g id="node6" class="node">
<title>public.projects</title>
<polygon fill="#efefef" stroke="none" points="1707.32,-709.4 1707.32,-745 1961,-745 1961,-709.4 1707.32,-709.4"/>
<polygon fill="none" stroke="black" points="1707.32,-709.4 1707.32,-745 1961,-745 1961,-709.4 1707.32,-709.4"/>
<text text-anchor="start" x="1718.68" y="-722.8" font-family="Arial Bold" font-size="18.00">public.projects</text>
<text text-anchor="start" x="1825.15" y="-722.8" font-family="Arial" font-size="14.00">    </text>
<text text-anchor="start" x="1856.27" y="-722.8" font-family="Arial" font-size="14.00" fill="#666666">[BASE TABLE]</text>
<polygon fill="none" stroke="black" points="1707.32,-678.6 1707.32,-709.4 1961,-709.4 1961,-678.6 1707.32,-678.6"/>
<text text-anchor="start" x="1714.32" y="-690.8" font-family="Arial" font-size="14.00">created_at </text>
<text text-anchor="start" x="1784.37" y="-690.8" font-family="Arial" font-size="14.00" fill="#666666">[timestamp with time zone]</text>
<polygon fill="none" stroke="black" points="1707.32,-647.8 1707.32,-678.6 1961,-678.6 1961,-647.8 1707.32,-647.8"/>
<text text-anchor="start" x="1714.32" y="-660" font-family="Arial" font-size="14.00">id </text>
<text text-anchor="start" x="1729.1" y="-660" font-family="Arial" font-size="14.00" fill="#666666">[uuid]</text>
<polygon fill="none" stroke="black" points="1707.32,-617 1707.32,-647.8 1961,-647.8 1961,-617 1707.32,-617"/>
<text text-anchor="start" x="1714.32" y="-629.2" font-family="Arial" font-size="14.00">name </text>
<text text-anchor="start" x="1753.23" y="-629.2" font-family="Arial" font-size="14.00" fill="#666666">[varchar(100)]</text>
<polygon fill="none" stroke="black" points="1707.32,-586.2 1707.32,-617 1961,-617 1961,-586.2 1707.32,-586.2"/>
<text text-anchor="start" x="1714.32" y="-598.4" font-family="Arial" font-size="14.00">owner_id </text>
<text text-anchor="start" x="1775.02" y="-598.4" font-family="Arial" font-size="14.00" fill="#666666">[uuid]</text>
<polygon fill="none" stroke="black" points="1707.32,-555.4 1707.32,-586.2 1961,-586.2 1961,-555.4 1707.32,-555.4"/>
<text text-anchor="start" x="1714.32" y="-567.6" font-family="Arial" font-size="14.00">updated_at </text>
<text text-anchor="start" x="1788.28" y="-567.6" font-family="Arial" font-size="14.00" fill="#666666">[timestamp with time zone]</text>
</g>
<!-- public.projects&#45;&gt;public.users -->
<g id="edge5" class="edge">
<title>public.projects:owner_id&#45;&gt;public.users:id</title>
<path fill="none" stroke="black" d="M1696.11,-600C1673.61,-591.15 1702.03,-547.35 1707.32,-512.2 1731.53,-351.15 1931.86,-151 1769,-151"/>
<polygon fill="black" stroke="black" points="1696.11,-600 1705.29,-605.99 1701.38,-600.83 1705.66,-601.5 1705.66,-601.5 1705.66,-601.5 1701.38,-600.83 1706.68,-597.1 1696.11,-600"/>
</g>
<!-- public.refresh_tokens -->
<g id="node7" class="node">
<title>public.refresh_tokens</title>
<polygon fill="#efefef" stroke="none" points="2065.19,-724.8 2065.19,-760.4 2359.13,-760.4 2359.13,-724.8 2065.19,-724.8"/>
<polygon fill="none" stroke="black" points="2065.19,-724.8 2065.19,-760.4 2359.13,-760.4 2359.13,-724.8 2065.19,-724.8"/>
<text text-anchor="start" x="2072.19" y="-738.2" font-family="Arial Bold" font-size="18.00">public.refresh_tokens</text>
<text text-anchor="start" x="2227.64" y="-738.2" font-family="Arial" font-size="14.00">    </text>
<text text-anchor="start" x="2258.76" y="-738.2" font-family="Arial" font-size="14.00" fill="#666666">[BASE TABLE]</text>
<polygon fill="none" stroke="black" points="2065.19,-694 2065.19,-724.8 2359.13,-724.8 2359.13,-694 2065.19,-694"/>
<text text-anchor="start" x="2072.19" y="-706.2" font-family="Arial" font-size="14.00">created_at </text>
<text text-anchor="start" x="2142.24" y="-706.2" font-family="Arial" font-size="14.00" fill="#666666">[timestamp with time zone]</text>
<polygon fill="none" stroke="black" points="2065.19,-663.2 2065.19,-694 2359.13,-694 2359.13,-663.2 2065.19,-663.2"/>
<text text-anchor="start" x="2072.19" y="-675.4" font-family="Arial" font-size="14.00">expires_at </text>
<text text-anchor="start" x="2140.67" y="-675.4" font-family="Arial" font-size="14.00" fill="#666666">[timestamp with time zone]</text>
<polygon fill="none" stroke="black" points="2065.19,-632.4 2065.19,-663.2 2359.13,-663.2 2359.13,-632.4 2065.19,-632.4"/>
<text text-anchor="start" x="2072.19" y="-644.6" font-family="Arial" font-size="14.00">id </text>
<text text-anchor="start" x="2086.97" y="-644.6" font-family="Arial" font-size="14.00" fill="#666666">[uuid]</text>
<polygon fill="none" stroke="black" points="2065.19,-601.6 2065.19,-632.4 2359.13,-632.4 2359.13,-601.6 2065.19,-601.6"/>
<text text-anchor="start" x="2072.19" y="-613.8" font-family="Arial" font-size="14.00">revoked_at </text>
<text text-anchor="start" x="2145.35" y="-613.8" font-family="Arial" font-size="14.00" fill="#666666">[timestamp with time zone]</text>
<polygon fill="none" stroke="black" points="2065.19,-570.8 2065.19,-601.6 2359.13,-601.6 2359.13,-570.8 2065.19,-570.8"/>
<text text-anchor="start" x="2072.19" y="-583" font-family="Arial" font-size="14.00">token_hash </text>
<text text-anchor="start" x="2148.47" y="-583" font-family="Arial" font-size="14.00" fill="#666666">[character(64)]</text>
<polygon fill="none" stroke="black" points="2065.19,-540 2065.19,-570.8 2359.13,-570.8 2359.13,-540 2065.19,-540"/>
<text text-anchor="start" x="2072.19" y="-552.2" font-family="Arial" font-size="14.00">user_id </text>
<text text-anchor="start" x="2121.99" y="-552.2" font-family="Arial" font-size="14.00" fill="#666666">[uuid]</text>
</g>
<!-- public.refresh_tokens&#45;&gt;public.users -->
<g id="edge6" class="edge">
<title>public.refresh_tokens:user_id&#45;&gt;public.users:id</title>
<path fill="none" stroke="black" d="M2054.16,-554.87C1974.13,-545.76 2063.67,-421.56 2013.16,-342.8 1938.66,-226.64 1906.99,-151 1769,-151"/>
<polygon fill="black" stroke="black" points="2053.87,-554.85 2063.62,-559.88 2059.19,-555.14 2063.52,-555.36 2063.52,-555.36 2063.52,-555.36 2059.19,-555.14 2064.09,-550.89 2053.87,-554.85"/>
</g>
<!-- public.tenant_limits -->
<g id="node8" class="node">
<title>public.tenant_limits</title>
<polygon fill="#efefef" stroke="none" points="2463.17,-709.4 2463.17,-745 2745.14,-745 2745.14,-709.4 2463.17,-709.4"/>
<polygon fill="none" stroke="black" points="2463.17,-709.4 2463.17,-745 2745.14,-745 2745.14,-709.4 2463.17,-709.4"/>
<text text-anchor="start" x="2470.17" y="-722.8" font-family="Arial Bold" font-size="18.00">public.tenant_limits</text>
<text text-anchor="start" x="2613.65" y="-722.8" font-family="Arial" font-size="14.00">    </text>
<text text-anchor="start" x="2644.77" y="-722.8" font-family="Arial" font-size="14.00" fill="#666666">[BASE TABLE]</text>
<polygon fill="none" stroke="black" points="2463.17,-678.6 2463.17,-709.4 2745.14,-709.4 2745.14,-678.6 2463.17,-678.6"/>
<text text-anchor="start" x="2470.17" y="-690.8" font-family="Arial" font-size="14.00">allow_code_export </text>
<text text-anchor="start" x="2590.81" y="-690.8" font-family="Arial" font-size="14.00" fill="#666666">[boolean]</text>
<polygon fill="none" stroke="black" points="2463.17,-647.8 2463.17,-678.6 2745.14,-678.6 2745.14,-647.8 2463.17,-647.8"/>
<text text-anchor="start" x="2470.17" y="-660" font-family="Arial" font-size="14.00">created_at </text>
<text text-anchor="start" x="2540.22" y="-660" font-family="Arial" font-size="14.00" fill="#666666">[timestamp with time zone]</text>
<polygon fill="none" stroke="black" points="2463.17,-617 2463.17,-647.8 2745.14,-647.8 2745.14,-617 2463.17,-617"/>
<text text-anchor="start" x="2470.17" y="-629.2" font-family="Arial" font-size="14.00">max_projects </text>
<text text-anchor="start" x="2557.32" y="-629.2" font-family="Arial" font-size="14.00" fill="#666666">[integer]</text>
<polygon fill="none" stroke="black" points="2463.17,-586.2 2463.17,-617 2745.14,-617 2745.14,-586.2 2463.17,-586.2"/>
<text text-anchor="start" x="2470.17" y="-598.4" font-family="Arial" font-size="14.00">plan_type </text>
<text text-anchor="start" x="2534.78" y="-598.4" font-family="Arial" font-size="14.00" fill="#666666">[varchar(20)]</text>
<polygon fill="none" stroke="black" points="2463.17,-555.4 2463.17,-586.2 2745.14,-586.2 2745.14,-555.4 2463.17,-555.4"/>
<text text-anchor="start" x="2470.17" y="-567.6" font-family="Arial" font-size="14.00">user_id </text>
<text text-anchor="start" x="2519.98" y="-567.6" font-family="Arial" font-size="14.00" fill="#666666">[uuid]</text>
</g>
<!-- public.tenant_limits&#45;&gt;public.users -->
<g id="edge7" class="edge">
<title>public.tenant_limits:user_id&#45;&gt;public.users:id</title>
<path fill="none" stroke="black" d="M2451.79,-570.22C2367.01,-559.91 2479.41,-416.01 2411.16,-342.8 2309.6,-233.86 1917.93,-151 1769,-151"/>
<polygon fill="black" stroke="black" points="2451.86,-570.22 2461.59,-575.27 2457.18,-570.52 2461.51,-570.76 2461.51,-570.76 2461.51,-570.76 2457.18,-570.52 2462.09,-566.29 2451.86,-570.22"/>
</g>
<!-- public.workflow_runs -->
<g id="node9" class="node">
<title>public.workflow_runs</title>
<polygon fill="#efefef" stroke="none" points="2849.18,-878.8 2849.18,-914.4 3147.14,-914.4 3147.14,-878.8 2849.18,-878.8"/>
<polygon fill="none" stroke="black" points="2849.18,-878.8 2849.18,-914.4 3147.14,-914.4 3147.14,-878.8 2849.18,-878.8"/>
<text text-anchor="start" x="2856.18" y="-892.2" font-family="Arial Bold" font-size="18.00">public.workflow_runs</text>
<text text-anchor="start" x="3015.65" y="-892.2" font-family="Arial" font-size="14.00">    </text>
<text text-anchor="start" x="3046.77" y="-892.2" font-family="Arial" font-size="14.00" fill="#666666">[BASE TABLE]</text>
<polygon fill="none" stroke="black" points="2849.18,-848 2849.18,-878.8 3147.14,-878.8 3147.14,-848 2849.18,-848"/>
<text text-anchor="start" x="2856.18" y="-860.2" font-family="Arial" font-size="14.00">created_at </text>
<text text-anchor="start" x="2926.22" y="-860.2" font-family="Arial" font-size="14.00" fill="#666666">[timestamp with time zone]</text>
<polygon fill="none" stroke="black" points="2849.18,-817.2 2849.18,-848 3147.14,-848 3147.14,-817.2 2849.18,-817.2"/>
<text text-anchor="start" x="2856.18" y="-829.4" font-family="Arial" font-size="14.00">created_by </text>
<text text-anchor="start" x="2929.33" y="-829.4" font-family="Arial" font-size="14.00" fill="#666666">[uuid]</text>
<polygon fill="none" stroke="black" points="2849.18,-786.4 2849.18,-817.2 3147.14,-817.2 3147.14,-786.4 2849.18,-786.4"/>
<text text-anchor="start" x="2856.18" y="-798.6" font-family="Arial" font-size="14.00">definition_snapshot </text>
<text text-anchor="start" x="2980.71" y="-798.6" font-family="Arial" font-size="14.00" fill="#666666">[jsonb]</text>
<polygon fill="none" stroke="black" points="2849.18,-755.6 2849.18,-786.4 3147.14,-786.4 3147.14,-755.6 2849.18,-755.6"/>
<text text-anchor="start" x="2856.18" y="-767.8" font-family="Arial" font-size="14.00">error </text>
<text text-anchor="start" x="2889.62" y="-767.8" font-family="Arial" font-size="14.00" fill="#666666">[jsonb]</text>
<polygon fill="none" stroke="black" points="2849.18,-724.8 2849.18,-755.6 3147.14,-755.6 3147.14,-724.8 2849.18,-724.8"/>
<text text-anchor="start" x="2856.18" y="-737" font-family="Arial" font-size="14.00">finished_at </text>
<text text-anchor="start" x="2927.78" y="-737" font-family="Arial" font-size="14.00" fill="#666666">[timestamp with time zone]</text>
<polygon fill="none" stroke="black" points="2849.18,-694 2849.18,-724.8 3147.14,-724.8 3147.14,-694 2849.18,-694"/>
<text text-anchor="start" x="2856.18" y="-706.2" font-family="Arial" font-size="14.00">id </text>
<text text-anchor="start" x="2870.96" y="-706.2" font-family="Arial" font-size="14.00" fill="#666666">[uuid]</text>
<polygon fill="none" stroke="black" points="2849.18,-663.2 2849.18,-694 3147.14,-694 3147.14,-663.2 2849.18,-663.2"/>
<text text-anchor="start" x="2856.18" y="-675.4" font-family="Arial" font-size="14.00">initiator_id </text>
<text text-anchor="start" x="2923.88" y="-675.4" font-family="Arial" font-size="14.00" fill="#666666">[uuid]</text>
<polygon fill="none" stroke="black" points="2849.18,-632.4 2849.18,-663.2 3147.14,-663.2 3147.14,-632.4 2849.18,-632.4"/>
<text text-anchor="start" x="2856.18" y="-644.6" font-family="Arial" font-size="14.00">initiator_type </text>
<text text-anchor="start" x="2939.44" y="-644.6" font-family="Arial" font-size="14.00" fill="#666666">[text]</text>
<polygon fill="none" stroke="black" points="2849.18,-601.6 2849.18,-632.4 3147.14,-632.4 3147.14,-601.6 2849.18,-601.6"/>
<text text-anchor="start" x="2856.18" y="-613.8" font-family="Arial" font-size="14.00">input </text>
<text text-anchor="start" x="2890.42" y="-613.8" font-family="Arial" font-size="14.00" fill="#666666">[jsonb]</text>
<polygon fill="none" stroke="black" points="2849.18,-570.8 2849.18,-601.6 3147.14,-601.6 3147.14,-570.8 2849.18,-570.8"/>
<text text-anchor="start" x="2856.18" y="-583" font-family="Arial" font-size="14.00">output </text>
<text text-anchor="start" x="2898.99" y="-583" font-family="Arial" font-size="14.00" fill="#666666">[jsonb]</text>
<polygon fill="none" stroke="black" points="2849.18,-540 2849.18,-570.8 3147.14,-570.8 3147.14,-540 2849.18,-540"/>
<text text-anchor="start" x="2856.18" y="-552.2" font-family="Arial" font-size="14.00">project_id </text>
<text text-anchor="start" x="2920.77" y="-552.2" font-family="Arial" font-size="14.00" fill="#666666">[uuid]</text>
<polygon fill="none" stroke="black" points="2849.18,-509.2 2849.18,-540 3147.14,-540 3147.14,-509.2 2849.18,-509.2"/>
<text text-anchor="start" x="2856.18" y="-521.4" font-family="Arial" font-size="14.00">started_at </text>
<text text-anchor="start" x="2922.33" y="-521.4" font-family="Arial" font-size="14.00" fill="#666666">[timestamp with time zone]</text>
<polygon fill="none" stroke="black" points="2849.18,-478.4 2849.18,-509.2 3147.14,-509.2 3147.14,-478.4 2849.18,-478.4"/>
<text text-anchor="start" x="2856.18" y="-490.6" font-family="Arial" font-size="14.00">status </text>
<text text-anchor="start" x="2897.42" y="-490.6" font-family="Arial" font-size="14.00" fill="#666666">[text]</text>
<polygon fill="none" stroke="black" points="2849.18,-447.6 2849.18,-478.4 3147.14,-478.4 3147.14,-447.6 2849.18,-447.6"/>
<text text-anchor="start" x="2856.18" y="-459.8" font-family="Arial" font-size="14.00">trigger_context </text>
<text text-anchor="start" x="2952.67" y="-459.8" font-family="Arial" font-size="14.00" fill="#666666">[jsonb]</text>
<polygon fill="none" stroke="black" points="2849.18,-416.8 2849.18,-447.6 3147.14,-447.6 3147.14,-416.8 2849.18,-416.8"/>
<text text-anchor="start" x="2856.18" y="-429" font-family="Arial" font-size="14.00">trigger_type </text>
<text text-anchor="start" x="2934" y="-429" font-family="Arial" font-size="14.00" fill="#666666">[text]</text>
<polygon fill="none" stroke="black" points="2849.18,-386 2849.18,-416.8 3147.14,-416.8 3147.14,-386 2849.18,-386"/>
<text text-anchor="start" x="2856.18" y="-398.2" font-family="Arial" font-size="14.00">workflow_id </text>
<text text-anchor="start" x="2933.2" y="-398.2" font-family="Arial" font-size="14.00" fill="#666666">[uuid]</text>
</g>
<!-- public.workflow_runs&#45;&gt;public.users -->
<g id="edge8" class="edge">
<title>public.workflow_runs:created_by&#45;&gt;public.users:id</title>
<path fill="none" stroke="black" d="M2838.06,-831.27C2747.32,-805.78 2868.89,-420.57 2797.16,-342.8 2639.57,-171.96 2001.42,-151 1769,-151"/>
<polygon fill="black" stroke="black" points="2837.93,-831.26 2847.26,-837.02 2843.22,-831.95 2847.51,-832.51 2847.51,-832.51 2847.51,-832.51 2843.22,-831.95 2848.43,-828.09 2837.93,-831.26"/>
</g>
</g>
</svg>
