<?xml version="1.0" encoding="UTF-8" standalone="no"?>
<!DOCTYPE svg PUBLIC "-//W3C//DTD SVG 1.1//EN"
 "http://www.w3.org/Graphics/SVG/1.1/DTD/svg11.dtd">
<!-- Generated by graphviz version 12.1.2 (20240928.0832)
 -->
<!-- Title: public.project_members Pages: 1 -->
<svg width="1048pt" height="945pt"
 viewBox="0.00 0.00 1047.84 944.80" xmlns="http://www.w3.org/2000/svg" xmlns:xlink="http://www.w3.org/1999/xlink">
<g id="graph0" class="graph" transform="scale(1 1) rotate(0) translate(4 940.8)">
<title>public.project_members</title>
<polygon fill="white" stroke="none" points="-4,4 -4,-940.8 1043.84,-940.8 1043.84,4 -4,4"/>
<!-- public.project_members -->
<g id="node1" class="node">
<title>public.project_members</title>
<polygon fill="#efefef" stroke="none" points="475.2,-855 475.2,-890.6 788.14,-890.6 788.14,-855 475.2,-855"/>
<polygon fill="none" stroke="black" points="475.2,-855 475.2,-890.6 788.14,-890.6 788.14,-855 475.2,-855"/>
<text text-anchor="start" x="482.2" y="-868.4" font-family="Arial Bold" font-size="18.00">public.project_members</text>
<text text-anchor="start" x="656.65" y="-868.4" font-family="Arial" font-size="14.00">    </text>
<text text-anchor="start" x="687.77" y="-868.4" font-family="Arial" font-size="14.00" fill="#666666">[BASE TABLE]</text>
<polygon fill="none" stroke="black" points="475.2,-824.2 475.2,-855 788.14,-855 788.14,-824.2 475.2,-824.2"/>
<text text-anchor="start" x="482.2" y="-836.4" font-family="Arial" font-size="14.00">created_at </text>
<text text-anchor="start" x="552.25" y="-836.4" font-family="Arial" font-size="14.00" fill="#666666">[timestamp with time zone]</text>
<polygon fill="none" stroke="black" points="475.2,-793.4 475.2,-824.2 788.14,-824.2 788.14,-793.4 475.2,-793.4"/>
<text text-anchor="start" x="482.2" y="-805.6" font-family="Arial" font-size="14.00">project_id </text>
<text text-anchor="start" x="546.8" y="-805.6" font-family="Arial" font-size="14.00" fill="#666666">[uuid]</text>
<polygon fill="none" stroke="black" points="475.2,-762.6 475.2,-793.4 788.14,-793.4 788.14,-762.6 475.2,-762.6"/>
<text text-anchor="start" x="482.2" y="-774.8" font-family="Arial" font-size="14.00">role </text>
<text text-anchor="start" x="509.44" y="-774.8" font-family="Arial" font-size="14.00" fill="#666666">[text]</text>
<polygon fill="none" stroke="black" points="475.2,-731.8 475.2,-762.6 788.14,-762.6 788.14,-731.8 475.2,-731.8"/>
<text text-anchor="start" x="482.2" y="-744" font-family="Arial" font-size="14.00">user_id </text>
<text text-anchor="start" x="532.01" y="-744" font-family="Arial" font-size="14.00" fill="#666666">[uuid]</text>
<polygon fill="none" stroke="black" stroke-width="3" points="473.7,-730.3 473.7,-892.1 789.64,-892.1 789.64,-730.3 473.7,-730.3"/>
</g>
<!-- public.projects -->
<g id="node2" class="node">
<title>public.projects</title>
<polygon fill="#efefef" stroke="none" points="306.83,-555.4 306.83,-591 560.51,-591 560.51,-555.4 306.83,-555.4"/>
<polygon fill="none" stroke="black" points="306.83,-555.4 306.83,-591 560.51,-591 560.51,-555.4 306.83,-555.4"/>
<text text-anchor="start" x="318.19" y="-568.8" font-family="Arial Bold" font-size="18.00">public.projects</text>
<text text-anchor="start" x="424.66" y="-568.8" font-family="Arial" font-size="14.00">    </text>
<text text-anchor="start" x="455.78" y="-568.8" font-family="Arial" font-size="14.00" fill="#666666">[BASE TABLE]</text>
<polygon fill="none" stroke="black" points="306.83,-524.6 306.83,-555.4 560.51,-555.4 560.51,-524.6 306.83,-524.6"/>
<text text-anchor="start" x="313.83" y="-536.8" font-family="Arial" font-size="14.00">created_at </text>
<text text-anchor="start" x="383.88" y="-536.8" font-family="Arial" font-size="14.00" fill="#666666">[timestamp with time zone]</text>
<polygon fill="none" stroke="black" points="306.83,-493.8 306.83,-524.6 560.51,-524.6 560.51,-493.8 306.83,-493.8"/>
<text text-anchor="start" x="313.83" y="-506" font-family="Arial" font-size="14.00">id </text>
<text text-anchor="start" x="328.62" y="-506" font-family="Arial" font-size="14.00" fill="#666666">[uuid]</text>
<polygon fill="none" stroke="black" points="306.83,-463 306.83,-493.8 560.51,-493.8 560.51,-463 306.83,-463"/>
<text text-anchor="start" x="313.83" y="-475.2" font-family="Arial" font-size="14.00">name </text>
<text text-anchor="start" x="352.74" y="-475.2" font-family="Arial" font-size="14.00" fill="#666666">[varchar(100)]</text>
<polygon fill="none" stroke="black" points="306.83,-432.2 306.83,-463 560.51,-463 560.51,-432.2 306.83,-432.2"/>
<text text-anchor="start" x="313.83" y="-444.4" font-family="Arial" font-size="14.00">owner_id </text>
<text text-anchor="start" x="374.53" y="-444.4" font-family="Arial" font-size="14.00" fill="#666666">[uuid]</text>
<polygon fill="none" stroke="black" points="306.83,-401.4 306.83,-432.2 560.51,-432.2 560.51,-401.4 306.83,-401.4"/>
<text text-anchor="start" x="313.83" y="-413.6" font-family="Arial" font-size="14.00">updated_at </text>
<text text-anchor="start" x="387.79" y="-413.6" font-family="Arial" font-size="14.00" fill="#666666">[timestamp with time zone]</text>
</g>
<!-- public.project_members&#45;&gt;public.projects -->
<g id="edge1" class="edge">
<title>public.project_members:project_id&#45;&gt;public.projects:id</title>
<path fill="none" stroke="black" d="M463.86,-807.71C423.46,-798.3 449.98,-729.82 475.2,-685.6 497.13,-647.15 538.58,-672.65 560.51,-634.2 588.03,-585.94 617.07,-509.2 561.51,-509.2"/>
<polygon fill="black" stroke="black" points="463.92,-807.72 473.4,-813.24 469.23,-808.28 473.54,-808.73 473.54,-808.73 473.54,-808.73 469.23,-808.28 474.34,-804.29 463.92,-807.72"/>
<text text-anchor="start" x="112.12" y="-818.8" font-family="Arial" font-size="10.00">FOREIGN KEY (project_id) REFERENCES projects(id) ON DELETE CASCADE</text>
</g>
<!-- public.users -->
<g id="node4" class="node">
<title>public.users</title>
<polygon fill="#efefef" stroke="none" points="504.83,-228 504.83,-263.6 758.51,-263.6 758.51,-228 504.83,-228"/>
<polygon fill="none" stroke="black" points="504.83,-228 504.83,-263.6 758.51,-263.6 758.51,-228 504.83,-228"/>
<text text-anchor="start" x="526.18" y="-241.4" font-family="Arial Bold" font-size="18.00">public.users</text>
<text text-anchor="start" x="612.67" y="-241.4" font-family="Arial" font-size="14.00">    </text>
<text text-anchor="start" x="643.78" y="-241.4" font-family="Arial" font-size="14.00" fill="#666666">[BASE TABLE]</text>
<polygon fill="none" stroke="black" points="504.83,-197.2 504.83,-228 758.51,-228 758.51,-197.2 504.83,-197.2"/>
<text text-anchor="start" x="511.83" y="-209.4" font-family="Arial" font-size="14.00">created_at </text>
<text text-anchor="start" x="581.88" y="-209.4" font-family="Arial" font-size="14.00" fill="#666666">[timestamp with time zone]</text>
<polygon fill="none" stroke="black" points="504.83,-166.4 504.83,-197.2 758.51,-197.2 758.51,-166.4 504.83,-166.4"/>
<text text-anchor="start" x="511.83" y="-178.6" font-family="Arial" font-size="14.00">email </text>
<text text-anchor="start" x="549.17" y="-178.6" font-family="Arial" font-size="14.00" fill="#666666">[varchar(320)]</text>
<polygon fill="none" stroke="black" points="504.83,-135.6 504.83,-166.4 758.51,-166.4 758.51,-135.6 504.83,-135.6"/>
<text text-anchor="start" x="511.83" y="-147.8" font-family="Arial" font-size="14.00">id </text>
<text text-anchor="start" x="526.62" y="-147.8" font-family="Arial" font-size="14.00" fill="#666666">[uuid]</text>
<polygon fill="none" stroke="black" points="504.83,-104.8 504.83,-135.6 758.51,-135.6 758.51,-104.8 504.83,-104.8"/>
<text text-anchor="start" x="511.83" y="-117" font-family="Arial" font-size="14.00">password_hash </text>
<text text-anchor="start" x="613.78" y="-117" font-family="Arial" font-size="14.00" fill="#666666">[text]</text>
<polygon fill="none" stroke="black" points="504.83,-74 504.83,-104.8 758.51,-104.8 758.51,-74 504.83,-74"/>
<text text-anchor="start" x="511.83" y="-86.2" font-family="Arial" font-size="14.00">role </text>
<text text-anchor="start" x="539.06" y="-86.2" font-family="Arial" font-size="14.00" fill="#666666">[text]</text>
<polygon fill="none" stroke="black" points="504.83,-43.2 504.83,-74 758.51,-74 758.51,-43.2 504.83,-43.2"/>
<text text-anchor="start" x="511.83" y="-55.4" font-family="Arial" font-size="14.00">updated_at </text>
<text text-anchor="start" x="585.79" y="-55.4" font-family="Arial" font-size="14.00" fill="#666666">[timestamp with time zone]</text>
</g>
<!-- public.project_members&#45;&gt;public.users -->
<g id="edge4" class="edge">
<title>public.project_members:user_id&#45;&gt;public.users:id</title>
<path fill="none" stroke="black" d="M631.54,-720.6C629.33,-627.42 600.45,-409.03 650.67,-342.8 681.2,-302.54 728.84,-347.7 758.51,-306.8 799.17,-250.75 828.76,-151 759.51,-151"/>
<polygon fill="black" stroke="black" points="631.54,-720.47 627.17,-730.52 631.61,-725.8 631.66,-730.13 631.66,-730.13 631.66,-730.13 631.61,-725.8 636.17,-730.41 631.54,-720.47"/>
<text text-anchor="start" x="638.67" y="-740.8" font-family="Arial" font-size="10.00">FOREIGN KEY (user_id) REFERENCES users(id) ON DELETE CASCADE</text>
</g>
<!-- public.projects&#45;&gt;public.users -->
<g id="edge3" class="edge">
<title>public.projects:owner_id&#45;&gt;public.users:id</title>
<path fill="none" stroke="black" d="M571.7,-446.03C596.34,-436.99 575.01,-390.82 560.51,-358.2 546.83,-327.42 518.44,-337.61 504.83,-306.8 476.85,-243.46 434.58,-151 503.83,-151"/>
<polygon fill="black" stroke="black" points="571.73,-446.03 561.16,-443.1 566.45,-446.84 562.17,-447.5 562.17,-447.5 562.17,-447.5 566.45,-446.84 562.53,-452 571.73,-446.03"/>
<text text-anchor="start" x="212.77" y="-457.6" font-family="Arial" font-size="10.00">FOREIGN KEY (owner_id) REFERENCES users(id) ON DELETE CASCADE</text>
</g>
<!-- public.project_documents -->
<g id="node3" class="node">
<title>public.project_documents</title>
<polygon fill="#efefef" stroke="none" points="43.2,-839.6 43.2,-875.2 368.14,-875.2 368.14,-839.6 43.2,-839.6"/>
<polygon fill="none" stroke="black" points="43.2,-839.6 43.2,-875.2 368.14,-875.2 368.14,-839.6 43.2,-839.6"/>
<text text-anchor="start" x="50.2" y="-853" font-family="Arial Bold" font-size="18.00">public.project_documents</text>
<text text-anchor="start" x="236.65" y="-853" font-family="Arial" font-size="14.00">    </text>
<text text-anchor="start" x="267.77" y="-853" font-family="Arial" font-size="14.00" fill="#666666">[BASE TABLE]</text>
<polygon fill="none" stroke="black" points="43.2,-808.8 43.2,-839.6 368.14,-839.6 368.14,-808.8 43.2,-808.8"/>
<text text-anchor="start" x="50.2" y="-821" font-family="Arial" font-size="14.00">document </text>
<text text-anchor="start" x="115.57" y="-821" font-family="Arial" font-size="14.00" fill="#666666">[jsonb]</text>
<polygon fill="none" stroke="black" points="43.2,-778 43.2,-808.8 368.14,-808.8 368.14,-778 43.2,-778"/>
<text text-anchor="start" x="50.2" y="-790.2" font-family="Arial" font-size="14.00">project_id </text>
<text text-anchor="start" x="114.79" y="-790.2" font-family="Arial" font-size="14.00" fill="#666666">[uuid]</text>
<polygon fill="none" stroke="black" points="43.2,-747.2 43.2,-778 368.14,-778 368.14,-747.2 43.2,-747.2"/>
<text text-anchor="start" x="50.2" y="-759.4" font-family="Arial" font-size="14.00">updated_at </text>
<text text-anchor="start" x="124.16" y="-759.4" font-family="Arial" font-size="14.00" fill="#666666">[timestamp with time zone]</text>
</g>
<!-- public.project_documents&#45;&gt;public.projects -->
<g id="edge2" class="edge">
<title>public.project_documents:project_id&#45;&gt;public.projects:id</title>
<path fill="none" stroke="black" d="M379.28,-791.85C403.62,-782.93 380.92,-737.34 368.14,-704 353.36,-665.44 321.54,-672.78 306.83,-634.2 287.03,-582.29 250.27,-509.2 305.83,-509.2"/>
<polygon fill="black" stroke="black" points="379.36,-791.84 368.79,-788.9 374.08,-792.65 369.8,-793.3 369.8,-793.3 369.8,-793.3 374.08,-792.65 370.15,-797.8 379.36,-791.84"/>
<text text-anchor="start" x="191.6" y="-777.4" font-family="Arial" font-size="10.00">FOREIGN KEY (project_id) REFERENCES projects(id) ON DELETE CASCADE</text>
</g>
<!-- public.refresh_tokens -->
<g id="node5" class="node">
<title>public.refresh_tokens</title>
<polygon fill="#efefef" stroke="none" points="702.7,-570.8 702.7,-606.4 996.64,-606.4 996.64,-570.8 702.7,-570.8"/>
<polygon fill="none" stroke="black" points="702.7,-570.8 702.7,-606.4 996.64,-606.4 996.64,-570.8 702.7,-570.8"/>
<text text-anchor="start" x="709.7" y="-584.2" font-family="Arial Bold" font-size="18.00">public.refresh_tokens</text>
<text text-anchor="start" x="865.15" y="-584.2" font-family="Arial" font-size="14.00">    </text>
<text text-anchor="start" x="896.27" y="-584.2" font-family="Arial" font-size="14.00" fill="#666666">[BASE TABLE]</text>
<polygon fill="none" stroke="black" points="702.7,-540 702.7,-570.8 996.64,-570.8 996.64,-540 702.7,-540"/>
<text text-anchor="start" x="709.7" y="-552.2" font-family="Arial" font-size="14.00">created_at </text>
<text text-anchor="start" x="779.75" y="-552.2" font-family="Arial" font-size="14.00" fill="#666666">[timestamp with time zone]</text>
<polygon fill="none" stroke="black" points="702.7,-509.2 702.7,-540 996.64,-540 996.64,-509.2 702.7,-509.2"/>
<text text-anchor="start" x="709.7" y="-521.4" font-family="Arial" font-size="14.00">expires_at </text>
<text text-anchor="start" x="778.18" y="-521.4" font-family="Arial" font-size="14.00" fill="#666666">[timestamp with time zone]</text>
<polygon fill="none" stroke="black" points="702.7,-478.4 702.7,-509.2 996.64,-509.2 996.64,-478.4 702.7,-478.4"/>
<text text-anchor="start" x="709.7" y="-490.6" font-family="Arial" font-size="14.00">id </text>
<text text-anchor="start" x="724.49" y="-490.6" font-family="Arial" font-size="14.00" fill="#666666">[uuid]</text>
<polygon fill="none" stroke="black" points="702.7,-447.6 702.7,-478.4 996.64,-478.4 996.64,-447.6 702.7,-447.6"/>
<text text-anchor="start" x="709.7" y="-459.8" font-family="Arial" font-size="14.00">revoked_at </text>
<text text-anchor="start" x="782.86" y="-459.8" font-family="Arial" font-size="14.00" fill="#666666">[timestamp with time zone]</text>
<polygon fill="none" stroke="black" points="702.7,-416.8 702.7,-447.6 996.64,-447.6 996.64,-416.8 702.7,-416.8"/>
<text text-anchor="start" x="709.7" y="-429" font-family="Arial" font-size="14.00">token_hash </text>
<text text-anchor="start" x="785.98" y="-429" font-family="Arial" font-size="14.00" fill="#666666">[character(64)]</text>
<polygon fill="none" stroke="black" points="702.7,-386 702.7,-416.8 996.64,-416.8 996.64,-386 702.7,-386"/>
<text text-anchor="start" x="709.7" y="-398.2" font-family="Arial" font-size="14.00">user_id </text>
<text text-anchor="start" x="759.51" y="-398.2" font-family="Arial" font-size="14.00" fill="#666666">[uuid]</text>
</g>
<!-- public.refresh_tokens&#45;&gt;public.users -->
<g id="edge5" class="edge">
<title>public.refresh_tokens:user_id&#45;&gt;public.users:id</title>
<path fill="none" stroke="black" d="M691.96,-398.72C680.33,-389.99 692.12,-361.83 702.7,-342.8 717.04,-317 744.3,-332.67 758.51,-306.8 791.84,-246.1 828.76,-151 759.51,-151"/>
<polygon fill="black" stroke="black" points="691.73,-398.66 700.18,-405.65 696.88,-400.07 701.05,-401.22 701.05,-401.22 701.05,-401.22 696.88,-400.07 702.57,-396.97 691.73,-398.66"/>
<text text-anchor="start" x="360.74" y="-411.4" font-family="Arial" font-size="10.00">FOREIGN KEY (user_id) REFERENCES users(id) ON DELETE CASCADE</text>
</g>
</g>
</svg>
