<?xml version="1.0" encoding="UTF-8" standalone="no"?>
<!DOCTYPE svg PUBLIC "-//W3C//DTD SVG 1.1//EN"
 "http://www.w3.org/Graphics/SVG/1.1/DTD/svg11.dtd">
<!-- Generated by graphviz version 12.1.2 (20240928.0832)
 -->
<!-- Title: BakeApp PostgreSQL Schema Pages: 1 -->
<svg width="2251pt" height="1000pt"
 viewBox="0.00 0.00 2250.83 1000.40" xmlns="http://www.w3.org/2000/svg" xmlns:xlink="http://www.w3.org/1999/xlink">
<g id="graph0" class="graph" transform="scale(1 1) rotate(0) translate(4 996.4)">
<title>BakeApp PostgreSQL Schema</title>
<polygon fill="white" stroke="none" points="-4,4 -4,-996.4 2246.83,-996.4 2246.83,4 -4,4"/>
<!-- public.project_documents -->
<g id="node1" class="node">
<title>public.project_documents</title>
<polygon fill="#efefef" stroke="none" points="43.2,-867.4 43.2,-903 368.14,-903 368.14,-867.4 43.2,-867.4"/>
<polygon fill="none" stroke="black" points="43.2,-867.4 43.2,-903 368.14,-903 368.14,-867.4 43.2,-867.4"/>
<text text-anchor="start" x="50.2" y="-880.8" font-family="Arial Bold" font-size="18.00">public.project_documents</text>
<text text-anchor="start" x="236.65" y="-880.8" font-family="Arial" font-size="14.00">    </text>
<text text-anchor="start" x="267.77" y="-880.8" font-family="Arial" font-size="14.00" fill="#666666">[BASE TABLE]</text>
<polygon fill="none" stroke="black" points="43.2,-836.6 43.2,-867.4 368.14,-867.4 368.14,-836.6 43.2,-836.6"/>
<text text-anchor="start" x="50.2" y="-848.8" font-family="Arial" font-size="14.00">document </text>
<text text-anchor="start" x="115.57" y="-848.8" font-family="Arial" font-size="14.00" fill="#666666">[jsonb]</text>
<polygon fill="none" stroke="black" points="43.2,-805.8 43.2,-836.6 368.14,-836.6 368.14,-805.8 43.2,-805.8"/>
<text text-anchor="start" x="50.2" y="-818" font-family="Arial" font-size="14.00">project_id </text>
<text text-anchor="start" x="114.79" y="-818" font-family="Arial" font-size="14.00" fill="#666666">[uuid]</text>
<polygon fill="none" stroke="black" points="43.2,-775 43.2,-805.8 368.14,-805.8 368.14,-775 43.2,-775"/>
<text text-anchor="start" x="50.2" y="-787.2" font-family="Arial" font-size="14.00">updated_at </text>
<text text-anchor="start" x="124.16" y="-787.2" font-family="Arial" font-size="14.00" fill="#666666">[timestamp with time zone]</text>
</g>
<!-- public.projects -->
<g id="node4" class="node">
<title>public.projects</title>
<polygon fill="#efefef" stroke="none" points="607.83,-555.4 607.83,-591 861.51,-591 861.51,-555.4 607.83,-555.4"/>
<polygon fill="none" stroke="black" points="607.83,-555.4 607.83,-591 861.51,-591 861.51,-555.4 607.83,-555.4"/>
<text text-anchor="start" x="619.19" y="-568.8" font-family="Arial Bold" font-size="18.00">public.projects</text>
<text text-anchor="start" x="725.66" y="-568.8" font-family="Arial" font-size="14.00">    </text>
<text text-anchor="start" x="756.78" y="-568.8" font-family="Arial" font-size="14.00" fill="#666666">[BASE TABLE]</text>
<polygon fill="none" stroke="black" points="607.83,-524.6 607.83,-555.4 861.51,-555.4 861.51,-524.6 607.83,-524.6"/>
<text text-anchor="start" x="614.83" y="-536.8" font-family="Arial" font-size="14.00">created_at </text>
<text text-anchor="start" x="684.88" y="-536.8" font-family="Arial" font-size="14.00" fill="#666666">[timestamp with time zone]</text>
<polygon fill="none" stroke="black" points="607.83,-493.8 607.83,-524.6 861.51,-524.6 861.51,-493.8 607.83,-493.8"/>
<text text-anchor="start" x="614.83" y="-506" font-family="Arial" font-size="14.00">id </text>
<text text-anchor="start" x="629.62" y="-506" font-family="Arial" font-size="14.00" fill="#666666">[uuid]</text>
<polygon fill="none" stroke="black" points="607.83,-463 607.83,-493.8 861.51,-493.8 861.51,-463 607.83,-463"/>
<text text-anchor="start" x="614.83" y="-475.2" font-family="Arial" font-size="14.00">name </text>
<text text-anchor="start" x="653.74" y="-475.2" font-family="Arial" font-size="14.00" fill="#666666">[varchar(100)]</text>
<polygon fill="none" stroke="black" points="607.83,-432.2 607.83,-463 861.51,-463 861.51,-432.2 607.83,-432.2"/>
<text text-anchor="start" x="614.83" y="-444.4" font-family="Arial" font-size="14.00">owner_id </text>
<text text-anchor="start" x="675.53" y="-444.4" font-family="Arial" font-size="14.00" fill="#666666">[uuid]</text>
<polygon fill="none" stroke="black" points="607.83,-401.4 607.83,-432.2 861.51,-432.2 861.51,-401.4 607.83,-401.4"/>
<text text-anchor="start" x="614.83" y="-413.6" font-family="Arial" font-size="14.00">updated_at </text>
<text text-anchor="start" x="688.79" y="-413.6" font-family="Arial" font-size="14.00" fill="#666666">[timestamp with time zone]</text>
</g>
<!-- public.project_documents&#45;&gt;public.projects -->
<g id="edge1" class="edge">
<title>public.project_documents:project_id&#45;&gt;public.projects:id</title>
<path fill="none" stroke="black" d="M379.35,-820.38C428.2,-811.69 387.02,-736.11 420.67,-685.6 483.87,-590.74 492.85,-509.2 606.83,-509.2"/>
<polygon fill="black" stroke="black" points="379.44,-820.37 369.11,-816.69 374.12,-820.8 369.81,-821.15 369.81,-821.15 369.81,-821.15 374.12,-820.8 369.84,-825.66 379.44,-820.37"/>
</g>
<!-- public.project_members -->
<g id="node2" class="node">
<title>public.project_members</title>
<polygon fill="#efefef" stroke="none" points="885.2,-882.8 885.2,-918.4 1198.14,-918.4 1198.14,-882.8 885.2,-882.8"/>
<polygon fill="none" stroke="black" points="885.2,-882.8 885.2,-918.4 1198.14,-918.4 1198.14,-882.8 885.2,-882.8"/>
<text text-anchor="start" x="892.2" y="-896.2" font-family="Arial Bold" font-size="18.00">public.project_members</text>
<text text-anchor="start" x="1066.65" y="-896.2" font-family="Arial" font-size="14.00">    </text>
<text text-anchor="start" x="1097.77" y="-896.2" font-family="Arial" font-size="14.00" fill="#666666">[BASE TABLE]</text>
<polygon fill="none" stroke="black" points="885.2,-852 885.2,-882.8 1198.14,-882.8 1198.14,-852 885.2,-852"/>
<text text-anchor="start" x="892.2" y="-864.2" font-family="Arial" font-size="14.00">created_at </text>
<text text-anchor="start" x="962.25" y="-864.2" font-family="Arial" font-size="14.00" fill="#666666">[timestamp with time zone]</text>
<polygon fill="none" stroke="black" points="885.2,-821.2 885.2,-852 1198.14,-852 1198.14,-821.2 885.2,-821.2"/>
<text text-anchor="start" x="892.2" y="-833.4" font-family="Arial" font-size="14.00">project_id </text>
<text text-anchor="start" x="956.8" y="-833.4" font-family="Arial" font-size="14.00" fill="#666666">[uuid]</text>
<polygon fill="none" stroke="black" points="885.2,-790.4 885.2,-821.2 1198.14,-821.2 1198.14,-790.4 885.2,-790.4"/>
<text text-anchor="start" x="892.2" y="-802.6" font-family="Arial" font-size="14.00">role </text>
<text text-anchor="start" x="919.44" y="-802.6" font-family="Arial" font-size="14.00" fill="#666666">[text]</text>
<polygon fill="none" stroke="black" points="885.2,-759.6 885.2,-790.4 1198.14,-790.4 1198.14,-759.6 885.2,-759.6"/>
<text text-anchor="start" x="892.2" y="-771.8" font-family="Arial" font-size="14.00">user_id </text>
<text text-anchor="start" x="942.01" y="-771.8" font-family="Arial" font-size="14.00" fill="#666666">[uuid]</text>
</g>
<!-- public.project_members&#45;&gt;public.projects -->
<g id="edge3" class="edge">
<title>public.project_members:project_id&#45;&gt;public.projects:id</title>
<path fill="none" stroke="black" d="M873.89,-835.98C751.81,-820.19 1004.64,-509.2 862.51,-509.2"/>
<polygon fill="black" stroke="black" points="873.89,-835.98 883.6,-841.07 879.21,-836.3 883.54,-836.56 883.54,-836.56 883.54,-836.56 879.21,-836.3 884.14,-832.09 873.89,-835.98"/>
</g>
<!-- public.users -->
<g id="node8" class="node">
<title>public.users</title>
<polygon fill="#efefef" stroke="none" points="1077.83,-228 1077.83,-263.6 1331.51,-263.6 1331.51,-228 1077.83,-228"/>
<polygon fill="none" stroke="black" points="1077.83,-228 1077.83,-263.6 1331.51,-263.6 1331.51,-228 1077.83,-228"/>
<text text-anchor="start" x="1099.18" y="-241.4" font-family="Arial Bold" font-size="18.00">public.users</text>
<text text-anchor="start" x="1185.67" y="-241.4" font-family="Arial" font-size="14.00">    </text>
<text text-anchor="start" x="1216.78" y="-241.4" font-family="Arial" font-size="14.00" fill="#666666">[BASE TABLE]</text>
<polygon fill="none" stroke="black" points="1077.83,-197.2 1077.83,-228 1331.51,-228 1331.51,-197.2 1077.83,-197.2"/>
<text text-anchor="start" x="1084.83" y="-209.4" font-family="Arial" font-size="14.00">created_at </text>
<text text-anchor="start" x="1154.88" y="-209.4" font-family="Arial" font-size="14.00" fill="#666666">[timestamp with time zone]</text>
<polygon fill="none" stroke="black" points="1077.83,-166.4 1077.83,-197.2 1331.51,-197.2 1331.51,-166.4 1077.83,-166.4"/>
<text text-anchor="start" x="1084.83" y="-178.6" font-family="Arial" font-size="14.00">email </text>
<text text-anchor="start" x="1122.17" y="-178.6" font-family="Arial" font-size="14.00" fill="#666666">[varchar(320)]</text>
<polygon fill="none" stroke="black" points="1077.83,-135.6 1077.83,-166.4 1331.51,-166.4 1331.51,-135.6 1077.83,-135.6"/>
<text text-anchor="start" x="1084.83" y="-147.8" font-family="Arial" font-size="14.00">id </text>
<text text-anchor="start" x="1099.62" y="-147.8" font-family="Arial" font-size="14.00" fill="#666666">[uuid]</text>
<polygon fill="none" stroke="black" points="1077.83,-104.8 1077.83,-135.6 1331.51,-135.6 1331.51,-104.8 1077.83,-104.8"/>
<text text-anchor="start" x="1084.83" y="-117" font-family="Arial" font-size="14.00">password_hash </text>
<text text-anchor="start" x="1186.78" y="-117" font-family="Arial" font-size="14.00" fill="#666666">[text]</text>
<polygon fill="none" stroke="black" points="1077.83,-74 1077.83,-104.8 1331.51,-104.8 1331.51,-74 1077.83,-74"/>
<text text-anchor="start" x="1084.83" y="-86.2" font-family="Arial" font-size="14.00">role </text>
<text text-anchor="start" x="1112.06" y="-86.2" font-family="Arial" font-size="14.00" fill="#666666">[text]</text>
<polygon fill="none" stroke="black" points="1077.83,-43.2 1077.83,-74 1331.51,-74 1331.51,-43.2 1077.83,-43.2"/>
<text text-anchor="start" x="1084.83" y="-55.4" font-family="Arial" font-size="14.00">updated_at </text>
<text text-anchor="start" x="1158.79" y="-55.4" font-family="Arial" font-size="14.00" fill="#666666">[timestamp with time zone]</text>
</g>
<!-- public.project_members&#45;&gt;public.users -->
<g id="edge2" class="edge">
<title>public.project_members:user_id&#45;&gt;public.users:id</title>
<path fill="none" stroke="black" d="M1041.25,-748.19C1037.74,-706.26 1013.19,-696.33 1005.67,-649.6 984.01,-514.98 981.58,-477.01 1005.67,-342.8 1021.74,-253.31 985.91,-151 1076.83,-151"/>
<polygon fill="black" stroke="black" points="1041.25,-748.27 1037.16,-758.45 1041.47,-753.6 1041.64,-757.93 1041.64,-757.93 1041.64,-757.93 1041.47,-753.6 1046.15,-758.08 1041.25,-748.27"/>
</g>
<!-- public.project_schemas -->
<g id="node3" class="node">
<title>public.project_schemas</title>
<polygon fill="#efefef" stroke="none" points="472.7,-913.6 472.7,-949.2 780.64,-949.2 780.64,-913.6 472.7,-913.6"/>
<polygon fill="none" stroke="black" points="472.7,-913.6 472.7,-949.2 780.64,-949.2 780.64,-913.6 472.7,-913.6"/>
<text text-anchor="start" x="479.7" y="-927" font-family="Arial Bold" font-size="18.00">public.project_schemas</text>
<text text-anchor="start" x="649.15" y="-927" font-family="Arial" font-size="14.00">    </text>
<text text-anchor="start" x="680.26" y="-927" font-family="Arial" font-size="14.00" fill="#666666">[BASE TABLE]</text>
<polygon fill="none" stroke="black" points="472.7,-882.8 472.7,-913.6 780.64,-913.6 780.64,-882.8 472.7,-882.8"/>
<text text-anchor="start" x="479.7" y="-895" font-family="Arial" font-size="14.00">created_at </text>
<text text-anchor="start" x="549.75" y="-895" font-family="Arial" font-size="14.00" fill="#666666">[timestamp with time zone]</text>
<polygon fill="none" stroke="black" points="472.7,-852 472.7,-882.8 780.64,-882.8 780.64,-852 472.7,-852"/>
<text text-anchor="start" x="479.7" y="-864.2" font-family="Arial" font-size="14.00">id </text>
<text text-anchor="start" x="494.49" y="-864.2" font-family="Arial" font-size="14.00" fill="#666666">[uuid]</text>
<polygon fill="none" stroke="black" points="472.7,-821.2 472.7,-852 780.64,-852 780.64,-821.2 472.7,-821.2"/>
<text text-anchor="start" x="479.7" y="-833.4" font-family="Arial" font-size="14.00">project_id </text>
<text text-anchor="start" x="544.3" y="-833.4" font-family="Arial" font-size="14.00" fill="#666666">[uuid]</text>
<polygon fill="none" stroke="black" points="472.7,-790.4 472.7,-821.2 780.64,-821.2 780.64,-790.4 472.7,-790.4"/>
<text text-anchor="start" x="479.7" y="-802.6" font-family="Arial" font-size="14.00">schema_definition </text>
<text text-anchor="start" x="596.44" y="-802.6" font-family="Arial" font-size="14.00" fill="#666666">[jsonb]</text>
<polygon fill="none" stroke="black" points="472.7,-759.6 472.7,-790.4 780.64,-790.4 780.64,-759.6 472.7,-759.6"/>
<text text-anchor="start" x="479.7" y="-771.8" font-family="Arial" font-size="14.00">table_name </text>
<text text-anchor="start" x="556.76" y="-771.8" font-family="Arial" font-size="14.00" fill="#666666">[varchar(64)]</text>
<polygon fill="none" stroke="black" points="472.7,-728.8 472.7,-759.6 780.64,-759.6 780.64,-728.8 472.7,-728.8"/>
<text text-anchor="start" x="479.7" y="-741" font-family="Arial" font-size="14.00">updated_at </text>
<text text-anchor="start" x="553.66" y="-741" font-family="Arial" font-size="14.00" fill="#666666">[timestamp with time zone]</text>
</g>
<!-- public.project_schemas&#45;&gt;public.projects -->
<g id="edge4" class="edge">
<title>public.project_schemas:project_id&#45;&gt;public.projects:id</title>
<path fill="none" stroke="black" d="M791.81,-835.75C845.67,-826.08 818.74,-736.33 780.64,-685.6 732.52,-621.53 655.99,-698.24 607.83,-634.2 574.44,-589.8 551.27,-509.2 606.83,-509.2"/>
<polygon fill="black" stroke="black" points="791.94,-835.74 781.6,-832.09 786.62,-836.18 782.3,-836.54 782.3,-836.54 782.3,-836.54 786.62,-836.18 782.35,-841.06 791.94,-835.74"/>
</g>
<!-- public.projects&#45;&gt;public.users -->
<g id="edge5" class="edge">
<title>public.projects:owner_id&#45;&gt;public.users:id</title>
<path fill="none" stroke="black" d="M872.62,-447.2C1020.5,-434.99 917.69,-151 1076.83,-151"/>
<polygon fill="black" stroke="black" points="872.84,-447.19 862.67,-443.09 867.51,-447.4 863.18,-447.57 863.18,-447.57 863.18,-447.57 867.51,-447.4 863.03,-452.08 872.84,-447.19"/>
</g>
<!-- public.refresh_tokens -->
<g id="node5" class="node">
<title>public.refresh_tokens</title>
<polygon fill="#efefef" stroke="none" points="1057.7,-570.8 1057.7,-606.4 1351.64,-606.4 1351.64,-570.8 1057.7,-570.8"/>
<polygon fill="none" stroke="black" points="1057.7,-570.8 1057.7,-606.4 1351.64,-606.4 1351.64,-570.8 1057.7,-570.8"/>
<text text-anchor="start" x="1064.7" y="-584.2" font-family="Arial Bold" font-size="18.00">public.refresh_tokens</text>
<text text-anchor="start" x="1220.15" y="-584.2" font-family="Arial" font-size="14.00">    </text>
<text text-anchor="start" x="1251.27" y="-584.2" font-family="Arial" font-size="14.00" fill="#666666">[BASE TABLE]</text>
<polygon fill="none" stroke="black" points="1057.7,-540 1057.7,-570.8 1351.64,-570.8 1351.64,-540 1057.7,-540"/>
<text text-anchor="start" x="1064.7" y="-552.2" font-family="Arial" font-size="14.00">created_at </text>
<text text-anchor="start" x="1134.75" y="-552.2" font-family="Arial" font-size="14.00" fill="#666666">[timestamp with time zone]</text>
<polygon fill="none" stroke="black" points="1057.7,-509.2 1057.7,-540 1351.64,-540 1351.64,-509.2 1057.7,-509.2"/>
<text text-anchor="start" x="1064.7" y="-521.4" font-family="Arial" font-size="14.00">expires_at </text>
<text text-anchor="start" x="1133.18" y="-521.4" font-family="Arial" font-size="14.00" fill="#666666">[timestamp with time zone]</text>
<polygon fill="none" stroke="black" points="1057.7,-478.4 1057.7,-509.2 1351.64,-509.2 1351.64,-478.4 1057.7,-478.4"/>
<text text-anchor="start" x="1064.7" y="-490.6" font-family="Arial" font-size="14.00">id </text>
<text text-anchor="start" x="1079.49" y="-490.6" font-family="Arial" font-size="14.00" fill="#666666">[uuid]</text>
<polygon fill="none" stroke="black" points="1057.7,-447.6 1057.7,-478.4 1351.64,-478.4 1351.64,-447.6 1057.7,-447.6"/>
<text text-anchor="start" x="1064.7" y="-459.8" font-family="Arial" font-size="14.00">revoked_at </text>
<text text-anchor="start" x="1137.86" y="-459.8" font-family="Arial" font-size="14.00" fill="#666666">[timestamp with time zone]</text>
<polygon fill="none" stroke="black" points="1057.7,-416.8 1057.7,-447.6 1351.64,-447.6 1351.64,-416.8 1057.7,-416.8"/>
<text text-anchor="start" x="1064.7" y="-429" font-family="Arial" font-size="14.00">token_hash </text>
<text text-anchor="start" x="1140.98" y="-429" font-family="Arial" font-size="14.00" fill="#666666">[character(64)]</text>
<polygon fill="none" stroke="black" points="1057.7,-386 1057.7,-416.8 1351.64,-416.8 1351.64,-386 1057.7,-386"/>
<text text-anchor="start" x="1064.7" y="-398.2" font-family="Arial" font-size="14.00">user_id </text>
<text text-anchor="start" x="1114.51" y="-398.2" font-family="Arial" font-size="14.00" fill="#666666">[uuid]</text>
</g>
<!-- public.refresh_tokens&#45;&gt;public.users -->
<g id="edge6" class="edge">
<title>public.refresh_tokens:user_id&#45;&gt;public.users:id</title>
<path fill="none" stroke="black" d="M1205.55,-374.79C1215.16,-323.62 1300.88,-361.25 1331.51,-306.8 1365.46,-246.45 1401.76,-151 1332.51,-151"/>
<polygon fill="black" stroke="black" points="1205.56,-374.7 1200.22,-384.28 1205.1,-380.02 1204.73,-384.33 1204.73,-384.33 1204.73,-384.33 1205.1,-380.02 1209.18,-385.05 1205.56,-374.7"/>
</g>
<!-- public.tenant_limits -->
<g id="node6" class="node">
<title>public.tenant_limits</title>
<polygon fill="#efefef" stroke="none" points="1455.68,-555.4 1455.68,-591 1737.66,-591 1737.66,-555.4 1455.68,-555.4"/>
<polygon fill="none" stroke="black" points="1455.68,-555.4 1455.68,-591 1737.66,-591 1737.66,-555.4 1455.68,-555.4"/>
<text text-anchor="start" x="1462.68" y="-568.8" font-family="Arial Bold" font-size="18.00">public.tenant_limits</text>
<text text-anchor="start" x="1606.17" y="-568.8" font-family="Arial" font-size="14.00">    </text>
<text text-anchor="start" x="1637.28" y="-568.8" font-family="Arial" font-size="14.00" fill="#666666">[BASE TABLE]</text>
<polygon fill="none" stroke="black" points="1455.68,-524.6 1455.68,-555.4 1737.66,-555.4 1737.66,-524.6 1455.68,-524.6"/>
<text text-anchor="start" x="1462.68" y="-536.8" font-family="Arial" font-size="14.00">allow_code_export </text>
<text text-anchor="start" x="1583.32" y="-536.8" font-family="Arial" font-size="14.00" fill="#666666">[boolean]</text>
<polygon fill="none" stroke="black" points="1455.68,-493.8 1455.68,-524.6 1737.66,-524.6 1737.66,-493.8 1455.68,-493.8"/>
<text text-anchor="start" x="1462.68" y="-506" font-family="Arial" font-size="14.00">created_at </text>
<text text-anchor="start" x="1532.73" y="-506" font-family="Arial" font-size="14.00" fill="#666666">[timestamp with time zone]</text>
<polygon fill="none" stroke="black" points="1455.68,-463 1455.68,-493.8 1737.66,-493.8 1737.66,-463 1455.68,-463"/>
<text text-anchor="start" x="1462.68" y="-475.2" font-family="Arial" font-size="14.00">max_projects </text>
<text text-anchor="start" x="1549.83" y="-475.2" font-family="Arial" font-size="14.00" fill="#666666">[integer]</text>
<polygon fill="none" stroke="black" points="1455.68,-432.2 1455.68,-463 1737.66,-463 1737.66,-432.2 1455.68,-432.2"/>
<text text-anchor="start" x="1462.68" y="-444.4" font-family="Arial" font-size="14.00">plan_type </text>
<text text-anchor="start" x="1527.29" y="-444.4" font-family="Arial" font-size="14.00" fill="#666666">[varchar(20)]</text>
<polygon fill="none" stroke="black" points="1455.68,-401.4 1455.68,-432.2 1737.66,-432.2 1737.66,-401.4 1455.68,-401.4"/>
<text text-anchor="start" x="1462.68" y="-413.6" font-family="Arial" font-size="14.00">user_id </text>
<text text-anchor="start" x="1512.49" y="-413.6" font-family="Arial" font-size="14.00" fill="#666666">[uuid]</text>
</g>
<!-- public.tenant_limits&#45;&gt;public.users -->
<g id="edge7" class="edge">
<title>public.tenant_limits:user_id&#45;&gt;public.users:id</title>
<path fill="none" stroke="black" d="M1444.65,-414.5C1390.32,-388.52 1393.96,-151 1332.51,-151"/>
<polygon fill="black" stroke="black" points="1444.61,-414.49 1453.35,-421.11 1449.81,-415.68 1454.03,-416.65 1454.03,-416.65 1454.03,-416.65 1449.81,-415.68 1455.36,-412.34 1444.61,-414.49"/>
</g>
<!-- public.user_terms_agreements -->
<g id="node7" class="node">
<title>public.user_terms_agreements</title>
<polygon fill="#efefef" stroke="none" points="1841.71,-570.8 1841.71,-606.4 2199.63,-606.4 2199.63,-570.8 1841.71,-570.8"/>
<polygon fill="none" stroke="black" points="1841.71,-570.8 1841.71,-606.4 2199.63,-606.4 2199.63,-570.8 1841.71,-570.8"/>
<text text-anchor="start" x="1848.71" y="-584.2" font-family="Arial Bold" font-size="18.00">public.user_terms_agreements</text>
<text text-anchor="start" x="2068.14" y="-584.2" font-family="Arial" font-size="14.00">    </text>
<text text-anchor="start" x="2099.26" y="-584.2" font-family="Arial" font-size="14.00" fill="#666666">[BASE TABLE]</text>
<polygon fill="none" stroke="black" points="1841.71,-540 1841.71,-570.8 2199.63,-570.8 2199.63,-540 1841.71,-540"/>
<text text-anchor="start" x="1848.71" y="-552.2" font-family="Arial" font-size="14.00">agreed_at </text>
<text text-anchor="start" x="1915.66" y="-552.2" font-family="Arial" font-size="14.00" fill="#666666">[timestamp with time zone]</text>
<polygon fill="none" stroke="black" points="1841.71,-509.2 1841.71,-540 2199.63,-540 2199.63,-509.2 1841.71,-509.2"/>
<text text-anchor="start" x="1848.71" y="-521.4" font-family="Arial" font-size="14.00">consents </text>
<text text-anchor="start" x="1908.64" y="-521.4" font-family="Arial" font-size="14.00" fill="#666666">[jsonb]</text>
<polygon fill="none" stroke="black" points="1841.71,-478.4 1841.71,-509.2 2199.63,-509.2 2199.63,-478.4 1841.71,-478.4"/>
<text text-anchor="start" x="1848.71" y="-490.6" font-family="Arial" font-size="14.00">id </text>
<text text-anchor="start" x="1863.5" y="-490.6" font-family="Arial" font-size="14.00" fill="#666666">[uuid]</text>
<polygon fill="none" stroke="black" points="1841.71,-447.6 1841.71,-478.4 2199.63,-478.4 2199.63,-447.6 1841.71,-447.6"/>
<text text-anchor="start" x="1848.71" y="-459.8" font-family="Arial" font-size="14.00">ip_address </text>
<text text-anchor="start" x="1921.09" y="-459.8" font-family="Arial" font-size="14.00" fill="#666666">[varchar(45)]</text>
<polygon fill="none" stroke="black" points="1841.71,-416.8 1841.71,-447.6 2199.63,-447.6 2199.63,-416.8 1841.71,-416.8"/>
<text text-anchor="start" x="1848.71" y="-429" font-family="Arial" font-size="14.00">terms_version </text>
<text text-anchor="start" x="1940.52" y="-429" font-family="Arial" font-size="14.00" fill="#666666">[varchar(20)]</text>
<polygon fill="none" stroke="black" points="1841.71,-386 1841.71,-416.8 2199.63,-416.8 2199.63,-386 1841.71,-386"/>
<text text-anchor="start" x="1848.71" y="-398.2" font-family="Arial" font-size="14.00">user_id </text>
<text text-anchor="start" x="1898.52" y="-398.2" font-family="Arial" font-size="14.00" fill="#666666">[uuid]</text>
</g>
<!-- public.user_terms_agreements&#45;&gt;public.users -->
<g id="edge8" class="edge">
<title>public.user_terms_agreements:user_id&#45;&gt;public.users:id</title>
<path fill="none" stroke="black" d="M1830.62,-400C1808.27,-392.94 1814.49,-360.74 1789.67,-342.8 1611.08,-213.75 1552.85,-151 1332.51,-151"/>
<polygon fill="black" stroke="black" points="1830.47,-399.98 1839.76,-405.81 1835.76,-400.72 1840.05,-401.31 1840.05,-401.31 1840.05,-401.31 1835.76,-400.72 1841,-396.9 1830.47,-399.98"/>
</g>
</g>
</svg>
